{
.appVersion = "1361";
classes = (
{
automatic = 1;
code = "A Aacute Abreve Acircumflex Adieresis Adotbelow Agrave Amacron Aogonek Aring Aringacute Atilde AE AEacute B C Cacute Ccaron Ccedilla Ccircumflex Cdot D Eth Dcaron Dcroat E Eacute Ebreve Ecaron Ecircumflex Edieresis Edotaccent Edotbelow Egrave Emacron Eogonek Etilde F G Gacute Gbreve Gcaron Gcircumflex Gcommaaccent Gdotaccent H Hbar Hcaron Hcircumflex I IJ Iacute Ibreve Icircumflex Idieresis Idotaccent Idotbelow Igrave Imacron Iogonek Itilde J Jacute Jcircumflex K Kcommaaccent L Lacute Lcaron Lcommaaccent Ldot Lslash M N Nacute Ncaron Ncommaaccent Eng Nhookleft Ntilde O Oacute Obreve Ocircumflex Odieresis Odotbelow Ograve Ohungarumlaut Omacron Oogonek Oslash Oslashacute Otilde OE P Thorn Q R Racute Rcaron Rcommaaccent S Sacute Scaron Scedilla Scircumflex Scommaaccent Germandbls Schwa T Tbar Tcaron Tcedilla Tcommaaccent Tdotbelow U Uacute Ubreve Ucircumflex Udieresis Udotbelow Ugrave Uhungarumlaut Umacron Uogonek Uring Utilde V W Wacute Wcircumflex Wdieresis Wgrave X Y Yacute Ycircumflex Ydieresis Ygrave Ymacron Ytilde Z Zacute Zcaron Zcircumflex Zdotaccent Cacute.loclPLK Nacute.loclPLK Oacute.loclPLK Sacute.loclPLK Zacute.loclPLK K.ss01 Kcommaaccent.ss01 Q.ss01 R.ss01 Racute.ss01 Rcaron.ss01 Rcommaaccent.ss01 Y.ss01 Yacute.ss01 Ycircumflex.ss01 Ydieresis.ss01 Ygrave.ss01 Ymacron.ss01 Ytilde.ss01 Z.ss01 Zacute.ss01 Zcaron.ss01 Zcircumflex.ss01 Zdotaccent.ss01 Zacute.loclPLK.ss01 A.ss10 B.ss10 C.ss10 D.ss10 E.ss10 F.ss10 G.ss10 H.ss10 I.ss10 J.ss10 K.ss10 L.ss10 M.ss10 N.ss10 O.ss10 P.ss10 Q.ss10 R.ss10 S.ss10 T.ss10 U.ss10 V.ss10 W.ss10 X.ss10 Y.ss10 Z.ss10";
name = Uppercase;
},
{
automatic = 1;

glyphs = (
{
glyphname = A;
lastChange = "2023-05-29 09:32:29 +0000";
layers = (
{
layerId = "6D97EE47-94AA-478E-ABFB-936E6C32B491";
paths = (
{
closed = 1;
nodes = (
"221 0 LINE",
"221 30 LINE",
"202 30 OFFCURVE",
"163 33 OFFCURVE",
"133 46 CURVE",
"216 249 LINE",
"478 249 LINE",
"552 46 LINE",
"522 33 OFFCURVE",
"483 30 OFFCURVE",
"464 30 CURVE",
"464 0 LINE",
"721 0 LINE",
"721 30 LINE",
"705 30 OFFCURVE",
"671 33 OFFCURVE",
"645 46 CURVE",
"394 737 LINE",
"312 707 LINE",
"327 665 LINE",
"75 45 LINE",
"50 33 OFFCURVE",
"19 30 OFFCURVE",
"4 30 CURVE",
"4 0 LINE"
);
},
{
closed = 1;
nodes = (
"355 589 LINE",
"460 300 LINE",
"237 300 LINE"
);
}
);
width = 715;
}
);
leftKerningGroup = A;
rightKerningGroup = A;
unicode = 0041;
},
{
glyphname = Aacute;
lastChange = "2023-05-29 09:32:29 +0000";
layers = (
{
layerId = "6D97EE47-94AA-478E-ABFB-936E6C32B491";
paths = (
{
closed = 1;
nodes = (
"221 0 LINE",
"221 30 LINE",
"202 30 OFFCURVE",
"163 33 OFFCURVE",
"133 46 CURVE",
"216 249 LINE",
"478 249 LINE",
"552 46 LINE",
"522 33 OFFCURVE",
"483 30 OFFCURVE",
"464 30 CURVE",
"464 0 LINE",
"721 0 LINE",
"721 30 LINE",
"705 30 OFFCURVE",
"671 33 OFFCURVE",
"645 46 CURVE",
"394 737 LINE",
"312 707 LINE",
"327 665 LINE",
"75 45 LINE",
"50 33 OFFCURVE",
"19 30 OFFCURVE",
"4 30 CURVE",
"4 0 LINE"
);
},
{
closed = 1;
nodes = (
"355 589 LINE",
"460 300 LINE",
"237 300 LINE"
);
},
{
closed = 1;
nodes = (
"542 864 LINE",
"507 924 LINE",
"301 805 LINE",
"315 781 LINE"
);
}
);
width = 715;
}
);
leftKerningGroup = A;
rightKerningGroup = A;
unicode = 00C1;
},
{
glyphname = Abreve;
lastChange = "2023-05-29 09:32:29 +0000";
layers = (
{
layerId = "6D97EE47-94AA-478E-ABFB-936E6C32B491";
paths = (
{
closed = 1;
nodes = (
"221 0 LINE",
"221 30 LINE",
"202 30 OFFCURVE",
"163 33 OFFCURVE",
"133 46 CURVE",
"216 249 LINE",
"478 249 LINE",
"552 46 LINE",
"522 33 OFFCURVE",
"483 30 OFFCURVE",
"464 30 CURVE",
"464 0 LINE",
"721 0 LINE",
"721 30 LINE",
"705 30 OFFCURVE",
"671 33 OFFCURVE",
"645 46 CURVE",
"394 737 LINE",
"312 707 LINE",
"327 665 LINE",
"75 45 LINE",
"50 33 OFFCURVE",
"19 30 OFFCURVE",
"4 30 CURVE",
"4 0 LINE"
);
},
{
closed = 1;
nodes = (
"355 589 LINE",
"460 300 LINE",
"237 300 LINE"
);
},
{
closed = 1;
nodes = (
"418 811 OFFCURVE",
"478 837 OFFCURVE",
"511 923 CURVE",
"488 935 LINE",
"454 883 OFFCURVE",
"404 877 OFFCURVE",
"361 877 CURVE SMOOTH",
"316 877 OFFCURVE",
"269 883 OFFCURVE",
"234 935 CURVE",
"211 923 LINE",
"243 837 OFFCURVE",
"305 809 OFFCURVE",
"361 810 CURVE SMOOTH"
);
}
);
width = 715;
}
);
leftKerningGroup = A;
rightKerningGroup = A;
unicode = 0102;
},
{
glyphname = Acircumflex;
lastChange = "2023-05-29 09:32:29 +0000";
layers = (
{
layerId = "6D97EE47-94AA-478E-ABFB-936E6C32B491";
paths = (
{
closed = 1;
nodes = (
"221 0 LINE",
"221 30 LINE",
"202 30 OFFCURVE",
"163 33 OFFCURVE",
"133 46 CURVE",
"216 249 LINE",
"478 249 LINE",
"552 46 LINE",
"522 33 OFFCURVE",
"483 30 OFFCURVE",
"464 30 CURVE",
"464 0 LINE",
"721 0 LINE",
"721 30 LINE",
"705 30 OFFCURVE",
"671 33 OFFCURVE",
"645 46 CURVE",
"394 737 LINE",
"312 707 LINE",
"327 665 LINE",
"75 45 LINE",
"50 33 OFFCURVE",
"19 30 OFFCURVE",
"4 30 CURVE",
"4 0 LINE"
);
},
{
closed = 1;
nodes = (
"355 589 LINE",
"460 300 LINE",
"237 300 LINE"
);
},
{
closed = 1;
nodes = (
"361 877 LINE",
"515 789 LINE",
"534 812 LINE",
"373 948 LINE",
"349 948 LINE",
"188 812 LINE",
"207 789 LINE"
);
}
);
width = 715;
}
);
leftKerningGroup = A;
rightKerningGroup = A;
unicode = 00C2;
},
{
glyphname = Adieresis;
lastChange = "2023-05-29 09:32:29 +0000";
layers = (
{
layerId = "6D97EE47-94AA-478E-ABFB-936E6C32B491";
paths = (
{
closed = 1;
nodes = (
"221 0 LINE",
"221 30 LINE",
"202 30 OFFCURVE",
"163 33 OFFCURVE",
"133 46 CURVE",
"216 249 LINE",
"478 249 LINE",
"552 46 LINE",
"522 33 OFFCURVE",
"483 30 OFFCURVE",
"464 30 CURVE",
"464 0 LINE",
"721 0 LINE",
"721 30 LINE",
"705 30 OFFCURVE",
"671 33 OFFCURVE",
"645 46 CURVE",
"394 737 LINE",
"312 707 LINE",
"327 665 LINE",
"75 45 LINE",
"50 33 OFFCURVE",
"19 30 OFFCURVE",
"4 30 CURVE",
"4 0 LINE"
);
},
{
closed = 1;
nodes = (
"355 589 LINE",
"460 300 LINE",
"237 300 LINE"
);
},
{
closed = 1;
nodes = (
"298 800 OFFCURVE",
"320 823 OFFCURVE",
"320 850 CURVE SMOOTH",
"320 877 OFFCURVE",
"298 898 OFFCURVE",
"270 898 CURVE SMOOTH",
"242 898 OFFCURVE",
"221 875 OFFCURVE",
"221 848 CURVE SMOOTH",
"221 821 OFFCURVE",
"242 800 OFFCURVE",
"270 800 CURVE SMOOTH"
);
},
{
closed = 1;
nodes = (
"479 800 OFFCURVE",
"501 823 OFFCURVE",
"501 850 CURVE SMOOTH",
"501 877 OFFCURVE",
"479 898 OFFCURVE",
"451 898 CURVE SMOOTH",
"423 898 OFFCURVE",
"402 875 OFFCURVE",
"402 848 CURVE SMOOTH",
"402 821 OFFCURVE",
"423 800 OFFCURVE",
"451 800 CURVE SMOOTH"
);
}
);
width = 715;
}
);
leftKerningGroup = A;
rightKerningGroup = A;
unicode = 00C4;
},
{
glyphname = Adotbelow;
lastChange = "2023-05-29 09:32:29 +0000";
layers = (
{
layerId = "6D97EE47-94AA-478E-ABFB-936E6C32B491";
paths = (
{
closed = 1;
nodes = (
"221 0 LINE",
"221 30 LINE",
"202 30 OFFCURVE",
"163 33 OFFCURVE",
"133 46 CURVE",
"216 249 LINE",
"478 249 LINE",
"552 46 LINE",
"522 33 OFFCURVE",
"483 30 OFFCURVE",
"464 30 CURVE",
"464 0 LINE",
"721 0 LINE",
"721 30 LINE",
"705 30 OFFCURVE",
"671 33 OFFCURVE",
"645 46 CURVE",
"394 737 LINE",
"312 707 LINE",
"327 665 LINE",
"75 45 LINE",
"50 33 OFFCURVE",
"19 30 OFFCURVE",
"4 30 CURVE",
"4 0 LINE"
);
},
{
closed = 1;
nodes = (
"375 -181 OFFCURVE",
"399 -155 OFFCURVE",
"399 -125 CURVE SMOOTH",
"399 -94 OFFCURVE",
"375 -70 OFFCURVE",
"343 -70 CURVE SMOOTH",
"311 -70 OFFCURVE",
"288 -97 OFFCURVE",
"288 -126 CURVE SMOOTH",
"288 -157 OFFCURVE",
"311 -181 OFFCURVE",
"343 -181 CURVE SMOOTH"
);
},
{
closed = 1;
nodes = (
"355 589 LINE",
"460 300 LINE",
"237 300 LINE"
);
}
);
width = 715;
}
);
leftKerningGroup = A;
rightKerningGroup = A;
unicode = 1EA0;
},
{
glyphname = Agrave;
lastChange = "2023-05-29 09:32:29 +0000";
layers = (
{
layerId = "6D97EE47-94AA-478E-ABFB-936E6C32B491";
paths = (
{
closed = 1;
nodes = (
"221 0 LINE",
"221 30 LINE",
"202 30 OFFCURVE",
"163 33 OFFCURVE",
"133 46 CURVE",
"216 249 LINE",
"478 249 LINE",
"552 46 LINE",
"522 33 OFFCURVE",
"483 30 OFFCURVE",
"464 30 CURVE",
"464 0 LINE",
"721 0 LINE",
"721 30 LINE",
"705 30 OFFCURVE",
"671 33 OFFCURVE",
"645 46 CURVE",
"394 737 LINE",
"312 707 LINE",
"327 665 LINE",
"75 45 LINE",
"50 33 OFFCURVE",
"19 30 OFFCURVE",
"4 30 CURVE",
"4 0 LINE"
);
},
{
closed = 1;
nodes = (
"355 589 LINE",
"460 300 LINE",
"237 300 LINE"
);
},
{
closed = 1;
nodes = (
"441 813 LINE",
"235 932 LINE",
"200 872 LINE",
"427 789 LINE"
);
}
);
width = 715;
}
);
leftKerningGroup = A;
rightKerningGroup = A;
unicode = 00C0;
},
{
glyphname = Amacron;
lastChange = "2023-05-29 09:32:29 +0000";
layers = (
{
layerId = "6D97EE47-94AA-478E-ABFB-936E6C32B491";
paths = (
{
closed = 1;
nodes = (
"221 0 LINE",
"221 30 LINE",
"202 30 OFFCURVE",
"163 33 OFFCURVE",
"133 46 CURVE",
"216 249 LINE",
"478 249 LINE",
"552 46 LINE",
"522 33 OFFCURVE",
"483 30 OFFCURVE",
"464 30 CURVE",
"464 0 LINE",
"721 0 LINE",
"721 30 LINE",
"705 30 OFFCURVE",
"671 33 OFFCURVE",
"645 46 CURVE",
"394 737 LINE",
"312 707 LINE",
"327 665 LINE",
"75 45 LINE",
"50 33 OFFCURVE",
"19 30 OFFCURVE",
"4 30 CURVE",
"4 0 LINE"
);
},
{
closed = 1;
nodes = (
"355 589 LINE",
"460 300 LINE",
"237 300 LINE"
);
},
{
closed = 1;
nodes = (
"531 806 LINE",
"531 854 LINE",
"191 854 LINE",
"191 806 LINE"
);
}
);
width = 715;
}
);
leftKerningGroup = A;
rightKerningGroup = A;
unicode = 0100;
},
{
glyphname = Aogonek;
lastChange = "2023-05-29 09:32:29 +0000";
layers = (
{
layerId = "6D97EE47-94AA-478E-ABFB-936E6C32B491";
paths = (
{
closed = 1;
nodes = (
"617 -240 OFFCURVE",
"658 -218 OFFCURVE",
"681 -190 CURVE",
"670 -174 LINE",
"659 -183 OFFCURVE",
"640 -192 OFFCURVE",
"621 -192 CURVE SMOOTH",
"586 -192 OFFCURVE",
"566 -168 OFFCURVE",
"566 -135 CURVE SMOOTH",
"566 -96 OFFCURVE",
"598 -48 OFFCURVE",
"649 0 CURVE",
"721 0 LINE",
"721 30 LINE",
"705 30 OFFCURVE",
"671 33 OFFCURVE",
"645 46 CURVE",
"394 737 LINE",
"312 707 LINE",
"327 665 LINE",
"75 45 LINE",
"50 33 OFFCURVE",
"19 30 OFFCURVE",
"4 30 CURVE",
"4 0 LINE",
"221 0 LINE",
"221 30 LINE",
"202 30 OFFCURVE",
"163 33 OFFCURVE",
"133 46 CURVE",
"216 249 LINE",
"478 249 LINE",
"552 46 LINE",
"522 33 OFFCURVE",
"483 30 OFFCURVE",
"464 30 CURVE",
"464 0 LINE",
"610 0 LINE",
"533 -57 OFFCURVE",
"497 -106 OFFCURVE",
"497 -162 CURVE SMOOTH",
"497 -217 OFFCURVE",
"536 -240 OFFCURVE",
"585 -240 CURVE SMOOTH"
);
},
{
closed = 1;
nodes = (
"355 589 LINE",
"460 300 LINE",
"237 300 LINE"
);
}
);
width = 715;
}
);
leftKerningGroup = A;
rightKerningGroup = A;
unicode = 0104;
},
{
glyphname = Aring;
lastChange = "2023-05-29 09:32:29 +0000";
layers = (
{
layerId = "6D97EE47-94AA-478E-ABFB-936E6C32B491";
paths = (
{
closed = 1;
nodes = (
"221 0 LINE",
"221 30 LINE",
"202 30 OFFCURVE",
"163 33 OFFCURVE",
"133 46 CURVE",
"216 249 LINE",
"478 249 LINE",
"552 46 LINE",
"522 33 OFFCURVE",
"483 30 OFFCURVE",
"464 30 CURVE",
"464 0 LINE",
"721 0 LINE",
"721 30 LINE",
"705 30 OFFCURVE",
"671 33 OFFCURVE",
"645 46 CURVE",
"394 737 LINE",
"312 707 LINE",
"327 665 LINE",
"75 45 LINE",
"50 33 OFFCURVE",
"19 30 OFFCURVE",
"4 30 CURVE",
"4 0 LINE"
);
},
{
closed = 1;
nodes = (
"355 589 LINE",
"460 300 LINE",
"237 300 LINE"
);
},
{
closed = 1;
nodes = (
"411 800 OFFCURVE",
"453 844 OFFCURVE",
"453 895 CURVE SMOOTH",
"453 945 OFFCURVE",
"412 989 OFFCURVE",
"360 989 CURVE SMOOTH",
"309 989 OFFCURVE",
"268 945 OFFCURVE",
"268 893 CURVE SMOOTH",
"268 838 OFFCURVE",
"312 800 OFFCURVE",
"361 800 CURVE SMOOTH"
);
},
{
closed = 1;
nodes = (
"334 830 OFFCURVE",
"312 869 OFFCURVE",
"312 903 CURVE SMOOTH",
"312 933 OFFCURVE",
"332 956 OFFCURVE",
"355 956 CURVE SMOOTH",
"386 956 OFFCURVE",
"409 919 OFFCURVE",
"409 887 CURVE SMOOTH",
"409 851 OFFCURVE",
"391 835 OFFCURVE",
"366 833 CURVE SMOOTH"
);
}
);
width = 715;
}
);
leftKerningGroup = A;
rightKerningGroup = A;
unicode = 00C5;
},
{
glyphname = Aringacute;
lastChange = "2023-05-29 09:32:29 +0000";
layers = (
{
layerId = "6D97EE47-94AA-478E-ABFB-936E6C32B491";
paths = (
{
closed = 1;
nodes = (
"221 0 LINE",
"221 30 LINE",
"202 30 OFFCURVE",
"163 33 OFFCURVE",
"133 46 CURVE",
"216 249 LINE",
"478 249 LINE",
"552 46 LINE",
"522 33 OFFCURVE",
"483 30 OFFCURVE",
"464 30 CURVE",
"464 0 LINE",
"721 0 LINE",
"721 30 LINE",
"705 30 OFFCURVE",
"671 33 OFFCURVE",
"645 46 CURVE",
"394 737 LINE",
"312 707 LINE",
"327 665 LINE",
"75 45 LINE",
"50 33 OFFCURVE",
"19 30 OFFCURVE",
"4 30 CURVE",
"4 0 LINE"
);
},
{
closed = 1;
nodes = (
"355 589 LINE",
"460 300 LINE",
"237 300 LINE"
);
},
{
closed = 1;
nodes = (
"409 762 OFFCURVE",
"451 806 OFFCURVE",
"451 857 CURVE SMOOTH",
"451 907 OFFCURVE",
"410 951 OFFCURVE",
"358 951 CURVE SMOOTH",
"307 951 OFFCURVE",
"266 907 OFFCURVE",
"266 855 CURVE SMOOTH",
"266 800 OFFCURVE",
"310 762 OFFCURVE",
"359 762 CURVE SMOOTH"
);
},
{
closed = 1;
nodes = (
"332 792 OFFCURVE",
"310 831 OFFCURVE",
"310 865 CURVE SMOOTH",
"310 895 OFFCURVE",
"330 918 OFFCURVE",
"353 918 CURVE SMOOTH",
"384 918 OFFCURVE",
"407 881 OFFCURVE",
"407 849 CURVE SMOOTH",
"407 813 OFFCURVE",
"389 797 OFFCURVE",
"364 795 CURVE SMOOTH"
);
},
{
closed = 1;
nodes = (
"510 1059 LINE",
"478 1113 LINE",
"293 1006 LINE",
"306 984 LINE"
);
}
);
width = 715;
}
);
leftKerningGroup = A;
rightKerningGroup = A;
unicode = 01FA;
},
{
glyphname = Atilde;
lastChange = "2023-05-29 09:32:29 +0000";
layers = (
{
layerId = "6D97EE47-94AA-478E-ABFB-936E6C32B491";
paths = (
{
closed = 1;
nodes = (
"221 0 LINE",
"221 30 LINE",
"202 30 OFFCURVE",
"163 33 OFFCURVE",
"133 46 CURVE",
"216 249 LINE",
"478 249 LINE",
"552 46 LINE",
"522 33 OFFCURVE",
"483 30 OFFCURVE",
"464 30 CURVE",
"464 0 LINE",
"721 0 LINE",
"721 30 LINE",
"705 30 OFFCURVE",
"671 33 OFFCURVE",
"645 46 CURVE",
"394 737 LINE",
"312 707 LINE",
"327 665 LINE",
"75 45 LINE",
"50 33 OFFCURVE",
"19 30 OFFCURVE",
"4 30 CURVE",
"4 0 LINE"
);
},
{
closed = 1;
nodes = (
"355 589 LINE",
"460 300 LINE",
"237 300 LINE"
);
},
{
closed = 1;
nodes = (
"244 822 OFFCURVE",
"258 847 OFFCURVE",
"297 850 CURVE SMOOTH",
"346 852 OFFCURVE",
"371 796 OFFCURVE",
"439 800 CURVE SMOOTH",
"490 803 OFFCURVE",
"529 867 OFFCURVE",
"546 903 CURVE",
"525 914 LINE",
"507 885 OFFCURVE",
"493 861 OFFCURVE",
"454 859 CURVE SMOOTH",
"406 857 OFFCURVE",
"381 912 OFFCURVE",
"312 908 CURVE SMOOTH",
"261 906 OFFCURVE",
"222 842 OFFCURVE",
"205 805 CURVE",
"226 794 LINE"
);
}
);
width = 715;
}
);
leftKerningGroup = A;
rightKerningGroup = A;
unicode = 00C3;
},
{
glyphname = AE;
lastChange = "2023-05-29 09:32:29 +0000";
layers = (
{
layerId = "6D97EE47-94AA-478E-ABFB-936E6C32B491";
paths = (
{
closed = 1;
nodes = (
"224 0 LINE",
"224 30 LINE",
"205 30 OFFCURVE",
"166 33 OFFCURVE",
"136 46 CURVE",
"245 249 LINE",
"460 249 LINE",
"460 46 LINE",
"430 33 OFFCURVE",
"391 30 OFFCURVE",
"372 30 CURVE",
"372 0 LINE",
"861 0 LINE",
"894 151 LINE",
"863 159 LINE",
"859 146 OFFCURVE",
"835 85 OFFCURVE",
"809 51 CURVE",
"547 51 LINE",
"547 342 LINE",
"753 342 LINE",
"763 314 OFFCURVE",
"765 280 OFFCURVE",
"765 263 CURVE",
"797 263 LINE",
"797 463 LINE",
"765 463 LINE",
"765 447 OFFCURVE",
"763 419 OFFCURVE",
"755 393 CURVE",
"547 393 LINE",
"547 656 LINE",
"789 656 LINE",
"803 626 OFFCURVE",
"807 591 OFFCURVE",
"809 569 CURVE",
"842 571 LINE",
"837 707 LINE",
"332 707 LINE",
"332 677 LINE",
"348 677 OFFCURVE",
"378 675 OFFCURVE",
"405 666 CURVE",
"210 300 LINE",
"75 45 LINE",
"50 33 OFFCURVE",
"19 30 OFFCURVE",
"4 30 CURVE",
"4 0 LINE"
);
},
{
closed = 1;
nodes = (
"460 654 LINE",
"460 300 LINE",
"272 300 LINE"
);
}
);
width = 919;
}
);
leftKerningGroup = AE;
leftMetricsKey = A;
rightKerningGroup = E;
rightMetricsKey = E;
unicode = 00C6;
},
{
glyphname = AEacute;
lastChange = "2023-05-29 09:32:29 +0000";
layers = (
{
layerId = "6D97EE47-94AA-478E-ABFB-936E6C32B491";
paths = (
{
closed = 1;
nodes = (
"224 0 LINE",
"224 30 LINE",
"205 30 OFFCURVE",
"166 33 OFFCURVE",
"136 46 CURVE",
"245 249 LINE",
"460 249 LINE",
"460 46 LINE",
"430 33 OFFCURVE",
"391 30 OFFCURVE",
"372 30 CURVE",
"372 0 LINE",
"861 0 LINE",
"894 151 LINE",
"863 159 LINE",
"859 146 OFFCURVE",
"835 85 OFFCURVE",
"809 51 CURVE",
"547 51 LINE",
"547 342 LINE",
"753 342 LINE",
"763 314 OFFCURVE",
"765 280 OFFCURVE",
"765 263 CURVE",
"797 263 LINE",
"797 463 LINE",
"765 463 LINE",
"765 447 OFFCURVE",
"763 419 OFFCURVE",
"755 393 CURVE",
"547 393 LINE",
"547 656 LINE",
"789 656 LINE",
"803 626 OFFCURVE",
"807 591 OFFCURVE",
"809 569 CURVE",
"842 571 LINE",
"837 707 LINE",
"332 707 LINE",
"332 677 LINE",
"348 677 OFFCURVE",
"378 675 OFFCURVE",
"405 666 CURVE",
"210 300 LINE",
"75 45 LINE",
"50 33 OFFCURVE",
"19 30 OFFCURVE",
"4 30 CURVE",
"4 0 LINE"
);
},
{
closed = 1;
nodes = (
"460 654 LINE",
"460 300 LINE",
"272 300 LINE"
);
},
{
closed = 1;
nodes = (
"766 872 LINE",
"731 932 LINE",
"525 813 LINE",
"539 789 LINE"
);
}
);
width = 919;
}
);
leftKerningGroup = AE;
rightKerningGroup = E;
unicode = 01FC;
},
{
glyphname = B;
lastChange = "2023-05-29 09:32:29 +0000";
layers = (
{
layerId = "6D97EE47-94AA-478E-ABFB-936E6C32B491";
paths = (
{
closed = 1;
nodes = (
"360 0 LINE SMOOTH",
"523 0 OFFCURVE",
"600 105 OFFCURVE",
"600 198 CURVE SMOOTH",
"600 292 OFFCURVE",
"523 370 OFFCURVE",
"436 398 CURVE",
"491 424 OFFCURVE",
"533 490 OFFCURVE",
"533 558 CURVE SMOOTH",
"533 658 OFFCURVE",
"453 721 OFFCURVE",
"336 721 CURVE SMOOTH",
"267 721 OFFCURVE",
"207 716 OFFCURVE",
"50 704 CURVE",
"53 674 LINE",
"71 676 OFFCURVE",
"106 676 OFFCURVE",
"138 669 CURVE",
"138 46 LINE",
"108 33 OFFCURVE",
"69 30 OFFCURVE",
"50 30 CURVE",
"50 0 LINE"
);
},
{
closed = 1;
nodes = (
"289 43 OFFCURVE",
"242 54 OFFCURVE",
"225 69 CURVE",
"225 349 LINE",
"275 349 OFFCURVE",
"338 354 OFFCURVE",
"392 334 CURVE SMOOTH",
"463 310 OFFCURVE",
"509 249 OFFCURVE",
"509 175 CURVE SMOOTH",
"509 89 OFFCURVE",
"438 43 OFFCURVE",
"338 43 CURVE SMOOTH"
);
},
{
closed = 1;
nodes = (
"225 673 LINE",
"359 692 OFFCURVE",
"449 650 OFFCURVE",
"449 531 CURVE SMOOTH",
"449 483 OFFCURVE",
"428 439 OFFCURVE",
"396 419 CURVE SMOOTH",
"349 388 OFFCURVE",
"249 394 OFFCURVE",
"225 395 CURVE"
);
}
);
width = 625;
}
);
leftKerningGroup = H;
leftMetricsKey = H;
rightKerningGroup = B;
rightMetricsKey = "=H/2";
unicode = 0042;
},
{
glyphname = C;
lastChange = "2023-05-29 09:32:29 +0000";
layers = (
{
layerId = "6D97EE47-94AA-478E-ABFB-936E6C32B491";
paths = (
{
closed = 1;
nodes = (
"505 -14 OFFCURVE",
"568 -5 OFFCURVE",
"637 13 CURVE",
"715 161 LINE",
"685 176 LINE",
"626 83 OFFCURVE",
"563 33 OFFCURVE",
"452 33 CURVE SMOOTH",
"284 33 OFFCURVE",
"145 197 OFFCURVE",
"145 380 CURVE SMOOTH",
"145 549 OFFCURVE",
"254 673 OFFCURVE",
"425 673 CURVE SMOOTH",
"520 673 OFFCURVE",
"606 635 OFFCURVE",
"642 540 CURVE",
"672 546 LINE",
"652 688 LINE",
"605 701 OFFCURVE",
"523 722 OFFCURVE",
"431 722 CURVE SMOOTH",
"221 722 OFFCURVE",
"50 560 OFFCURVE",
"50 350 CURVE SMOOTH",
"50 135 OFFCURVE",
"217 -14 OFFCURVE",
"448 -14 CURVE SMOOTH"
);
}
);
width = 740;
}
);
leftKerningGroup = O;
leftMetricsKey = O;
rightKerningGroup = C;
rightMetricsKey = "=H/2";
unicode = 0043;
},
{
glyphname = Cacute;
lastChange = "2023-05-29 09:32:29 +0000";
layers = (
{
layerId = "6D97EE47-94AA-478E-ABFB-936E6C32B491";
paths = (
{
closed = 1;
nodes = (
"505 -14 OFFCURVE",
"568 -5 OFFCURVE",
"637 13 CURVE",
"715 161 LINE",
"685 176 LINE",
"626 83 OFFCURVE",
"563 33 OFFCURVE",
"452 33 CURVE SMOOTH",
"284 33 OFFCURVE",
"145 197 OFFCURVE",
"145 380 CURVE SMOOTH",
"145 549 OFFCURVE",
"254 673 OFFCURVE",
"425 673 CURVE SMOOTH",
"520 673 OFFCURVE",
"606 635 OFFCURVE",
"642 540 CURVE",
"672 546 LINE",
"652 688 LINE",
"605 701 OFFCURVE",
"523 722 OFFCURVE",
"431 722 CURVE SMOOTH",
"221 722 OFFCURVE",
"50 560 OFFCURVE",
"50 350 CURVE SMOOTH",
"50 135 OFFCURVE",
"217 -14 OFFCURVE",
"448 -14 CURVE SMOOTH"
);
},
{
closed = 1;
nodes = (
"584 864 LINE",
"549 924 LINE",
"343 805 LINE",
"357 781 LINE"
);
}
);
width = 740;
}
);
leftKerningGroup = O;
rightKerningGroup = C;
unicode = 0106;
},
{
glyphname = Ccaron;
lastChange = "2023-05-29 09:32:29 +0000";
layers = (
{
layerId = "6D97EE47-94AA-478E-ABFB-936E6C32B491";
paths = (
{
closed = 1;
nodes = (
"505 -14 OFFCURVE",
"568 -5 OFFCURVE",
"637 13 CURVE",
"715 161 LINE",
"685 176 LINE",
"626 83 OFFCURVE",
"563 33 OFFCURVE",
"452 33 CURVE SMOOTH",
"284 33 OFFCURVE",
"145 197 OFFCURVE",
"145 380 CURVE SMOOTH",
"145 549 OFFCURVE",
"254 673 OFFCURVE",
"425 673 CURVE SMOOTH",
"520 673 OFFCURVE",
"606 635 OFFCURVE",
"642 540 CURVE",
"672 546 LINE",
"652 688 LINE",
"605 701 OFFCURVE",
"523 722 OFFCURVE",
"431 722 CURVE SMOOTH",
"221 722 OFFCURVE",
"50 560 OFFCURVE",
"50 350 CURVE SMOOTH",
"50 135 OFFCURVE",
"217 -14 OFFCURVE",
"448 -14 CURVE SMOOTH"
);
},
{
closed = 1;
nodes = (
"418 796 LINE",
"579 932 LINE",
"560 955 LINE",
"406 867 LINE",
"252 955 LINE",
"233 932 LINE",
"394 796 LINE"
);
}
);
width = 740;
}
);
leftKerningGroup = O;
rightKerningGroup = C;
unicode = 010C;
},
{
glyphname = Ccedilla;
lastChange = "2023-05-29 09:32:29 +0000";
layers = (
{
layerId = "6D97EE47-94AA-478E-ABFB-936E6C32B491";
paths = (
{
closed = 1;
nodes = (
"453 -240 OFFCURVE",
"492 -206 OFFCURVE",
"492 -151 CURVE SMOOTH",
"492 -97 OFFCURVE",
"450 -66 OFFCURVE",
"413 -46 CURVE",
"430 -14 LINE",
"448 -14 LINE SMOOTH",
"505 -14 OFFCURVE",
"568 -5 OFFCURVE",
"637 13 CURVE",
"715 161 LINE",
"685 176 LINE",
"626 83 OFFCURVE",
"563 33 OFFCURVE",
"452 33 CURVE SMOOTH",
"284 33 OFFCURVE",
"145 197 OFFCURVE",
"145 380 CURVE SMOOTH",
"145 549 OFFCURVE",
"254 673 OFFCURVE",
"425 673 CURVE SMOOTH",
"520 673 OFFCURVE",
"606 635 OFFCURVE",
"642 540 CURVE",
"672 546 LINE",
"652 688 LINE",
"605 701 OFFCURVE",
"523 722 OFFCURVE",
"431 722 CURVE SMOOTH",
"221 722 OFFCURVE",
"50 560 OFFCURVE",
"50 350 CURVE SMOOTH",
"50 154 OFFCURVE",
"188 13 OFFCURVE",
"388 -10 CURVE",
"351 -83 LINE",
"376 -88 OFFCURVE",
"430 -117 OFFCURVE",
"430 -162 CURVE SMOOTH",
"430 -187 OFFCURVE",
"413 -210 OFFCURVE",
"385 -210 CURVE SMOOTH",
"365 -210 OFFCURVE",
"341 -198 OFFCURVE",
"325 -181 CURVE",
"309 -197 LINE",
"327 -222 OFFCURVE",
"360 -240 OFFCURVE",
"397 -240 CURVE SMOOTH"
);
}
);
width = 740;
}
);
leftKerningGroup = O;
rightKerningGroup = C;
unicode = 00C7;
},
{
glyphname = Ccircumflex;
lastChange = "2023-05-29 09:32:29 +0000";
layers = (
{
layerId = "6D97EE47-94AA-478E-ABFB-936E6C32B491";
paths = (
{
closed = 1;
nodes = (
"505 -14 OFFCURVE",
"568 -5 OFFCURVE",
"637 13 CURVE",
"715 161 LINE",
"685 176 LINE",
"626 83 OFFCURVE",
"563 33 OFFCURVE",
"452 33 CURVE SMOOTH",
"284 33 OFFCURVE",
"145 197 OFFCURVE",
"145 380 CURVE SMOOTH",
"145 549 OFFCURVE",
"254 673 OFFCURVE",
"425 673 CURVE SMOOTH",
"520 673 OFFCURVE",
"606 635 OFFCURVE",
"642 540 CURVE",
"672 546 LINE",
"652 688 LINE",
"605 701 OFFCURVE",
"523 722 OFFCURVE",
"431 722 CURVE SMOOTH",
"221 722 OFFCURVE",
"50 560 OFFCURVE",
"50 350 CURVE SMOOTH",
"50 135 OFFCURVE",
"217 -14 OFFCURVE",
"448 -14 CURVE SMOOTH"
);
},
{
closed = 1;
nodes = (
"403 877 LINE",
"557 789 LINE",
"576 812 LINE",
"415 948 LINE",
"391 948 LINE",
"230 812 LINE",
"249 789 LINE"
);
}
);
width = 740;
}
);
leftKerningGroup = O;
rightKerningGroup = C;
unicode = 0108;
},
{
glyphname = Cdot;
lastChange = "2023-05-29 09:32:29 +0000";
layers = (
{
layerId = "6D97EE47-94AA-478E-ABFB-936E6C32B491";
paths = (
{
closed = 1;
nodes = (
"505 -14 OFFCURVE",
"568 -5 OFFCURVE",
"637 13 CURVE",
"715 161 LINE",
"685 176 LINE",
"626 83 OFFCURVE",
"563 33 OFFCURVE",
"452 33 CURVE SMOOTH",
"284 33 OFFCURVE",
"145 197 OFFCURVE",
"145 380 CURVE SMOOTH",
"145 549 OFFCURVE",
"254 673 OFFCURVE",
"425 673 CURVE SMOOTH",
"520 673 OFFCURVE",
"606 635 OFFCURVE",
"642 540 CURVE",
"672 546 LINE",
"652 688 LINE",
"605 701 OFFCURVE",
"523 722 OFFCURVE",
"431 722 CURVE SMOOTH",
"221 722 OFFCURVE",
"50 560 OFFCURVE",
"50 350 CURVE SMOOTH",
"50 135 OFFCURVE",
"217 -14 OFFCURVE",
"448 -14 CURVE SMOOTH"
);
},
{
closed = 1;
nodes = (
"435 800 OFFCURVE",
"459 826 OFFCURVE",
"459 856 CURVE SMOOTH",
"459 887 OFFCURVE",
"435 911 OFFCURVE",
"403 911 CURVE SMOOTH",
"371 911 OFFCURVE",
"348 884 OFFCURVE",
"348 855 CURVE SMOOTH",
"348 824 OFFCURVE",
"371 800 OFFCURVE",
"403 800 CURVE SMOOTH"
);
}
);
width = 740;
}
);
leftKerningGroup = O;
rightKerningGroup = C;
unicode = 010A;
},
{
glyphname = D;
lastChange = "2023-05-29 09:32:29 +0000";
layers = (
{
layerId = "6D97EE47-94AA-478E-ABFB-936E6C32B491";
paths = (
{
closed = 1;
nodes = (
"211 0 LINE",
"225 0 LINE",
"310 0 LINE SMOOTH",
"373 0 OFFCURVE",
"451 7 OFFCURVE",
"495 19 CURVE SMOOTH",
"658 62 OFFCURVE",
"782 203 OFFCURVE",
"782 364 CURVE SMOOTH",
"782 597 OFFCURVE",
"590 721 OFFCURVE",
"332 721 CURVE SMOOTH",
"237 721 OFFCURVE",
"141 707 OFFCURVE",
"50 699 CURVE",
"53 669 LINE",
"71 671 OFFCURVE",
"106 671 OFFCURVE",
"138 664 CURVE",
"138 46 LINE",
"108 33 OFFCURVE",
"69 30 OFFCURVE",
"50 30 CURVE",
"50 0 LINE"
);
},
{
closed = 1;
nodes = (
"302 47 OFFCURVE",
"259 56 OFFCURVE",
"225 69 CURVE",
"225 668 LINE",
"480 705 OFFCURVE",
"684 575 OFFCURVE",
"684 337 CURVE SMOOTH",
"684 157 OFFCURVE",
"548 47 OFFCURVE",
"353 47 CURVE SMOOTH"
);
}
);
width = 832;
}
);
leftKerningGroup = H;
leftMetricsKey = H;
rightKerningGroup = O;
rightMetricsKey = O;
unicode = 0044;
},
{
glyphname = Eth;
lastChange = "2023-05-29 09:32:29 +0000";
layers = (
{
layerId = "6D97EE47-94AA-478E-ABFB-936E6C32B491";
paths = (
{
closed = 1;
nodes = (
"314 0 LINE SMOOTH",
"377 0 OFFCURVE",
"455 7 OFFCURVE",
"499 19 CURVE SMOOTH",
"662 62 OFFCURVE",
"786 203 OFFCURVE",
"786 364 CURVE SMOOTH",
"786 597 OFFCURVE",
"594 721 OFFCURVE",
"336 721 CURVE SMOOTH",
"241 721 OFFCURVE",
"145 707 OFFCURVE",
"54 699 CURVE",
"57 669 LINE",
"75 671 OFFCURVE",
"110 671 OFFCURVE",
"142 664 CURVE",
"142 386 LINE",
"50 386 LINE",
"50 344 LINE",
"142 344 LINE",
"142 46 LINE",
"112 33 OFFCURVE",
"73 30 OFFCURVE",
"54 30 CURVE",
"54 0 LINE"
);
},
{
closed = 1;
nodes = (
"306 47 OFFCURVE",
"263 56 OFFCURVE",
"229 69 CURVE",
"229 344 LINE",
"419 344 LINE",
"419 386 LINE",
"229 386 LINE",
"229 668 LINE",
"484 705 OFFCURVE",
"688 575 OFFCURVE",
"688 337 CURVE SMOOTH",
"688 157 OFFCURVE",
"552 47 OFFCURVE",
"357 47 CURVE SMOOTH"
);
}
);
width = 836;
}
);
leftKerningGroup = H;
leftMetricsKey = D;
rightKerningGroup = O;
rightMetricsKey = D;
unicode = 00D0;
},
{
glyphname = Dcaron;
lastChange = "2023-05-29 09:32:29 +0000";
layers = (
{
layerId = "6D97EE47-94AA-478E-ABFB-936E6C32B491";
paths = (
{
closed = 1;
nodes = (
"310 0 LINE SMOOTH",
"373 0 OFFCURVE",
"451 7 OFFCURVE",
"495 19 CURVE SMOOTH",
"658 62 OFFCURVE",
"782 203 OFFCURVE",
"782 364 CURVE SMOOTH",
"782 597 OFFCURVE",
"590 721 OFFCURVE",
"332 721 CURVE SMOOTH",
"237 721 OFFCURVE",
"141 707 OFFCURVE",
"50 699 CURVE",
"53 669 LINE",
"71 671 OFFCURVE",
"106 671 OFFCURVE",
"138 664 CURVE",
"138 46 LINE",
"108 33 OFFCURVE",
"69 30 OFFCURVE",
"50 30 CURVE",
"50 0 LINE"
);
},
{
closed = 1;
nodes = (
"302 47 OFFCURVE",
"259 56 OFFCURVE",
"225 69 CURVE",
"225 668 LINE",
"480 705 OFFCURVE",
"684 575 OFFCURVE",
"684 337 CURVE SMOOTH",
"684 157 OFFCURVE",
"548 47 OFFCURVE",
"353 47 CURVE SMOOTH"
);
},
{
closed = 1;
nodes = (
"395 796 LINE",
"556 932 LINE",
"537 955 LINE",
"383 867 LINE",
"229 955 LINE",
"210 932 LINE",
"371 796 LINE"
);
}
);
width = 832;
}
);
leftKerningGroup = H;
rightKerningGroup = O;
unicode = 010E;
},
{
glyphname = Dcroat;
lastChange = "2023-05-29 09:32:29 +0000";
layers = (
{
layerId = "6D97EE47-94AA-478E-ABFB-936E6C32B491";
paths = (
{
closed = 1;
nodes = (
"314 0 LINE SMOOTH",
"377 0 OFFCURVE",
"455 7 OFFCURVE",
"499 19 CURVE SMOOTH",
"662 62 OFFCURVE",
"786 203 OFFCURVE",
"786 364 CURVE SMOOTH",
"786 597 OFFCURVE",
"594 721 OFFCURVE",
"336 721 CURVE SMOOTH",
"241 721 OFFCURVE",
"145 707 OFFCURVE",
"54 699 CURVE",
"57 669 LINE",
"75 671 OFFCURVE",
"110 671 OFFCURVE",
"142 664 CURVE",
"142 386 LINE",
"50 386 LINE",
"50 344 LINE",
"142 344 LINE",
"142 46 LINE",
"112 33 OFFCURVE",
"73 30 OFFCURVE",
"54 30 CURVE",
"54 0 LINE"
);
},
{
closed = 1;
nodes = (
"306 47 OFFCURVE",
"263 56 OFFCURVE",
"229 69 CURVE",
"229 344 LINE",
"419 344 LINE",
"419 386 LINE",
"229 386 LINE",
"229 668 LINE",
"484 705 OFFCURVE",
"688 575 OFFCURVE",
"688 337 CURVE SMOOTH",
"688 157 OFFCURVE",
"552 47 OFFCURVE",
"357 47 CURVE SMOOTH"
);
}
);
width = 836;
}
);
leftKerningGroup = H;
rightKerningGroup = O;
unicode = 0110;
},
{
glyphname = E;
lastChange = "2023-05-29 09:32:29 +0000";
layers = (
{
layerId = "6D97EE47-94AA-478E-ABFB-936E6C32B491";
paths = (
{
closed = 1;
nodes = (
"540 0 LINE",
"573 151 LINE",
"541 159 LINE",
"538 146 OFFCURVE",
"514 85 OFFCURVE",
"488 51 CURVE",
"225 51 LINE",
"225 342 LINE",
"431 342 LINE",
"441 314 OFFCURVE",
"443 280 OFFCURVE",
"443 263 CURVE",
"475 263 LINE",
"475 463 LINE",
"443 463 LINE",
"443 447 OFFCURVE",
"441 419 OFFCURVE",
"434 393 CURVE",
"225 393 LINE",
"225 656 LINE",
"468 656 LINE",
"481 626 OFFCURVE",
"486 591 OFFCURVE",
"488 569 CURVE",
"520 571 LINE",
"515 707 LINE",
"50 707 LINE",
"50 677 LINE",
"69 677 OFFCURVE",
"108 674 OFFCURVE",
"138 661 CURVE",
"138 46 LINE",
"108 33 OFFCURVE",
"69 30 OFFCURVE",
"50 30 CURVE",
"50 0 LINE"
);
}
);
width = 598;
}
);
leftKerningGroup = H;
leftMetricsKey = H;
rightKerningGroup = E;
rightMetricsKey = "=H/2";
unicode = 0045;
},
{
glyphname = Eacute;
lastChange = "2023-05-29 09:32:29 +0000";
layers = (
{
layerId = "6D97EE47-94AA-478E-ABFB-936E6C32B491";
paths = (
{
closed = 1;
nodes = (
"540 0 LINE",
"573 151 LINE",
"541 159 LINE",
"538 146 OFFCURVE",
"514 85 OFFCURVE",
"488 51 CURVE",
"225 51 LINE",
"225 342 LINE",
"431 342 LINE",
"441 314 OFFCURVE",
"443 280 OFFCURVE",
"443 263 CURVE",
"475 263 LINE",
"475 463 LINE",
"443 463 LINE",
"443 447 OFFCURVE",
"441 419 OFFCURVE",
"434 393 CURVE",
"225 393 LINE",
"225 656 LINE",
"468 656 LINE",
"481 626 OFFCURVE",
"486 591 OFFCURVE",
"488 569 CURVE",
"520 571 LINE",
"515 707 LINE",
"50 707 LINE",
"50 677 LINE",
"69 677 OFFCURVE",
"108 674 OFFCURVE",
"138 661 CURVE",
"138 46 LINE",
"108 33 OFFCURVE",
"69 30 OFFCURVE",
"50 30 CURVE",
"50 0 LINE"
);
},
{
closed = 1;
nodes = (
"495 864 LINE",
"460 924 LINE",
"254 805 LINE",
"268 781 LINE"
);
}
);
width = 598;
}
);
leftKerningGroup = H;
rightKerningGroup = E;
unicode = 00C9;
},
{
glyphname = Ebreve;
lastChange = "2023-05-29 09:32:29 +0000";
layers = (
{
layerId = "6D97EE47-94AA-478E-ABFB-936E6C32B491";
paths = (
{
closed = 1;
nodes = (
"540 0 LINE",
"573 151 LINE",
"541 159 LINE",
"538 146 OFFCURVE",
"514 85 OFFCURVE",
"488 51 CURVE",
"225 51 LINE",
"225 342 LINE",
"431 342 LINE",
"441 314 OFFCURVE",
"443 280 OFFCURVE",
"443 263 CURVE",
"475 263 LINE",
"475 463 LINE",
"443 463 LINE",
"443 447 OFFCURVE",
"441 419 OFFCURVE",
"434 393 CURVE",
"225 393 LINE",
"225 656 LINE",
"468 656 LINE",
"481 626 OFFCURVE",
"486 591 OFFCURVE",
"488 569 CURVE",
"520 571 LINE",
"515 707 LINE",
"50 707 LINE",
"50 677 LINE",
"69 677 OFFCURVE",
"108 674 OFFCURVE",
"138 661 CURVE",
"138 46 LINE",
"108 33 OFFCURVE",
"69 30 OFFCURVE",
"50 30 CURVE",
"50 0 LINE"
);
},
{
closed = 1;
nodes = (
"371 811 OFFCURVE",
"431 837 OFFCURVE",
"464 923 CURVE",
"441 935 LINE",
"407 883 OFFCURVE",
"357 877 OFFCURVE",
"314 877 CURVE SMOOTH",
"269 877 OFFCURVE",
"222 883 OFFCURVE",
"187 935 CURVE",
"164 923 LINE",
"196 837 OFFCURVE",
"258 809 OFFCURVE",
"314 810 CURVE SMOOTH"
);
}
);
width = 598;
}
);
leftKerningGroup = H;
rightKerningGroup = E;
unicode = 0114;
},
{
glyphname = Ecaron;
lastChange = "2023-05-29 09:32:29 +0000";
layers = (
{
layerId = "6D97EE47-94AA-478E-ABFB-936E6C32B491";
paths = (
{
closed = 1;
nodes = (
"540 0 LINE",
"573 151 LINE",
"541 159 LINE",
"538 146 OFFCURVE",
"514 85 OFFCURVE",
"488 51 CURVE",
"225 51 LINE",
"225 342 LINE",
"431 342 LINE",
"441 314 OFFCURVE",
"443 280 OFFCURVE",
"443 263 CURVE",
"475 263 LINE",
"475 463 LINE",
"443 463 LINE",
"443 447 OFFCURVE",
"441 419 OFFCURVE",
"434 393 CURVE",
"225 393 LINE",
"225 656 LINE",
"468 656 LINE",
"481 626 OFFCURVE",
"486 591 OFFCURVE",
"488 569 CURVE",
"520 571 LINE",
"515 707 LINE",
"50 707 LINE",
"50 677 LINE",
"69 677 OFFCURVE",
"108 674 OFFCURVE",
"138 661 CURVE",
"138 46 LINE",
"108 33 OFFCURVE",
"69 30 OFFCURVE",
"50 30 CURVE",
"50 0 LINE"
);
},
{
closed = 1;
nodes = (
"329 796 LINE",
"490 932 LINE",
"471 955 LINE",
"317 867 LINE",
"163 955 LINE",
"144 932 LINE",
"305 796 LINE"
);
}
);
width = 598;
}
);
leftKerningGroup = H;
rightKerningGroup = E;
unicode = 011A;
},
{
glyphname = Ecircumflex;
lastChange = "2023-05-29 09:32:29 +0000";
layers = (
{
layerId = "6D97EE47-94AA-478E-ABFB-936E6C32B491";
paths = (
{
closed = 1;
nodes = (
"540 0 LINE",
"573 151 LINE",
"541 159 LINE",
"538 146 OFFCURVE",
"514 85 OFFCURVE",
"488 51 CURVE",
"225 51 LINE",
"225 342 LINE",
"431 342 LINE",
"441 314 OFFCURVE",
"443 280 OFFCURVE",
"443 263 CURVE",
"475 263 LINE",
"475 463 LINE",
"443 463 LINE",
"443 447 OFFCURVE",
"441 419 OFFCURVE",
"434 393 CURVE",
"225 393 LINE",
"225 656 LINE",
"468 656 LINE",
"481 626 OFFCURVE",
"486 591 OFFCURVE",
"488 569 CURVE",
"520 571 LINE",
"515 707 LINE",
"50 707 LINE",
"50 677 LINE",
"69 677 OFFCURVE",
"108 674 OFFCURVE",
"138 661 CURVE",
"138 46 LINE",
"108 33 OFFCURVE",
"69 30 OFFCURVE",
"50 30 CURVE",
"50 0 LINE"
);
},
{
closed = 1;
nodes = (
"314 877 LINE",
"468 789 LINE",
"487 812 LINE",
"326 948 LINE",
"302 948 LINE",
"141 812 LINE",
"160 789 LINE"
);
}
);
width = 598;
}
);
leftKerningGroup = H;
rightKerningGroup = E;
unicode = 00CA;
},
{
glyphname = Edieresis;
lastChange = "2023-05-29 09:32:29 +0000";
layers = (
{
layerId = "6D97EE47-94AA-478E-ABFB-936E6C32B491";
paths = (
{
closed = 1;
nodes = (
"540 0 LINE",
"573 151 LINE",
"541 159 LINE",
"538 146 OFFCURVE",
"514 85 OFFCURVE",
"488 51 CURVE",
"225 51 LINE",
"225 342 LINE",
"431 342 LINE",
"441 314 OFFCURVE",
"443 280 OFFCURVE",
"443 263 CURVE",
"475 263 LINE",
"475 463 LINE",
"443 463 LINE",
"443 447 OFFCURVE",
"441 419 OFFCURVE",
"434 393 CURVE",
"225 393 LINE",
"225 656 LINE",
"468 656 LINE",
"481 626 OFFCURVE",
"486 591 OFFCURVE",
"488 569 CURVE",
"520 571 LINE",
"515 707 LINE",
"50 707 LINE",
"50 677 LINE",
"69 677 OFFCURVE",
"108 674 OFFCURVE",
"138 661 CURVE",
"138 46 LINE",
"108 33 OFFCURVE",
"69 30 OFFCURVE",
"50 30 CURVE",
"50 0 LINE"
);
},
{
closed = 1;
nodes = (
"251 800 OFFCURVE",
"273 823 OFFCURVE",
"273 850 CURVE SMOOTH",
"273 877 OFFCURVE",
"251 898 OFFCURVE",
"223 898 CURVE SMOOTH",
"195 898 OFFCURVE",
"174 875 OFFCURVE",
"174 848 CURVE SMOOTH",
"174 821 OFFCURVE",
"195 800 OFFCURVE",
"223 800 CURVE SMOOTH"
);
},
{
closed = 1;
nodes = (
"432 800 OFFCURVE",
"454 823 OFFCURVE",
"454 850 CURVE SMOOTH",
"454 877 OFFCURVE",
"432 898 OFFCURVE",
"404 898 CURVE SMOOTH",
"376 898 OFFCURVE",
"355 875 OFFCURVE",
"355 848 CURVE SMOOTH",
"355 821 OFFCURVE",
"376 800 OFFCURVE",
"404 800 CURVE SMOOTH"
);
}
);
width = 598;
}
);
leftKerningGroup = H;
rightKerningGroup = E;
unicode = 00CB;
},
{
glyphname = Edotaccent;
lastChange = "2023-05-29 09:32:29 +0000";
layers = (
{
layerId = "6D97EE47-94AA-478E-ABFB-936E6C32B491";
paths = (
{
closed = 1;
nodes = (
"540 0 LINE",
"573 151 LINE",
"541 159 LINE",
"538 146 OFFCURVE",
"514 85 OFFCURVE",
"488 51 CURVE",
"225 51 LINE",
"225 342 LINE",
"431 342 LINE",
"441 314 OFFCURVE",
"443 280 OFFCURVE",
"443 263 CURVE",
"475 263 LINE",
"475 463 LINE",
"443 463 LINE",
"443 447 OFFCURVE",
"441 419 OFFCURVE",
"434 393 CURVE",
"225 393 LINE",
"225 656 LINE",
"468 656 LINE",
"481 626 OFFCURVE",
"486 591 OFFCURVE",
"488 569 CURVE",
"520 571 LINE",
"515 707 LINE",
"50 707 LINE",
"50 677 LINE",
"69 677 OFFCURVE",
"108 674 OFFCURVE",
"138 661 CURVE",
"138 46 LINE",
"108 33 OFFCURVE",
"69 30 OFFCURVE",
"50 30 CURVE",
"50 0 LINE"
);
},
{
closed = 1;
nodes = (
"346 800 OFFCURVE",
"370 826 OFFCURVE",
"370 856 CURVE SMOOTH",
"370 887 OFFCURVE",
"346 911 OFFCURVE",
"314 911 CURVE SMOOTH",
"282 911 OFFCURVE",
"259 884 OFFCURVE",
"259 855 CURVE SMOOTH",
"259 824 OFFCURVE",
"282 800 OFFCURVE",
"314 800 CURVE SMOOTH"
);
}
);
width = 598;
}
);
leftKerningGroup = H;
rightKerningGroup = E;
unicode = 0116;
},
{
glyphname = Edotbelow;
lastChange = "2023-05-29 09:32:29 +0000";
layers = (
{
layerId = "6D97EE47-94AA-478E-ABFB-936E6C32B491";
paths = (
{
closed = 1;
nodes = (
"540 0 LINE",
"573 151 LINE",
"541 159 LINE",
"538 146 OFFCURVE",
"514 85 OFFCURVE",
"488 51 CURVE",
"225 51 LINE",
"225 342 LINE",
"431 342 LINE",
"441 314 OFFCURVE",
"443 280 OFFCURVE",
"443 263 CURVE",
"475 263 LINE",
"475 463 LINE",
"443 463 LINE",
"443 447 OFFCURVE",
"441 419 OFFCURVE",
"434 393 CURVE",
"225 393 LINE",
"225 656 LINE",
"468 656 LINE",
"481 626 OFFCURVE",
"486 591 OFFCURVE",
"488 569 CURVE",
"520 571 LINE",
"515 707 LINE",
"50 707 LINE",
"50 677 LINE",
"69 677 OFFCURVE",
"108 674 OFFCURVE",
"138 661 CURVE",
"138 46 LINE",
"108 33 OFFCURVE",
"69 30 OFFCURVE",
"50 30 CURVE",
"50 0 LINE"
);
},
{
closed = 1;
nodes = (
"355 -181 OFFCURVE",
"379 -155 OFFCURVE",
"379 -125 CURVE SMOOTH",
"379 -94 OFFCURVE",
"355 -70 OFFCURVE",
"323 -70 CURVE SMOOTH",
"291 -70 OFFCURVE",
"268 -97 OFFCURVE",
"268 -126 CURVE SMOOTH",
"268 -157 OFFCURVE",
"291 -181 OFFCURVE",
"323 -181 CURVE SMOOTH"
);
}
);
width = 598;
}
);
leftKerningGroup = H;
rightKerningGroup = E;
unicode = 1EB8;
},
{
glyphname = Egrave;
lastChange = "2023-05-29 09:32:29 +0000";
layers = (
{
layerId = "6D97EE47-94AA-478E-ABFB-936E6C32B491";
paths = (
{
closed = 1;
nodes = (
"540 0 LINE",
"573 151 LINE",
"541 159 LINE",
"538 146 OFFCURVE",
"514 85 OFFCURVE",
"488 51 CURVE",
"225 51 LINE",
"225 342 LINE",
"431 342 LINE",
"441 314 OFFCURVE",
"443 280 OFFCURVE",
"443 263 CURVE",
"475 263 LINE",
"475 463 LINE",
"443 463 LINE",
"443 447 OFFCURVE",
"441 419 OFFCURVE",
"434 393 CURVE",
"225 393 LINE",
"225 656 LINE",
"468 656 LINE",
"481 626 OFFCURVE",
"486 591 OFFCURVE",
"488 569 CURVE",
"520 571 LINE",
"515 707 LINE",
"50 707 LINE",
"50 677 LINE",
"69 677 OFFCURVE",
"108 674 OFFCURVE",
"138 661 CURVE",
"138 46 LINE",
"108 33 OFFCURVE",
"69 30 OFFCURVE",
"50 30 CURVE",
"50 0 LINE"
);
},
{
closed = 1;
nodes = (
"394 813 LINE",
"188 932 LINE",
"153 872 LINE",
"380 789 LINE"
);
}
);
width = 598;
}
);
leftKerningGroup = H;
rightKerningGroup = E;
unicode = 00C8;
},
{
glyphname = Emacron;
lastChange = "2023-05-29 09:32:29 +0000";
layers = (
{
layerId = "6D97EE47-94AA-478E-ABFB-936E6C32B491";
paths = (
{
closed = 1;
nodes = (
"540 0 LINE",
"573 151 LINE",
"541 159 LINE",
"538 146 OFFCURVE",
"514 85 OFFCURVE",
"488 51 CURVE",
"225 51 LINE",
"225 342 LINE",
"431 342 LINE",
"441 314 OFFCURVE",
"443 280 OFFCURVE",
"443 263 CURVE",
"475 263 LINE",
"475 463 LINE",
"443 463 LINE",
"443 447 OFFCURVE",
"441 419 OFFCURVE",
"434 393 CURVE",
"225 393 LINE",
"225 656 LINE",
"468 656 LINE",
"481 626 OFFCURVE",
"486 591 OFFCURVE",
"488 569 CURVE",
"520 571 LINE",
"515 707 LINE",
"50 707 LINE",
"50 677 LINE",
"69 677 OFFCURVE",
"108 674 OFFCURVE",
"138 661 CURVE",
"138 46 LINE",
"108 33 OFFCURVE",
"69 30 OFFCURVE",
"50 30 CURVE",
"50 0 LINE"
);
},
{
closed = 1;
nodes = (
"484 806 LINE",
"484 854 LINE",
"144 854 LINE",
"144 806 LINE"
);
}
);
width = 598;
}
);
leftKerningGroup = H;
rightKerningGroup = E;
unicode = 0112;
},
{
glyphname = Eogonek;
lastChange = "2023-05-29 09:32:29 +0000";
layers = (
{
layerId = "6D97EE47-94AA-478E-ABFB-936E6C32B491";
paths = (
{
closed = 1;
nodes = (
"442 -240 OFFCURVE",
"483 -218 OFFCURVE",
"506 -190 CURVE",
"495 -174 LINE",
"484 -183 OFFCURVE",
"465 -192 OFFCURVE",
"446 -192 CURVE SMOOTH",
"411 -192 OFFCURVE",
"391 -168 OFFCURVE",
"391 -135 CURVE SMOOTH",
"391 -96 OFFCURVE",
"423 -48 OFFCURVE",
"474 0 CURVE",
"540 0 LINE",
"573 151 LINE",
"541 159 LINE",
"538 146 OFFCURVE",
"514 85 OFFCURVE",
"488 51 CURVE",
"225 51 LINE",
"225 342 LINE",
"431 342 LINE",
"441 314 OFFCURVE",
"443 280 OFFCURVE",
"443 263 CURVE",
"475 263 LINE",
"475 463 LINE",
"443 463 LINE",
"443 447 OFFCURVE",
"441 419 OFFCURVE",
"434 393 CURVE",
"225 393 LINE",
"225 656 LINE",
"468 656 LINE",
"481 626 OFFCURVE",
"486 591 OFFCURVE",
"488 569 CURVE",
"520 571 LINE",
"515 707 LINE",
"50 707 LINE",
"50 677 LINE",
"69 677 OFFCURVE",
"108 674 OFFCURVE",
"138 661 CURVE",
"138 46 LINE",
"108 33 OFFCURVE",
"69 30 OFFCURVE",
"50 30 CURVE",
"50 0 LINE",
"435 0 LINE",
"358 -57 OFFCURVE",
"322 -106 OFFCURVE",
"322 -162 CURVE SMOOTH",
"322 -217 OFFCURVE",
"361 -240 OFFCURVE",
"410 -240 CURVE SMOOTH"
);
}
);
width = 598;
}
);
leftKerningGroup = H;
rightKerningGroup = E;
unicode = 0118;
},
{
glyphname = Etilde;
lastChange = "2023-05-29 09:32:29 +0000";
layers = (
{
layerId = "6D97EE47-94AA-478E-ABFB-936E6C32B491";
paths = (
{
closed = 1;
nodes = (
"540 0 LINE",
"573 151 LINE",
"541 159 LINE",
"538 146 OFFCURVE",
"514 85 OFFCURVE",
"488 51 CURVE",
"225 51 LINE",
"225 342 LINE",
"431 342 LINE",
"441 314 OFFCURVE",
"443 280 OFFCURVE",
"443 263 CURVE",
"475 263 LINE",
"475 463 LINE",
"443 463 LINE",
"443 447 OFFCURVE",
"441 419 OFFCURVE",
"434 393 CURVE",
"225 393 LINE",
"225 656 LINE",
"468 656 LINE",
"481 626 OFFCURVE",
"486 591 OFFCURVE",
"488 569 CURVE",
"520 571 LINE",
"515 707 LINE",
"50 707 LINE",
"50 677 LINE",
"69 677 OFFCURVE",
"108 674 OFFCURVE",
"138 661 CURVE",
"138 46 LINE",
"108 33 OFFCURVE",
"69 30 OFFCURVE",
"50 30 CURVE",
"50 0 LINE"
);
},
{
closed = 1;
nodes = (
"197 822 OFFCURVE",
"211 847 OFFCURVE",
"250 850 CURVE SMOOTH",
"299 852 OFFCURVE",
"324 796 OFFCURVE",
"392 800 CURVE SMOOTH",
"443 803 OFFCURVE",
"482 867 OFFCURVE",
"499 903 CURVE",
"478 914 LINE",
"460 885 OFFCURVE",
"446 861 OFFCURVE",
"407 859 CURVE SMOOTH",
"359 857 OFFCURVE",
"334 912 OFFCURVE",
"265 908 CURVE SMOOTH",
"214 906 OFFCURVE",
"175 842 OFFCURVE",
"158 805 CURVE",
"179 794 LINE"
);
}
);
width = 598;
}
);
leftKerningGroup = H;
rightKerningGroup = E;
unicode = 1EBC;
},
{
glyphname = F;
lastChange = "2023-05-29 09:32:29 +0000";
layers = (
{
layerId = "6D97EE47-94AA-478E-ABFB-936E6C32B491";
paths = (
{
closed = 1;
nodes = (
"322 0 LINE",
"322 30 LINE",
"301 30 OFFCURVE",
"258 33 OFFCURVE",
"225 46 CURVE",
"225 331 LINE",
"428 331 LINE",
"438 303 OFFCURVE",
"440 269 OFFCURVE",
"440 252 CURVE",
"470 252 LINE",
"470 452 LINE",
"440 452 LINE",
"440 437 OFFCURVE",
"438 408 OFFCURVE",
"430 382 CURVE",
"225 382 LINE",
"225 656 LINE",
"468 656 LINE",
"481 626 OFFCURVE",
"486 591 OFFCURVE",
"488 569 CURVE",
"520 571 LINE",
"515 707 LINE",
"50 707 LINE",
"50 677 LINE",
"69 677 OFFCURVE",
"108 674 OFFCURVE",
"138 661 CURVE",
"138 46 LINE",
"108 33 OFFCURVE",
"69 30 OFFCURVE",
"50 30 CURVE",
"50 0 LINE"
);
}
);
width = 545;
}
);
leftKerningGroup = H;
leftMetricsKey = H;
rightKerningGroup = F;
rightMetricsKey = "=H/2";
unicode = 0046;
},
{
glyphname = G;
lastChange = "2023-05-29 09:32:29 +0000";
layers = (
{
layerId = "6D97EE47-94AA-478E-ABFB-936E6C32B491";
paths = (
{
closed = 1;
nodes = (
"563 -14 OFFCURVE",
"646 13 OFFCURVE",
"730 17 CURVE",
"730 52 LINE",
"720 57 OFFCURVE",
"708 67 OFFCURVE",
"704 76 CURVE",
"704 221 LINE",
"715 228 OFFCURVE",
"743 237 OFFCURVE",
"759 237 CURVE",
"759 269 LINE",
"529 269 LINE",
"529 237 LINE",
"547 237 OFFCURVE",
"587 234 OFFCURVE",
"617 221 CURVE",
"617 70 LINE",
"562 43 OFFCURVE",
"511 31 OFFCURVE",
"463 31 CURVE SMOOTH",
"288 31 OFFCURVE",
"145 192 OFFCURVE",
"145 380 CURVE SMOOTH",
"145 552 OFFCURVE",
"255 673 OFFCURVE",
"435 673 CURVE SMOOTH",
"531 673 OFFCURVE",
"628 634 OFFCURVE",
"664 539 CURVE",
"694 545 LINE",
"673 687 LINE",
"627 700 OFFCURVE",
"534 721 OFFCURVE",
"434 721 CURVE SMOOTH",
"221 721 OFFCURVE",
"50 563 OFFCURVE",
"50 349 CURVE SMOOTH",
"50 129 OFFCURVE",
"220 -14 OFFCURVE",
"458 -14 CURVE SMOOTH"
);
}
);
width = 799;
}
);
leftKerningGroup = O;
leftMetricsKey = O;
rightKerningGroup = G;
rightMetricsKey = "=H-10";
unicode = 0047;
},
{
glyphname = Gacute;
lastChange = "2023-05-29 09:32:29 +0000";
layers = (
{
layerId = "6D97EE47-94AA-478E-ABFB-936E6C32B491";
paths = (
{
closed = 1;
nodes = (
"563 -14 OFFCURVE",
"646 13 OFFCURVE",
"730 17 CURVE",
"730 52 LINE",
"720 57 OFFCURVE",
"708 67 OFFCURVE",
"704 76 CURVE",
"704 221 LINE",
"715 228 OFFCURVE",
"743 237 OFFCURVE",
"759 237 CURVE",
"759 269 LINE",
"529 269 LINE",
"529 237 LINE",
"547 237 OFFCURVE",
"587 234 OFFCURVE",
"617 221 CURVE",
"617 70 LINE",
"562 43 OFFCURVE",
"511 31 OFFCURVE",
"463 31 CURVE SMOOTH",
"288 31 OFFCURVE",
"145 192 OFFCURVE",
"145 380 CURVE SMOOTH",
"145 552 OFFCURVE",
"255 673 OFFCURVE",
"435 673 CURVE SMOOTH",
"531 673 OFFCURVE",
"628 634 OFFCURVE",
"664 539 CURVE",
"694 545 LINE",
"673 687 LINE",
"627 700 OFFCURVE",
"534 721 OFFCURVE",
"434 721 CURVE SMOOTH",
"221 721 OFFCURVE",
"50 563 OFFCURVE",
"50 349 CURVE SMOOTH",
"50 129 OFFCURVE",
"220 -14 OFFCURVE",
"458 -14 CURVE SMOOTH"
);
},
{
closed = 1;
nodes = (
"610 864 LINE",
"575 924 LINE",
"369 805 LINE",
"383 781 LINE"
);
}
);
width = 799;
}
);
leftKerningGroup = O;
rightKerningGroup = G;
unicode = 01F4;
},
{
glyphname = Gbreve;
lastChange = "2023-05-29 09:32:29 +0000";
layers = (
{
layerId = "6D97EE47-94AA-478E-ABFB-936E6C32B491";
paths = (
{
closed = 1;
nodes = (
"563 -14 OFFCURVE",
"646 13 OFFCURVE",
"730 17 CURVE",
"730 52 LINE",
"720 57 OFFCURVE",
"708 67 OFFCURVE",
"704 76 CURVE",
"704 221 LINE",
"715 228 OFFCURVE",
"743 237 OFFCURVE",
"759 237 CURVE",
"759 269 LINE",
"529 269 LINE",
"529 237 LINE",
"547 237 OFFCURVE",
"587 234 OFFCURVE",
"617 221 CURVE",
"617 70 LINE",
"562 43 OFFCURVE",
"511 31 OFFCURVE",
"463 31 CURVE SMOOTH",
"288 31 OFFCURVE",
"145 192 OFFCURVE",
"145 380 CURVE SMOOTH",
"145 552 OFFCURVE",
"255 673 OFFCURVE",
"435 673 CURVE SMOOTH",
"531 673 OFFCURVE",
"628 634 OFFCURVE",
"664 539 CURVE",
"694 545 LINE",
"673 687 LINE",
"627 700 OFFCURVE",
"534 721 OFFCURVE",
"434 721 CURVE SMOOTH",
"221 721 OFFCURVE",
"50 563 OFFCURVE",
"50 349 CURVE SMOOTH",
"50 129 OFFCURVE",
"220 -14 OFFCURVE",
"458 -14 CURVE SMOOTH"
);
},
{
closed = 1;
nodes = (
"486 811 OFFCURVE",
"546 837 OFFCURVE",
"579 923 CURVE",
"556 935 LINE",
"522 883 OFFCURVE",
"472 877 OFFCURVE",
"429 877 CURVE SMOOTH",
"384 877 OFFCURVE",
"337 883 OFFCURVE",
"302 935 CURVE",
"279 923 LINE",
"311 837 OFFCURVE",
"373 809 OFFCURVE",
"429 810 CURVE SMOOTH"
);
}
);
width = 799;
}
);
leftKerningGroup = O;
rightKerningGroup = G;
unicode = 011E;
},
{
glyphname = Gcaron;
lastChange = "2023-05-29 09:32:29 +0000";
layers = (
{
layerId = "6D97EE47-94AA-478E-ABFB-936E6C32B491";
paths = (
{
closed = 1;
nodes = (
"563 -14 OFFCURVE",
"646 13 OFFCURVE",
"730 17 CURVE",
"730 52 LINE",
"720 57 OFFCURVE",
"708 67 OFFCURVE",
"704 76 CURVE",
"704 221 LINE",
"715 228 OFFCURVE",
"743 237 OFFCURVE",
"759 237 CURVE",
"759 269 LINE",
"529 269 LINE",
"529 237 LINE",
"547 237 OFFCURVE",
"587 234 OFFCURVE",
"617 221 CURVE",
"617 70 LINE",
"562 43 OFFCURVE",
"511 31 OFFCURVE",
"463 31 CURVE SMOOTH",
"288 31 OFFCURVE",
"145 192 OFFCURVE",
"145 380 CURVE SMOOTH",
"145 552 OFFCURVE",
"255 673 OFFCURVE",
"435 673 CURVE SMOOTH",
"531 673 OFFCURVE",
"628 634 OFFCURVE",
"664 539 CURVE",
"694 545 LINE",
"673 687 LINE",
"627 700 OFFCURVE",
"534 721 OFFCURVE",
"434 721 CURVE SMOOTH",
"221 721 OFFCURVE",
"50 563 OFFCURVE",
"50 349 CURVE SMOOTH",
"50 129 OFFCURVE",
"220 -14 OFFCURVE",
"458 -14 CURVE SMOOTH"
);
},
{
closed = 1;
nodes = (
"444 796 LINE",
"605 932 LINE",
"586 955 LINE",
"432 867 LINE",
"278 955 LINE",
"259 932 LINE",
"420 796 LINE"
);
}
);
width = 799;
}
);
leftKerningGroup = O;
rightKerningGroup = G;
unicode = 01E6;
},
{
glyphname = Gcircumflex;
lastChange = "2023-05-29 09:32:29 +0000";
layers = (
{
layerId = "6D97EE47-94AA-478E-ABFB-936E6C32B491";
paths = (
{
closed = 1;
nodes = (
"563 -14 OFFCURVE",
"646 13 OFFCURVE",
"730 17 CURVE",
"730 52 LINE",
"720 57 OFFCURVE",
"708 67 OFFCURVE",
"704 76 CURVE",
"704 221 LINE",
"715 228 OFFCURVE",
"743 237 OFFCURVE",
"759 237 CURVE",
"759 269 LINE",
"529 269 LINE",
"529 237 LINE",
"547 237 OFFCURVE",
"587 234 OFFCURVE",
"617 221 CURVE",
"617 70 LINE",
"562 43 OFFCURVE",
"511 31 OFFCURVE",
"463 31 CURVE SMOOTH",
"288 31 OFFCURVE",
"145 192 OFFCURVE",
"145 380 CURVE SMOOTH",
"145 552 OFFCURVE",
"255 673 OFFCURVE",
"435 673 CURVE SMOOTH",
"531 673 OFFCURVE",
"628 634 OFFCURVE",
"664 539 CURVE",
"694 545 LINE",
"673 687 LINE",
"627 700 OFFCURVE",
"534 721 OFFCURVE",
"434 721 CURVE SMOOTH",
"221 721 OFFCURVE",
"50 563 OFFCURVE",
"50 349 CURVE SMOOTH",
"50 129 OFFCURVE",
"220 -14 OFFCURVE",
"458 -14 CURVE SMOOTH"
);
},
{
closed = 1;
nodes = (
"429 877 LINE",
"583 789 LINE",
"602 812 LINE",
"441 948 LINE",
"417 948 LINE",
"256 812 LINE",
"275 789 LINE"
);
}
);
width = 799;
}
);
leftKerningGroup = O;
rightKerningGroup = G;
unicode = 011C;
},
{
glyphname = Gcommaaccent;
lastChange = "2023-05-29 09:32:29 +0000";
layers = (
{
layerId = "6D97EE47-94AA-478E-ABFB-936E6C32B491";
paths = (
{
closed = 1;
nodes = (
"563 -14 OFFCURVE",
"646 13 OFFCURVE",
"730 17 CURVE",
"730 52 LINE",
"720 57 OFFCURVE",
"708 67 OFFCURVE",
"704 76 CURVE",
"704 221 LINE",
"715 228 OFFCURVE",
"743 237 OFFCURVE",
"759 237 CURVE",
"759 269 LINE",
"529 269 LINE",
"529 237 LINE",
"547 237 OFFCURVE",
"587 234 OFFCURVE",
"617 221 CURVE",
"617 70 LINE",
"562 43 OFFCURVE",
"511 31 OFFCURVE",
"463 31 CURVE SMOOTH",
"288 31 OFFCURVE",
"145 192 OFFCURVE",
"145 380 CURVE SMOOTH",
"145 552 OFFCURVE",
"255 673 OFFCURVE",
"435 673 CURVE SMOOTH",
"531 673 OFFCURVE",
"628 634 OFFCURVE",
"664 539 CURVE",
"694 545 LINE",
"673 687 LINE",
"627 700 OFFCURVE",
"534 721 OFFCURVE",
"434 721 CURVE SMOOTH",
"221 721 OFFCURVE",
"50 563 OFFCURVE",
"50 349 CURVE SMOOTH",
"50 129 OFFCURVE",
"220 -14 OFFCURVE",
"458 -14 CURVE SMOOTH"
);
},
{
closed = 1;
nodes = (
"464 -273 OFFCURVE",
"493 -185 OFFCURVE",
"487 -128 CURVE SMOOTH",
"484 -94 OFFCURVE",
"463 -70 OFFCURVE",
"432 -70 CURVE SMOOTH",
"400 -70 OFFCURVE",
"377 -97 OFFCURVE",
"377 -126 CURVE SMOOTH",
"377 -157 OFFCURVE",
"400 -180 OFFCURVE",
"432 -180 CURVE SMOOTH",
"433 -180 LINE",
"433 -228 OFFCURVE",
"410 -269 OFFCURVE",
"371 -298 CURVE",
"385 -317 LINE"
);
}
);
width = 799;
}
);
leftKerningGroup = O;
rightKerningGroup = G;
unicode = 0122;
},
{
glyphname = Gdotaccent;
lastChange = "2023-05-29 09:32:29 +0000";
layers = (
{
layerId = "6D97EE47-94AA-478E-ABFB-936E6C32B491";
paths = (
{
closed = 1;
nodes = (
"563 -14 OFFCURVE",
"646 13 OFFCURVE",
"730 17 CURVE",
"730 52 LINE",
"720 57 OFFCURVE",
"708 67 OFFCURVE",
"704 76 CURVE",
"704 221 LINE",
"715 228 OFFCURVE",
"743 237 OFFCURVE",
"759 237 CURVE",
"759 269 LINE",
"529 269 LINE",
"529 237 LINE",
"547 237 OFFCURVE",
"587 234 OFFCURVE",
"617 221 CURVE",
"617 70 LINE",
"562 43 OFFCURVE",
"511 31 OFFCURVE",
"463 31 CURVE SMOOTH",
"288 31 OFFCURVE",
"145 192 OFFCURVE",
"145 380 CURVE SMOOTH",
"145 552 OFFCURVE",
"255 673 OFFCURVE",
"435 673 CURVE SMOOTH",
"531 673 OFFCURVE",
"628 634 OFFCURVE",
"664 539 CURVE",
"694 545 LINE",
"673 687 LINE",
"627 700 OFFCURVE",
"534 721 OFFCURVE",
"434 721 CURVE SMOOTH",
"221 721 OFFCURVE",
"50 563 OFFCURVE",
"50 349 CURVE SMOOTH",
"50 129 OFFCURVE",
"220 -14 OFFCURVE",
"458 -14 CURVE SMOOTH"
);
},
{
closed = 1;
nodes = (
"461 800 OFFCURVE",
"485 826 OFFCURVE",
"485 856 CURVE SMOOTH",
"485 887 OFFCURVE",
"461 911 OFFCURVE",
"429 911 CURVE SMOOTH",
"397 911 OFFCURVE",
"374 884 OFFCURVE",
"374 855 CURVE SMOOTH",
"374 824 OFFCURVE",
"397 800 OFFCURVE",
"429 800 CURVE SMOOTH"
);
}
);
width = 799;
}
);
leftKerningGroup = O;
rightKerningGroup = G;
unicode = 0120;
},
{
glyphname = H;
lastChange = "2023-05-29 09:32:29 +0000";
layers = (
{
layerId = "6D97EE47-94AA-478E-ABFB-936E6C32B491";
paths = (
{
closed = 1;
nodes = (
"313 0 LINE",
"313 30 LINE",
"294 30 OFFCURVE",
"255 33 OFFCURVE",
"225 46 CURVE",
"225 348 LINE",
"625 348 LINE",
"625 46 LINE",
"595 33 OFFCURVE",
"556 30 OFFCURVE",
"537 30 CURVE",
"537 0 LINE",
"800 0 LINE",
"800 30 LINE",
"781 30 OFFCURVE",
"742 33 OFFCURVE",
"712 46 CURVE",
"712 661 LINE",
"742 674 OFFCURVE",
"781 677 OFFCURVE",
"800 677 CURVE",
"800 707 LINE",
"537 707 LINE",
"537 677 LINE",
"556 677 OFFCURVE",
"595 674 OFFCURVE",
"625 661 CURVE",
"625 399 LINE",
"225 399 LINE",
"225 661 LINE",
"255 674 OFFCURVE",
"294 677 OFFCURVE",
"313 677 CURVE",
"313 707 LINE",
"50 707 LINE",
"50 677 LINE",
"69 677 OFFCURVE",
"108 674 OFFCURVE",
"138 661 CURVE",
"138 46 LINE",
"108 33 OFFCURVE",
"69 30 OFFCURVE",
"50 30 CURVE",
"50 0 LINE"
);
}
);
width = 850;
}
);
leftKerningGroup = H;
rightKerningGroup = H;
unicode = 0048;
},
{
glyphname = Hbar;
lastChange = "2023-05-29 09:32:29 +0000";
layers = (
{
layerId = "6D97EE47-94AA-478E-ABFB-936E6C32B491";
paths = (
{
closed = 1;
nodes = (
"306 0 LINE",
"306 30 LINE",
"287 30 OFFCURVE",
"248 33 OFFCURVE",
"218 46 CURVE",
"218 328 LINE",
"618 328 LINE",
"618 46 LINE",
"588 33 OFFCURVE",
"549 30 OFFCURVE",
"530 30 CURVE",
"530 0 LINE",
"793 0 LINE",
"793 30 LINE",
"774 30 OFFCURVE",
"735 33 OFFCURVE",
"705 46 CURVE",
"705 499 LINE",
"796 499 LINE",
"796 541 LINE",
"705 541 LINE",
"705 661 LINE",
"735 674 OFFCURVE",
"774 677 OFFCURVE",
"793 677 CURVE",
"793 707 LINE",
"530 707 LINE",
"530 677 LINE",
"549 677 OFFCURVE",
"588 674 OFFCURVE",
"618 661 CURVE",
"618 541 LINE",
"218 541 LINE",
"218 661 LINE",
"248 674 OFFCURVE",
"287 677 OFFCURVE",
"306 677 CURVE",
"306 707 LINE",
"43 707 LINE",
"43 677 LINE",
"62 677 OFFCURVE",
"101 674 OFFCURVE",
"131 661 CURVE",
"131 541 LINE",
"42 541 LINE",
"42 499 LINE",
"131 499 LINE",
"131 46 LINE",
"101 33 OFFCURVE",
"62 30 OFFCURVE",
"43 30 CURVE",
"43 0 LINE"
);
},
{
closed = 1;
nodes = (
"218 499 LINE",
"618 499 LINE",
"618 379 LINE",
"218 379 LINE"
);
}
);
width = 834;
}
);
leftKerningGroup = H;
rightKerningGroup = H;
unicode = 0126;
},
{
glyphname = Hcaron;
lastChange = "2023-05-29 09:32:29 +0000";
layers = (
{
layerId = "6D97EE47-94AA-478E-ABFB-936E6C32B491";
paths = (
{
closed = 1;
nodes = (
"313 0 LINE",
"313 30 LINE",
"294 30 OFFCURVE",
"255 33 OFFCURVE",
"225 46 CURVE",
"225 348 LINE",
"625 348 LINE",
"625 46 LINE",
"595 33 OFFCURVE",
"556 30 OFFCURVE",
"537 30 CURVE",
"537 0 LINE",
"800 0 LINE",
"800 30 LINE",
"781 30 OFFCURVE",
"742 33 OFFCURVE",
"712 46 CURVE",
"712 661 LINE",
"742 674 OFFCURVE",
"781 677 OFFCURVE",
"800 677 CURVE",
"800 707 LINE",
"537 707 LINE",
"537 677 LINE",
"556 677 OFFCURVE",
"595 674 OFFCURVE",
"625 661 CURVE",
"625 399 LINE",
"225 399 LINE",
"225 661 LINE",
"255 674 OFFCURVE",
"294 677 OFFCURVE",
"313 677 CURVE",
"313 707 LINE",
"50 707 LINE",
"50 677 LINE",
"69 677 OFFCURVE",
"108 674 OFFCURVE",
"138 661 CURVE",
"138 46 LINE",
"108 33 OFFCURVE",
"69 30 OFFCURVE",
"50 30 CURVE",
"50 0 LINE"
);
},
{
closed = 1;
nodes = (
"440 796 LINE",
"601 932 LINE",
"582 955 LINE",
"428 867 LINE",
"274 955 LINE",
"255 932 LINE",
"416 796 LINE"
);
}
);
width = 850;
}
);
leftKerningGroup = H;
rightKerningGroup = H;
unicode = 021E;
},
{
glyphname = Hcircumflex;
lastChange = "2023-05-29 09:32:29 +0000";
layers = (
{
layerId = "6D97EE47-94AA-478E-ABFB-936E6C32B491";
paths = (
{
closed = 1;
nodes = (
"313 0 LINE",
"313 30 LINE",
"294 30 OFFCURVE",
"255 33 OFFCURVE",
"225 46 CURVE",
"225 348 LINE",
"625 348 LINE",
"625 46 LINE",
"595 33 OFFCURVE",
"556 30 OFFCURVE",
"537 30 CURVE",
"537 0 LINE",
"800 0 LINE",
"800 30 LINE",
"781 30 OFFCURVE",
"742 33 OFFCURVE",
"712 46 CURVE",
"712 661 LINE",
"742 674 OFFCURVE",
"781 677 OFFCURVE",
"800 677 CURVE",
"800 707 LINE",
"537 707 LINE",
"537 677 LINE",
"556 677 OFFCURVE",
"595 674 OFFCURVE",
"625 661 CURVE",
"625 399 LINE",
"225 399 LINE",
"225 661 LINE",
"255 674 OFFCURVE",
"294 677 OFFCURVE",
"313 677 CURVE",
"313 707 LINE",
"50 707 LINE",
"50 677 LINE",
"69 677 OFFCURVE",
"108 674 OFFCURVE",
"138 661 CURVE",
"138 46 LINE",
"108 33 OFFCURVE",
"69 30 OFFCURVE",
"50 30 CURVE",
"50 0 LINE"
);
},
{
closed = 1;
nodes = (
"425 877 LINE",
"579 789 LINE",
"598 812 LINE",
"437 948 LINE",
"413 948 LINE",
"252 812 LINE",
"271 789 LINE"
);
}
);
width = 850;
}
);
leftKerningGroup = H;
rightKerningGroup = H;
unicode = 0124;
},
{
glyphname = I;
lastChange = "2023-05-29 09:32:29 +0000";
layers = (
{
layerId = "6D97EE47-94AA-478E-ABFB-936E6C32B491";
paths = (
{
closed = 1;
nodes = (
"313 0 LINE",
"313 30 LINE",
"294 30 OFFCURVE",
"255 33 OFFCURVE",
"225 46 CURVE",
"225 661 LINE",
"255 674 OFFCURVE",
"294 677 OFFCURVE",
"313 677 CURVE",
"313 707 LINE",
"50 707 LINE",
"50 677 LINE",
"69 677 OFFCURVE",
"108 674 OFFCURVE",
"138 661 CURVE",
"138 46 LINE",
"108 33 OFFCURVE",
"69 30 OFFCURVE",
"50 30 CURVE",
"50 0 LINE"
);
}
);
width = 363;
}
);
leftKerningGroup = H;
leftMetricsKey = H;
rightKerningGroup = H;
rightMetricsKey = H;
unicode = 0049;
},
{
glyphname = IJ;
lastChange = "2023-05-29 09:32:29 +0000";
layers = (
{
layerId = "6D97EE47-94AA-478E-ABFB-936E6C32B491";
paths = (
{
closed = 1;
nodes = (
"405 -271 OFFCURVE",
"534 -175 OFFCURVE",
"577 0 CURVE",
"577 661 LINE",
"607 674 OFFCURVE",
"646 677 OFFCURVE",
"665 677 CURVE",
"665 707 LINE",
"401 707 LINE",
"401 677 LINE",
"420 677 OFFCURVE",
"459 674 OFFCURVE",
"489 661 CURVE",
"489 20 LINE SMOOTH",
"488 -6 OFFCURVE",
"486 -33 OFFCURVE",
"479 -59 CURVE SMOOTH",
"454 -154 OFFCURVE",
"396 -230 OFFCURVE",
"359 -263 CURVE",
"381 -286 LINE"
);
},
{
closed = 1;
nodes = (
"313 0 LINE",
"313 30 LINE",
"294 30 OFFCURVE",
"255 33 OFFCURVE",
"225 46 CURVE",
"225 661 LINE",
"255 674 OFFCURVE",
"294 677 OFFCURVE",
"313 677 CURVE",
"313 707 LINE",
"50 707 LINE",
"50 677 LINE",
"69 677 OFFCURVE",
"108 674 OFFCURVE",
"138 661 CURVE",
"138 46 LINE",
"108 33 OFFCURVE",
"69 30 OFFCURVE",
"50 30 CURVE",
"50 0 LINE"
);
}
);
width = 715;
}
);
leftKerningGroup = H;
leftMetricsKey = H;
rightKerningGroup = H;
rightMetricsKey = H;
unicode = 0132;
},
{
glyphname = Iacute;
lastChange = "2023-05-29 09:32:29 +0000";
layers = (
{
layerId = "6D97EE47-94AA-478E-ABFB-936E6C32B491";
paths = (
{
closed = 1;
nodes = (
"313 0 LINE",
"313 30 LINE",
"294 30 OFFCURVE",
"255 33 OFFCURVE",
"225 46 CURVE",
"225 661 LINE",
"255 674 OFFCURVE",
"294 677 OFFCURVE",
"313 677 CURVE",
"313 707 LINE",
"50 707 LINE",
"50 677 LINE",
"69 677 OFFCURVE",
"108 674 OFFCURVE",
"138 661 CURVE",
"138 46 LINE",
"108 33 OFFCURVE",
"69 30 OFFCURVE",
"50 30 CURVE",
"50 0 LINE"
);
},
{
closed = 1;
nodes = (
"362 864 LINE",
"327 924 LINE",
"121 805 LINE",
"135 781 LINE"
);
}
);
width = 363;
}
);
leftKerningGroup = H;
rightKerningGroup = H;
unicode = 00CD;
},
{
glyphname = Ibreve;
lastChange = "2023-05-29 09:32:29 +0000";
layers = (
{
layerId = "6D97EE47-94AA-478E-ABFB-936E6C32B491";
paths = (
{
closed = 1;
nodes = (
"313 0 LINE",
"313 30 LINE",
"294 30 OFFCURVE",
"255 33 OFFCURVE",
"225 46 CURVE",
"225 661 LINE",
"255 674 OFFCURVE",
"294 677 OFFCURVE",
"313 677 CURVE",
"313 707 LINE",
"50 707 LINE",
"50 677 LINE",
"69 677 OFFCURVE",
"108 674 OFFCURVE",
"138 661 CURVE",
"138 46 LINE",
"108 33 OFFCURVE",
"69 30 OFFCURVE",
"50 30 CURVE",
"50 0 LINE"
);
},
{
closed = 1;
nodes = (
"238 811 OFFCURVE",
"298 837 OFFCURVE",
"331 923 CURVE",
"308 935 LINE",
"274 883 OFFCURVE",
"224 877 OFFCURVE",
"181 877 CURVE SMOOTH",
"136 877 OFFCURVE",
"89 883 OFFCURVE",
"54 935 CURVE",
"31 923 LINE",
"63 837 OFFCURVE",
"125 809 OFFCURVE",
"181 810 CURVE SMOOTH"
);
}
);
width = 363;
}
);
leftKerningGroup = H;
rightKerningGroup = H;
unicode = 012C;
},
{
glyphname = Icircumflex;
lastChange = "2023-05-29 09:32:29 +0000";
layers = (
{
layerId = "6D97EE47-94AA-478E-ABFB-936E6C32B491";
paths = (
{
closed = 1;
nodes = (
"313 0 LINE",
"313 30 LINE",
"294 30 OFFCURVE",
"255 33 OFFCURVE",
"225 46 CURVE",
"225 661 LINE",
"255 674 OFFCURVE",
"294 677 OFFCURVE",
"313 677 CURVE",
"313 707 LINE",
"50 707 LINE",
"50 677 LINE",
"69 677 OFFCURVE",
"108 674 OFFCURVE",
"138 661 CURVE",
"138 46 LINE",
"108 33 OFFCURVE",
"69 30 OFFCURVE",
"50 30 CURVE",
"50 0 LINE"
);
},
{
closed = 1;
nodes = (
"181 877 LINE",
"335 789 LINE",
"354 812 LINE",
"193 948 LINE",
"169 948 LINE",
"8 812 LINE",
"27 789 LINE"
);
}
);
width = 363;
}
);
leftKerningGroup = H;
rightKerningGroup = H;
unicode = 00CE;
},
{
glyphname = Idieresis;
lastChange = "2023-05-29 09:32:29 +0000";
layers = (
{
layerId = "6D97EE47-94AA-478E-ABFB-936E6C32B491";
paths = (
{
closed = 1;
nodes = (
"313 0 LINE",
"313 30 LINE",
"294 30 OFFCURVE",
"255 33 OFFCURVE",
"225 46 CURVE",
"225 661 LINE",
"255 674 OFFCURVE",
"294 677 OFFCURVE",
"313 677 CURVE",
"313 707 LINE",
"50 707 LINE",
"50 677 LINE",
"69 677 OFFCURVE",
"108 674 OFFCURVE",
"138 661 CURVE",
"138 46 LINE",
"108 33 OFFCURVE",
"69 30 OFFCURVE",
"50 30 CURVE",
"50 0 LINE"
);
},
{
closed = 1;
nodes = (
"118 800 OFFCURVE",
"140 823 OFFCURVE",
"140 850 CURVE SMOOTH",
"140 877 OFFCURVE",
"118 898 OFFCURVE",
"90 898 CURVE SMOOTH",
"62 898 OFFCURVE",
"41 875 OFFCURVE",
"41 848 CURVE SMOOTH",
"41 821 OFFCURVE",
"62 800 OFFCURVE",
"90 800 CURVE SMOOTH"
);
},
{
closed = 1;
nodes = (
"299 800 OFFCURVE",
"321 823 OFFCURVE",
"321 850 CURVE SMOOTH",
"321 877 OFFCURVE",
"299 898 OFFCURVE",
"271 898 CURVE SMOOTH",
"243 898 OFFCURVE",
"222 875 OFFCURVE",
"222 848 CURVE SMOOTH",
"222 821 OFFCURVE",
"243 800 OFFCURVE",
"271 800 CURVE SMOOTH"
);
}
);
width = 363;
}
);
leftKerningGroup = H;
rightKerningGroup = H;
unicode = 00CF;
},
{
glyphname = Idotaccent;
lastChange = "2023-05-29 09:32:29 +0000";
layers = (
{
layerId = "6D97EE47-94AA-478E-ABFB-936E6C32B491";
paths = (
{
closed = 1;
nodes = (
"313 0 LINE",
"313 30 LINE",
"294 30 OFFCURVE",
"255 33 OFFCURVE",
"225 46 CURVE",
"225 661 LINE",
"255 674 OFFCURVE",
"294 677 OFFCURVE",
"313 677 CURVE",
"313 707 LINE",
"50 707 LINE",
"50 677 LINE",
"69 677 OFFCURVE",
"108 674 OFFCURVE",
"138 661 CURVE",
"138 46 LINE",
"108 33 OFFCURVE",
"69 30 OFFCURVE",
"50 30 CURVE",
"50 0 LINE"
);
},
{
closed = 1;
nodes = (
"213 800 OFFCURVE",
"237 826 OFFCURVE",
"237 856 CURVE SMOOTH",
"237 887 OFFCURVE",
"213 911 OFFCURVE",
"181 911 CURVE SMOOTH",
"149 911 OFFCURVE",
"126 884 OFFCURVE",
"126 855 CURVE SMOOTH",
"126 824 OFFCURVE",
"149 800 OFFCURVE",
"181 800 CURVE SMOOTH"
);
}
);
width = 363;
}
);
leftKerningGroup = H;
rightKerningGroup = H;
unicode = 0130;
},
{
glyphname = Idotbelow;
lastChange = "2023-05-29 09:32:29 +0000";
layers = (
{
layerId = "6D97EE47-94AA-478E-ABFB-936E6C32B491";
paths = (
{
closed = 1;
nodes = (
"313 0 LINE",
"313 30 LINE",
"294 30 OFFCURVE",
"255 33 OFFCURVE",
"225 46 CURVE",
"225 661 LINE",
"255 674 OFFCURVE",
"294 677 OFFCURVE",
"313 677 CURVE",
"313 707 LINE",
"50 707 LINE",
"50 677 LINE",
"69 677 OFFCURVE",
"108 674 OFFCURVE",
"138 661 CURVE",
"138 46 LINE",
"108 33 OFFCURVE",
"69 30 OFFCURVE",
"50 30 CURVE",
"50 0 LINE"
);
},
{
closed = 1;
nodes = (
"213 -181 OFFCURVE",
"237 -155 OFFCURVE",
"237 -125 CURVE SMOOTH",
"237 -94 OFFCURVE",
"213 -70 OFFCURVE",
"181 -70 CURVE SMOOTH",
"149 -70 OFFCURVE",
"126 -97 OFFCURVE",
"126 -126 CURVE SMOOTH",
"126 -157 OFFCURVE",
"149 -181 OFFCURVE",
"181 -181 CURVE SMOOTH"
);
}
);
width = 363;
}
);
leftKerningGroup = H;
rightKerningGroup = H;
unicode = 1ECA;
},
{
glyphname = Igrave;
lastChange = "2023-05-29 09:32:29 +0000";
layers = (
{
layerId = "6D97EE47-94AA-478E-ABFB-936E6C32B491";
paths = (
{
closed = 1;
nodes = (
"313 0 LINE",
"313 30 LINE",
"294 30 OFFCURVE",
"255 33 OFFCURVE",
"225 46 CURVE",
"225 661 LINE",
"255 674 OFFCURVE",
"294 677 OFFCURVE",
"313 677 CURVE",
"313 707 LINE",
"50 707 LINE",
"50 677 LINE",
"69 677 OFFCURVE",
"108 674 OFFCURVE",
"138 661 CURVE",
"138 46 LINE",
"108 33 OFFCURVE",
"69 30 OFFCURVE",
"50 30 CURVE",
"50 0 LINE"
);
},
{
closed = 1;
nodes = (
"261 813 LINE",
"55 932 LINE",
"20 872 LINE",
"247 789 LINE"
);
}
);
width = 363;
}
);
leftKerningGroup = H;
rightKerningGroup = H;
unicode = 00CC;
},
{
glyphname = Imacron;
lastChange = "2023-05-29 09:32:29 +0000";
layers = (
{
layerId = "6D97EE47-94AA-478E-ABFB-936E6C32B491";
paths = (
{
closed = 1;
nodes = (
"313 0 LINE",
"313 30 LINE",
"294 30 OFFCURVE",
"255 33 OFFCURVE",
"225 46 CURVE",
"225 661 LINE",
"255 674 OFFCURVE",
"294 677 OFFCURVE",
"313 677 CURVE",
"313 707 LINE",
"50 707 LINE",
"50 677 LINE",
"69 677 OFFCURVE",
"108 674 OFFCURVE",
"138 661 CURVE",
"138 46 LINE",
"108 33 OFFCURVE",
"69 30 OFFCURVE",
"50 30 CURVE",
"50 0 LINE"
);
},
{
closed = 1;
nodes = (
"334 806 LINE",
"334 854 LINE",
"28 854 LINE",
"28 806 LINE"
);
}
);
width = 363;
}
);
leftKerningGroup = H;
rightKerningGroup = H;
unicode = 012A;
},
{
glyphname = Iogonek;
lastChange = "2023-05-29 09:32:29 +0000";
layers = (
{
layerId = "6D97EE47-94AA-478E-ABFB-936E6C32B491";
paths = (
{
closed = 1;
nodes = (
"191 -240 OFFCURVE",
"232 -218 OFFCURVE",
"255 -190 CURVE",
"244 -174 LINE",
"233 -183 OFFCURVE",
"214 -192 OFFCURVE",
"195 -192 CURVE SMOOTH",
"160 -192 OFFCURVE",
"140 -168 OFFCURVE",
"140 -135 CURVE SMOOTH",
"140 -96 OFFCURVE",
"172 -48 OFFCURVE",
"223 0 CURVE",
"313 0 LINE",
"313 30 LINE",
"294 30 OFFCURVE",
"255 33 OFFCURVE",
"225 46 CURVE",
"225 661 LINE",
"255 674 OFFCURVE",
"294 677 OFFCURVE",
"313 677 CURVE",
"313 707 LINE",
"50 707 LINE",
"50 677 LINE",
"69 677 OFFCURVE",
"108 674 OFFCURVE",
"138 661 CURVE",
"138 46 LINE",
"108 33 OFFCURVE",
"69 30 OFFCURVE",
"50 30 CURVE",
"50 0 LINE",
"184 0 LINE",
"107 -57 OFFCURVE",
"71 -106 OFFCURVE",
"71 -162 CURVE SMOOTH",
"71 -217 OFFCURVE",
"110 -240 OFFCURVE",
"159 -240 CURVE SMOOTH"
);
}
);
width = 363;
}
);
leftKerningGroup = H;
rightKerningGroup = H;
unicode = 012E;
},
{
glyphname = Itilde;
lastChange = "2023-05-29 09:32:29 +0000";
layers = (
{
layerId = "6D97EE47-94AA-478E-ABFB-936E6C32B491";
paths = (
{
closed = 1;
nodes = (
"313 0 LINE",
"313 30 LINE",
"294 30 OFFCURVE",
"255 33 OFFCURVE",
"225 46 CURVE",
"225 661 LINE",
"255 674 OFFCURVE",
"294 677 OFFCURVE",
"313 677 CURVE",
"313 707 LINE",
"50 707 LINE",
"50 677 LINE",
"69 677 OFFCURVE",
"108 674 OFFCURVE",
"138 661 CURVE",
"138 46 LINE",
"108 33 OFFCURVE",
"69 30 OFFCURVE",
"50 30 CURVE",
"50 0 LINE"
);
},
{
closed = 1;
nodes = (
"58 822 OFFCURVE",
"72 847 OFFCURVE",
"111 850 CURVE SMOOTH",
"160 852 OFFCURVE",
"185 796 OFFCURVE",
"253 800 CURVE SMOOTH",
"304 803 OFFCURVE",
"343 867 OFFCURVE",
"360 903 CURVE",
"339 914 LINE",
"321 885 OFFCURVE",
"307 861 OFFCURVE",
"268 859 CURVE SMOOTH",
"220 857 OFFCURVE",
"195 912 OFFCURVE",
"126 908 CURVE SMOOTH",
"75 906 OFFCURVE",
"36 842 OFFCURVE",
"19 805 CURVE",
"40 794 LINE"
);
}
);
width = 363;
}
);
leftKerningGroup = H;
rightKerningGroup = H;
unicode = 0128;
},
{
glyphname = J;
lastChange = "2023-05-29 09:32:29 +0000";
layers = (
{
layerId = "6D97EE47-94AA-478E-ABFB-936E6C32B491";
paths = (
{
closed = 1;
nodes = (
"92 -271 OFFCURVE",
"221 -175 OFFCURVE",
"264 0 CURVE",
"264 661 LINE",
"294 674 OFFCURVE",
"333 677 OFFCURVE",
"352 677 CURVE",
"352 707 LINE",
"88 707 LINE",
"88 677 LINE",
"107 677 OFFCURVE",
"146 674 OFFCURVE",
"176 661 CURVE",
"176 20 LINE SMOOTH",
"175 -6 OFFCURVE",
"173 -33 OFFCURVE",
"166 -59 CURVE SMOOTH",
"141 -154 OFFCURVE",
"83 -230 OFFCURVE",
"46 -263 CURVE",
"68 -286 LINE"
);
}
);
width = 402;
}
);
leftKerningGroup = J;
rightKerningGroup = H;
rightMetricsKey = H;
unicode = 004A;
},
{
glyphname = Jacute;
lastChange = "2023-05-29 09:32:29 +0000";
layers = (
{
layerId = "6D97EE47-94AA-478E-ABFB-936E6C32B491";
paths = (
{
closed = 1;
nodes = (
"92 -271 OFFCURVE",
"221 -175 OFFCURVE",
"264 0 CURVE",
"264 661 LINE",
"294 674 OFFCURVE",
"333 677 OFFCURVE",
"352 677 CURVE",
"352 707 LINE",
"88 707 LINE",
"88 677 LINE",
"107 677 OFFCURVE",
"146 674 OFFCURVE",
"176 661 CURVE",
"176 20 LINE SMOOTH",
"175 -6 OFFCURVE",
"173 -33 OFFCURVE",
"166 -59 CURVE SMOOTH",
"141 -154 OFFCURVE",
"83 -230 OFFCURVE",
"46 -263 CURVE",
"68 -286 LINE"
);
},
{
closed = 1;
nodes = (
"401 864 LINE",
"366 924 LINE",
"160 805 LINE",
"174 781 LINE"
);
}
);
width = 402;
}
);
leftKerningGroup = J;
rightKerningGroup = H;
},
{
glyphname = Jcircumflex;
lastChange = "2023-05-29 09:32:29 +0000";
layers = (
{
layerId = "6D97EE47-94AA-478E-ABFB-936E6C32B491";
paths = (
{
closed = 1;
nodes = (
"92 -271 OFFCURVE",
"221 -175 OFFCURVE",
"264 0 CURVE",
"264 661 LINE",
"294 674 OFFCURVE",
"333 677 OFFCURVE",
"352 677 CURVE",
"352 707 LINE",
"88 707 LINE",
"88 677 LINE",
"107 677 OFFCURVE",
"146 674 OFFCURVE",
"176 661 CURVE",
"176 20 LINE SMOOTH",
"175 -6 OFFCURVE",
"173 -33 OFFCURVE",
"166 -59 CURVE SMOOTH",
"141 -154 OFFCURVE",
"83 -230 OFFCURVE",
"46 -263 CURVE",
"68 -286 LINE"
);
},
{
closed = 1;
nodes = (
"220 877 LINE",
"374 789 LINE",
"393 812 LINE",
"232 948 LINE",
"208 948 LINE",
"47 812 LINE",
"66 789 LINE"
);
}
);
width = 402;
}
);
leftKerningGroup = J;
rightKerningGroup = H;
unicode = 0134;
},
{
glyphname = K;
lastChange = "2023-05-29 09:32:29 +0000";
layers = (
{
layerId = "6D97EE47-94AA-478E-ABFB-936E6C32B491";
paths = (
{
closed = 1;
nodes = (
"712 0 LINE",
"623 27 OFFCURVE",
"591 68 OFFCURVE",
"538 127 CURVE SMOOTH",
"473 199 OFFCURVE",
"374 342 OFFCURVE",
"331 392 CURVE",
"581 661 LINE",
"611 674 OFFCURVE",
"649 677 OFFCURVE",
"668 677 CURVE",
"668 707 LINE",
"440 707 LINE",
"440 677 LINE",
"455 677 OFFCURVE",
"487 674 OFFCURVE",
"512 661 CURVE",
"243 373 LINE",
"275 331 OFFCURVE",
"418 117 OFFCURVE",
"469 65 CURVE SMOOTH",
"525 7 OFFCURVE",
"568 -29 OFFCURVE",
"705 -30 CURVE"
);
},
{
closed = 1;
nodes = (
"317 0 LINE",
"317 30 LINE",
"297 30 OFFCURVE",
"256 33 OFFCURVE",
"225 46 CURVE",
"225 661 LINE",
"255 674 OFFCURVE",
"294 677 OFFCURVE",
"313 677 CURVE",
"313 707 LINE",
"50 707 LINE",
"50 677 LINE",
"69 677 OFFCURVE",
"108 674 OFFCURVE",
"138 661 CURVE",
"138 46 LINE",
"108 33 OFFCURVE",
"69 30 OFFCURVE",
"50 30 CURVE",
"50 0 LINE"
);
}
);
width = 706;
}
);
leftKerningGroup = H;
leftMetricsKey = H;
rightKerningGroup = K;
unicode = 004B;
},
{
glyphname = Kcommaaccent;
lastChange = "2023-05-29 09:32:29 +0000";
layers = (
{
layerId = "6D97EE47-94AA-478E-ABFB-936E6C32B491";
paths = (
{
closed = 1;
nodes = (
"712 0 LINE",
"623 27 OFFCURVE",
"591 68 OFFCURVE",
"538 127 CURVE SMOOTH",
"473 199 OFFCURVE",
"374 342 OFFCURVE",
"331 392 CURVE",
"581 661 LINE",
"611 674 OFFCURVE",
"649 677 OFFCURVE",
"668 677 CURVE",
"668 707 LINE",
"440 707 LINE",
"440 677 LINE",
"455 677 OFFCURVE",
"487 674 OFFCURVE",
"512 661 CURVE",
"243 373 LINE",
"275 331 OFFCURVE",
"418 117 OFFCURVE",
"469 65 CURVE SMOOTH",
"525 7 OFFCURVE",
"568 -29 OFFCURVE",
"705 -30 CURVE"
);
},
{
closed = 1;
nodes = (
"391 -273 OFFCURVE",
"420 -185 OFFCURVE",
"414 -128 CURVE SMOOTH",
"411 -94 OFFCURVE",
"390 -70 OFFCURVE",
"359 -70 CURVE SMOOTH",
"327 -70 OFFCURVE",
"304 -97 OFFCURVE",
"304 -126 CURVE SMOOTH",
"304 -157 OFFCURVE",
"327 -180 OFFCURVE",
"359 -180 CURVE SMOOTH",
"360 -180 LINE",
"360 -228 OFFCURVE",
"337 -269 OFFCURVE",
"298 -298 CURVE",
"312 -317 LINE"
);
},
{
closed = 1;
nodes = (
"317 0 LINE",
"317 30 LINE",
"297 30 OFFCURVE",
"256 33 OFFCURVE",
"225 46 CURVE",
"225 661 LINE",
"255 674 OFFCURVE",
"294 677 OFFCURVE",
"313 677 CURVE",
"313 707 LINE",
"50 707 LINE",
"50 677 LINE",
"69 677 OFFCURVE",
"108 674 OFFCURVE",
"138 661 CURVE",
"138 46 LINE",
"108 33 OFFCURVE",
"69 30 OFFCURVE",
"50 30 CURVE",
"50 0 LINE"
);
}
);
width = 706;
}
);
leftKerningGroup = H;
rightKerningGroup = K;
unicode = 0136;
},
{
glyphname = L;
lastChange = "2023-05-29 09:32:29 +0000";
layers = (
{
layerId = "6D97EE47-94AA-478E-ABFB-936E6C32B491";
paths = (
{
closed = 1;
nodes = (
"540 0 LINE",
"586 148 LINE",
"555 158 LINE",
"547 139 OFFCURVE",
"516 77 OFFCURVE",
"493 51 CURVE",
"225 51 LINE",
"225 661 LINE",
"255 674 OFFCURVE",
"294 677 OFFCURVE",
"313 677 CURVE",
"313 707 LINE",
"50 707 LINE",
"50 677 LINE",
"69 677 OFFCURVE",
"108 674 OFFCURVE",
"138 661 CURVE",
"138 46 LINE",
"108 33 OFFCURVE",
"69 30 OFFCURVE",
"50 30 CURVE",
"50 0 LINE"
);
}
);
width = 590;
}
);
leftKerningGroup = H;
leftMetricsKey = H;
rightKerningGroup = E;
unicode = 004C;
},
{
glyphname = Lacute;
lastChange = "2023-05-29 09:32:29 +0000";
layers = (
{
layerId = "6D97EE47-94AA-478E-ABFB-936E6C32B491";
paths = (
{
closed = 1;
nodes = (
"540 0 LINE",
"586 148 LINE",
"555 158 LINE",
"547 139 OFFCURVE",
"516 77 OFFCURVE",
"493 51 CURVE",
"225 51 LINE",
"225 661 LINE",
"255 674 OFFCURVE",
"294 677 OFFCURVE",
"313 677 CURVE",
"313 707 LINE",
"50 707 LINE",
"50 677 LINE",
"69 677 OFFCURVE",
"108 674 OFFCURVE",
"138 661 CURVE",
"138 46 LINE",
"108 33 OFFCURVE",
"69 30 OFFCURVE",
"50 30 CURVE",
"50 0 LINE"
);
},
{
closed = 1;
nodes = (
"363 864 LINE",
"328 924 LINE",
"122 805 LINE",
"136 781 LINE"
);
}
);
width = 590;
}
);
leftKerningGroup = H;
rightKerningGroup = E;
unicode = 0139;
},
{
glyphname = Lcaron;
lastChange = "2023-05-29 09:32:29 +0000";
layers = (
{
layerId = "6D97EE47-94AA-478E-ABFB-936E6C32B491";
paths = (
{
closed = 1;
nodes = (
"540 0 LINE",
"586 148 LINE",
"555 158 LINE",
"547 139 OFFCURVE",
"516 77 OFFCURVE",
"493 51 CURVE",
"225 51 LINE",
"225 661 LINE",
"255 674 OFFCURVE",
"294 677 OFFCURVE",
"313 677 CURVE",
"313 707 LINE",
"50 707 LINE",
"50 677 LINE",
"69 677 OFFCURVE",
"108 674 OFFCURVE",
"138 661 CURVE",
"138 46 LINE",
"108 33 OFFCURVE",
"69 30 OFFCURVE",
"50 30 CURVE",
"50 0 LINE"
);
},
{
closed = 1;
nodes = (
"440 476 LINE",
"474 715 LINE",
"398 712 LINE",
"406 475 LINE"
);
}
);
width = 590;
}
);
leftKerningGroup = H;
leftMetricsKey = L;
rightKerningGroup = E;
rightMetricsKey = L;
unicode = 013D;
},
{
glyphname = Lcommaaccent;
lastChange = "2023-05-29 09:32:29 +0000";
layers = (
{
layerId = "6D97EE47-94AA-478E-ABFB-936E6C32B491";
paths = (
{
closed = 1;
nodes = (
"540 0 LINE",
"586 148 LINE",
"555 158 LINE",
"547 139 OFFCURVE",
"516 77 OFFCURVE",
"493 51 CURVE",
"225 51 LINE",
"225 661 LINE",
"255 674 OFFCURVE",
"294 677 OFFCURVE",
"313 677 CURVE",
"313 707 LINE",
"50 707 LINE",
"50 677 LINE",
"69 677 OFFCURVE",
"108 674 OFFCURVE",
"138 661 CURVE",
"138 46 LINE",
"108 33 OFFCURVE",
"69 30 OFFCURVE",
"50 30 CURVE",
"50 0 LINE"
);
},
{
closed = 1;
nodes = (
"348 -273 OFFCURVE",
"377 -185 OFFCURVE",
"371 -128 CURVE SMOOTH",
"368 -94 OFFCURVE",
"347 -70 OFFCURVE",
"316 -70 CURVE SMOOTH",
"284 -70 OFFCURVE",
"261 -97 OFFCURVE",
"261 -126 CURVE SMOOTH",
"261 -157 OFFCURVE",
"284 -180 OFFCURVE",
"316 -180 CURVE SMOOTH",
"317 -180 LINE",
"317 -228 OFFCURVE",
"294 -269 OFFCURVE",
"255 -298 CURVE",
"269 -317 LINE"
);
}
);
width = 590;
}
);
leftKerningGroup = H;
rightKerningGroup = E;
unicode = 013B;
},
{
glyphname = Ldot;
lastChange = "2023-05-29 09:32:29 +0000";
layers = (
{
layerId = "6D97EE47-94AA-478E-ABFB-936E6C32B491";
paths = (
{
closed = 1;
nodes = (
"540 0 LINE",
"586 148 LINE",
"555 158 LINE",
"547 139 OFFCURVE",
"516 77 OFFCURVE",
"493 51 CURVE",
"225 51 LINE",
"225 661 LINE",
"255 674 OFFCURVE",
"294 677 OFFCURVE",
"313 677 CURVE",
"313 707 LINE",
"50 707 LINE",
"50 677 LINE",
"69 677 OFFCURVE",
"108 674 OFFCURVE",
"138 661 CURVE",
"138 46 LINE",
"108 33 OFFCURVE",
"69 30 OFFCURVE",
"50 30 CURVE",
"50 0 LINE"
);
},
{
closed = 1;
nodes = (
"527 286 OFFCURVE",
"555 316 OFFCURVE",
"555 350 CURVE SMOOTH",
"555 385 OFFCURVE",
"527 412 OFFCURVE",
"491 412 CURVE SMOOTH",
"455 412 OFFCURVE",
"428 382 OFFCURVE",
"428 348 CURVE SMOOTH",
"428 313 OFFCURVE",
"455 286 OFFCURVE",
"491 286 CURVE SMOOTH"
);
}
);
width = 590;
}
);
leftKerningGroup = H;
rightKerningGroup = E;
unicode = 013F;
},
{
glyphname = Lslash;
lastChange = "2023-05-29 09:32:29 +0000";
layers = (
{
layerId = "6D97EE47-94AA-478E-ABFB-936E6C32B491";
paths = (
{
closed = 1;
nodes = (
"540 0 LINE",
"586 148 LINE",
"555 158 LINE",
"547 139 OFFCURVE",
"516 77 OFFCURVE",
"493 51 CURVE",
"225 51 LINE",
"225 338 LINE",
"406 427 LINE",
"387 465 LINE",
"225 386 LINE",
"225 661 LINE",
"255 674 OFFCURVE",
"294 677 OFFCURVE",
"313 677 CURVE",
"313 707 LINE",
"50 707 LINE",
"50 677 LINE",
"69 677 OFFCURVE",
"108 674 OFFCURVE",
"138 661 CURVE",
"138 343 LINE",
"52 301 LINE",
"71 263 LINE",
"138 296 LINE",
"138 46 LINE",
"108 33 OFFCURVE",
"69 30 OFFCURVE",
"50 30 CURVE",
"50 0 LINE"
);
}
);
width = 590;
}
);
leftKerningGroup = H;
leftMetricsKey = L;
rightKerningGroup = E;
rightMetricsKey = L;
unicode = 0141;
},
{
glyphname = M;
lastChange = "2023-05-29 09:32:29 +0000";
layers = (
{
layerId = "6D97EE47-94AA-478E-ABFB-936E6C32B491";
paths = (
{
closed = 1;
nodes = (
"272 0 LINE",
"272 30 LINE",
"253 30 OFFCURVE",
"214 33 OFFCURVE",
"184 46 CURVE",
"207 568 LINE",
"439 0 LINE",
"706 544 LINE",
"725 46 LINE",
"695 33 OFFCURVE",
"657 30 OFFCURVE",
"638 30 CURVE",
"638 0 LINE",
"901 0 LINE",
"901 30 LINE",
"882 30 OFFCURVE",
"843 33 OFFCURVE",
"813 46 CURVE",
"789 661 LINE",
"819 674 OFFCURVE",
"857 677 OFFCURVE",
"876 677 CURVE",
"876 707 LINE",
"729 707 LINE",
"465 169 LINE",
"245 707 LINE",
"67 707 LINE",
"67 677 LINE",
"86 677 OFFCURVE",
"125 674 OFFCURVE",
"155 661 CURVE",
"128 46 LINE",
"98 33 OFFCURVE",
"59 30 OFFCURVE",
"40 30 CURVE",
"40 0 LINE"
);
}
);
width = 951;
}
);
leftKerningGroup = M;
leftMetricsKey = "=H-10";
rightKerningGroup = M;
rightMetricsKey = H;
unicode = 004D;
},
{
glyphname = N;
lastChange = "2023-05-29 09:32:29 +0000";
layers = (
{
layerId = "6D97EE47-94AA-478E-ABFB-936E6C32B491";
paths = (
{
closed = 1;
nodes = (
"678 -14 LINE",
"678 661 LINE",
"708 674 OFFCURVE",
"747 677 OFFCURVE",
"766 677 CURVE",
"766 707 LINE",
"534 707 LINE",
"534 677 LINE",
"553 677 OFFCURVE",
"592 674 OFFCURVE",
"622 661 CURVE",
"622 147 LINE",
"199 707 LINE",
"40 707 LINE",
"40 677 LINE",
"59 677 OFFCURVE",
"98 674 OFFCURVE",
"128 661 CURVE",
"128 46 LINE",
"98 33 OFFCURVE",
"59 30 OFFCURVE",
"40 30 CURVE",
"40 0 LINE",
"272 0 LINE",
"272 30 LINE",
"253 30 OFFCURVE",
"214 33 OFFCURVE",
"184 46 CURVE",
"184 582 LINE",
"633 -14 LINE"
);
}
);
width = 806;
}
);
leftKerningGroup = H;
leftMetricsKey = "=H-10";
rightKerningGroup = H;
rightMetricsKey = "=H-10";
unicode = 004E;
},
{
glyphname = Nacute;
lastChange = "2023-05-29 09:32:29 +0000";
layers = (
{
layerId = "6D97EE47-94AA-478E-ABFB-936E6C32B491";
paths = (
{
closed = 1;
nodes = (
"678 -14 LINE",
"678 661 LINE",
"708 674 OFFCURVE",
"747 677 OFFCURVE",
"766 677 CURVE",
"766 707 LINE",
"534 707 LINE",
"534 677 LINE",
"553 677 OFFCURVE",
"592 674 OFFCURVE",
"622 661 CURVE",
"622 147 LINE",
"199 707 LINE",
"40 707 LINE",
"40 677 LINE",
"59 677 OFFCURVE",
"98 674 OFFCURVE",
"128 661 CURVE",
"128 46 LINE",
"98 33 OFFCURVE",
"59 30 OFFCURVE",
"40 30 CURVE",
"40 0 LINE",
"272 0 LINE",
"272 30 LINE",
"253 30 OFFCURVE",
"214 33 OFFCURVE",
"184 46 CURVE",
"184 582 LINE",
"633 -14 LINE"
);
},
{
closed = 1;
nodes = (
"588 864 LINE",
"553 924 LINE",
"347 805 LINE",
"361 781 LINE"
);
}
);
width = 806;
}
);
leftKerningGroup = H;
rightKerningGroup = H;
unicode = 0143;
},
{
glyphname = Ncaron;
lastChange = "2023-05-29 09:32:29 +0000";
layers = (
{
layerId = "6D97EE47-94AA-478E-ABFB-936E6C32B491";
paths = (
{
closed = 1;
nodes = (
"678 -14 LINE",
"678 661 LINE",
"708 674 OFFCURVE",
"747 677 OFFCURVE",
"766 677 CURVE",
"766 707 LINE",
"534 707 LINE",
"534 677 LINE",
"553 677 OFFCURVE",
"592 674 OFFCURVE",
"622 661 CURVE",
"622 147 LINE",
"199 707 LINE",
"40 707 LINE",
"40 677 LINE",
"59 677 OFFCURVE",
"98 674 OFFCURVE",
"128 661 CURVE",
"128 46 LINE",
"98 33 OFFCURVE",
"59 30 OFFCURVE",
"40 30 CURVE",
"40 0 LINE",
"272 0 LINE",
"272 30 LINE",
"253 30 OFFCURVE",
"214 33 OFFCURVE",
"184 46 CURVE",
"184 582 LINE",
"633 -14 LINE"
);
},
{
closed = 1;
nodes = (
"422 796 LINE",
"583 932 LINE",
"564 955 LINE",
"410 867 LINE",
"256 955 LINE",
"237 932 LINE",
"398 796 LINE"
);
}
);
width = 806;
}
);
leftKerningGroup = H;
rightKerningGroup = H;
unicode = 0147;
},
{
glyphname = Ncommaaccent;
lastChange = "2023-05-29 09:32:29 +0000";
layers = (
{
layerId = "6D97EE47-94AA-478E-ABFB-936E6C32B491";
paths = (
{
closed = 1;
nodes = (
"678 -14 LINE",
"678 661 LINE",
"708 674 OFFCURVE",
"747 677 OFFCURVE",
"766 677 CURVE",
"766 707 LINE",
"534 707 LINE",
"534 677 LINE",
"553 677 OFFCURVE",
"592 674 OFFCURVE",
"622 661 CURVE",
"622 147 LINE",
"199 707 LINE",
"40 707 LINE",
"40 677 LINE",
"59 677 OFFCURVE",
"98 674 OFFCURVE",
"128 661 CURVE",
"128 46 LINE",
"98 33 OFFCURVE",
"59 30 OFFCURVE",
"40 30 CURVE",
"40 0 LINE",
"272 0 LINE",
"272 30 LINE",
"253 30 OFFCURVE",
"214 33 OFFCURVE",
"184 46 CURVE",
"184 582 LINE",
"633 -14 LINE"
);
},
{
closed = 1;
nodes = (
"442 -273 OFFCURVE",
"471 -185 OFFCURVE",
"465 -128 CURVE SMOOTH",
"462 -94 OFFCURVE",
"441 -70 OFFCURVE",
"410 -70 CURVE SMOOTH",
"378 -70 OFFCURVE",
"355 -97 OFFCURVE",
"355 -126 CURVE SMOOTH",
"355 -157 OFFCURVE",
"378 -180 OFFCURVE",
"410 -180 CURVE SMOOTH",
"411 -180 LINE",
"411 -228 OFFCURVE",
"388 -269 OFFCURVE",
"349 -298 CURVE",
"363 -317 LINE"
);
}
);
width = 806;
}
);
leftKerningGroup = H;
rightKerningGroup = H;
unicode = 0145;
},
{
glyphname = Eng;
lastChange = "2023-05-29 09:32:29 +0000";
layers = (
{
layerId = "6D97EE47-94AA-478E-ABFB-936E6C32B491";
paths = (
{
closed = 1;
nodes = (
"526 -239 OFFCURVE",
"569 -234 OFFCURVE",
"606 -209 CURVE SMOOTH",
"650 -179 OFFCURVE",
"666 -129 OFFCURVE",
"671 -92 CURVE SMOOTH",
"676 -53 OFFCURVE",
"678 89 OFFCURVE",
"678 141 CURVE SMOOTH",
"678 662 LINE",
"708 674 OFFCURVE",
"745 677 OFFCURVE",
"764 677 CURVE",
"764 707 LINE",
"536 707 LINE",
"536 677 LINE",
"555 677 OFFCURVE",
"592 674 OFFCURVE",
"622 662 CURVE",
"622 148 LINE",
"201 707 LINE",
"40 707 LINE",
"40 677 LINE",
"59 677 OFFCURVE",
"98 674 OFFCURVE",
"128 661 CURVE",
"128 46 LINE",
"98 33 OFFCURVE",
"59 30 OFFCURVE",
"40 30 CURVE",
"40 0 LINE",
"272 0 LINE",
"272 30 LINE",
"253 30 OFFCURVE",
"214 33 OFFCURVE",
"184 46 CURVE",
"184 583 LINE",
"622 2 LINE",
"624 -80 OFFCURVE",
"618 -109 OFFCURVE",
"596 -131 CURVE SMOOTH",
"571 -155 OFFCURVE",
"519 -159 OFFCURVE",
"471 -147 CURVE",
"477 -229 LINE"
);
}
);
width = 804;
}
);
leftKerningGroup = H;
leftMetricsKey = N;
rightKerningGroup = H;
rightMetricsKey = N;
unicode = 014A;
},
{
glyphname = Nhookleft;
lastChange = "2023-05-29 09:32:29 +0000";
layers = (
{
layerId = "6D97EE47-94AA-478E-ABFB-936E6C32B491";
paths = (
{
closed = 1;
nodes = (
"21 -239 OFFCURVE",
"64 -234 OFFCURVE",
"101 -209 CURVE SMOOTH",
"145 -179 OFFCURVE",
"165 -134 OFFCURVE",
"170 -92 CURVE SMOOTH",
"175 -53 OFFCURVE",
"173 89 OFFCURVE",
"173 141 CURVE SMOOTH",
"173 583 LINE",
"623 -14 LINE",
"667 -14 LINE",
"667 661 LINE",
"697 674 OFFCURVE",
"736 677 OFFCURVE",
"755 677 CURVE",
"755 707 LINE",
"523 707 LINE",
"523 677 LINE",
"542 677 OFFCURVE",
"581 674 OFFCURVE",
"611 661 CURVE",
"611 148 LINE",
"190 707 LINE",
"29 707 LINE",
"29 677 LINE",
"48 677 OFFCURVE",
"87 674 OFFCURVE",
"117 661 CURVE",
"117 2 LINE SMOOTH",
"119 -80 OFFCURVE",
"113 -109 OFFCURVE",
"91 -131 CURVE SMOOTH",
"66 -156 OFFCURVE",
"14 -159 OFFCURVE",
"-34 -147 CURVE",
"-28 -229 LINE"
);
}
);
width = 795;
}
);
leftKerningGroup = H;
rightKerningGroup = H;
rightMetricsKey = N;
unicode = 019D;
},
{
glyphname = Ntilde;
lastChange = "2023-05-29 09:32:29 +0000";
layers = (
{
layerId = "6D97EE47-94AA-478E-ABFB-936E6C32B491";
paths = (
{
closed = 1;
nodes = (
"678 -14 LINE",
"678 661 LINE",
"708 674 OFFCURVE",
"747 677 OFFCURVE",
"766 677 CURVE",
"766 707 LINE",
"534 707 LINE",
"534 677 LINE",
"553 677 OFFCURVE",
"592 674 OFFCURVE",
"622 661 CURVE",
"622 147 LINE",
"199 707 LINE",
"40 707 LINE",
"40 677 LINE",
"59 677 OFFCURVE",
"98 674 OFFCURVE",
"128 661 CURVE",
"128 46 LINE",
"98 33 OFFCURVE",
"59 30 OFFCURVE",
"40 30 CURVE",
"40 0 LINE",
"272 0 LINE",
"272 30 LINE",
"253 30 OFFCURVE",
"214 33 OFFCURVE",
"184 46 CURVE",
"184 582 LINE",
"633 -14 LINE"
);
},
{
closed = 1;
nodes = (
"290 822 OFFCURVE",
"304 847 OFFCURVE",
"343 850 CURVE SMOOTH",
"392 852 OFFCURVE",
"417 796 OFFCURVE",
"485 800 CURVE SMOOTH",
"536 803 OFFCURVE",
"575 867 OFFCURVE",
"592 903 CURVE",
"571 914 LINE",
"553 885 OFFCURVE",
"539 861 OFFCURVE",
"500 859 CURVE SMOOTH",
"452 857 OFFCURVE",
"427 912 OFFCURVE",
"358 908 CURVE SMOOTH",
"307 906 OFFCURVE",
"268 842 OFFCURVE",
"251 805 CURVE",
"272 794 LINE"
);
}
);
width = 806;
}
);
leftKerningGroup = H;
rightKerningGroup = H;
unicode = 00D1;
},
{
glyphname = O;
lastChange = "2023-05-29 09:32:29 +0000";
layers = (
{
layerId = "6D97EE47-94AA-478E-ABFB-936E6C32B491";
paths = (
{
closed = 1;
nodes = (
"625 -14 OFFCURVE",
"794 155 OFFCURVE",
"794 360 CURVE SMOOTH",
"794 562 OFFCURVE",
"627 721 OFFCURVE",
"424 721 CURVE SMOOTH",
"218 721 OFFCURVE",
"50 553 OFFCURVE",
"50 348 CURVE SMOOTH",
"50 146 OFFCURVE",
"215 -14 OFFCURVE",
"419 -14 CURVE SMOOTH"
);
},
{
closed = 1;
nodes = (
"276 41 OFFCURVE",
"141 215 OFFCURVE",
"141 390 CURVE SMOOTH",
"141 544 OFFCURVE",
"248 667 OFFCURVE",
"395 667 CURVE SMOOTH",
"566 667 OFFCURVE",
"702 496 OFFCURVE",
"702 319 CURVE SMOOTH",
"702 165 OFFCURVE",
"596 41 OFFCURVE",
"449 41 CURVE SMOOTH"
);
}
);
width = 844;
}
);
leftKerningGroup = O;
rightKerningGroup = O;
unicode = 004F;
},
{
glyphname = Oacute;
lastChange = "2023-05-29 09:32:29 +0000";
layers = (
{
layerId = "6D97EE47-94AA-478E-ABFB-936E6C32B491";
paths = (
{
closed = 1;
nodes = (
"625 -14 OFFCURVE",
"794 155 OFFCURVE",
"794 360 CURVE SMOOTH",
"794 562 OFFCURVE",
"627 721 OFFCURVE",
"424 721 CURVE SMOOTH",
"218 721 OFFCURVE",
"50 553 OFFCURVE",
"50 348 CURVE SMOOTH",
"50 146 OFFCURVE",
"215 -14 OFFCURVE",
"419 -14 CURVE SMOOTH"
);
},
{
closed = 1;
nodes = (
"276 41 OFFCURVE",
"141 215 OFFCURVE",
"141 390 CURVE SMOOTH",
"141 544 OFFCURVE",
"248 667 OFFCURVE",
"395 667 CURVE SMOOTH",
"566 667 OFFCURVE",
"702 496 OFFCURVE",
"702 319 CURVE SMOOTH",
"702 165 OFFCURVE",
"596 41 OFFCURVE",
"449 41 CURVE SMOOTH"
);
},
{
closed = 1;
nodes = (
"609 864 LINE",
"574 924 LINE",
"368 805 LINE",
"382 781 LINE"
);
}
);
width = 844;
}
);
leftKerningGroup = O;
rightKerningGroup = O;
unicode = 00D3;
},
{
glyphname = Obreve;
lastChange = "2023-05-29 09:32:29 +0000";
layers = (
{
layerId = "6D97EE47-94AA-478E-ABFB-936E6C32B491";
paths = (
{
closed = 1;
nodes = (
"625 -14 OFFCURVE",
"794 155 OFFCURVE",
"794 360 CURVE SMOOTH",
"794 562 OFFCURVE",
"627 721 OFFCURVE",
"424 721 CURVE SMOOTH",
"218 721 OFFCURVE",
"50 553 OFFCURVE",
"50 348 CURVE SMOOTH",
"50 146 OFFCURVE",
"215 -14 OFFCURVE",
"419 -14 CURVE SMOOTH"
);
},
{
closed = 1;
nodes = (
"276 41 OFFCURVE",
"141 215 OFFCURVE",
"141 390 CURVE SMOOTH",
"141 544 OFFCURVE",
"248 667 OFFCURVE",
"395 667 CURVE SMOOTH",
"566 667 OFFCURVE",
"702 496 OFFCURVE",
"702 319 CURVE SMOOTH",
"702 165 OFFCURVE",
"596 41 OFFCURVE",
"449 41 CURVE SMOOTH"
);
},
{
closed = 1;
nodes = (
"485 811 OFFCURVE",
"545 837 OFFCURVE",
"578 923 CURVE",
"555 935 LINE",
"521 883 OFFCURVE",
"471 877 OFFCURVE",
"428 877 CURVE SMOOTH",
"383 877 OFFCURVE",
"336 883 OFFCURVE",
"301 935 CURVE",
"278 923 LINE",
"310 837 OFFCURVE",
"372 809 OFFCURVE",
"428 810 CURVE SMOOTH"
);
}
);
width = 844;
}
);
leftKerningGroup = O;
rightKerningGroup = O;
unicode = 014E;
},
{
glyphname = Ocircumflex;
lastChange = "2023-05-29 09:32:29 +0000";
layers = (
{
layerId = "6D97EE47-94AA-478E-ABFB-936E6C32B491";
paths = (
{
closed = 1;
nodes = (
"625 -14 OFFCURVE",
"794 155 OFFCURVE",
"794 360 CURVE SMOOTH",
"794 562 OFFCURVE",
"627 721 OFFCURVE",
"424 721 CURVE SMOOTH",
"218 721 OFFCURVE",
"50 553 OFFCURVE",
"50 348 CURVE SMOOTH",
"50 146 OFFCURVE",
"215 -14 OFFCURVE",
"419 -14 CURVE SMOOTH"
);
},
{
closed = 1;
nodes = (
"276 41 OFFCURVE",
"141 215 OFFCURVE",
"141 390 CURVE SMOOTH",
"141 544 OFFCURVE",
"248 667 OFFCURVE",
"395 667 CURVE SMOOTH",
"566 667 OFFCURVE",
"702 496 OFFCURVE",
"702 319 CURVE SMOOTH",
"702 165 OFFCURVE",
"596 41 OFFCURVE",
"449 41 CURVE SMOOTH"
);
},
{
closed = 1;
nodes = (
"428 877 LINE",
"582 789 LINE",
"601 812 LINE",
"440 948 LINE",
"416 948 LINE",
"255 812 LINE",
"274 789 LINE"
);
}
);
width = 844;
}
);
leftKerningGroup = O;
rightKerningGroup = O;
unicode = 00D4;
},
{
glyphname = Odieresis;
lastChange = "2023-05-29 09:32:29 +0000";
layers = (
{
layerId = "6D97EE47-94AA-478E-ABFB-936E6C32B491";
paths = (
{
closed = 1;
nodes = (
"625 -14 OFFCURVE",
"794 155 OFFCURVE",
"794 360 CURVE SMOOTH",
"794 562 OFFCURVE",
"627 721 OFFCURVE",
"424 721 CURVE SMOOTH",
"218 721 OFFCURVE",
"50 553 OFFCURVE",
"50 348 CURVE SMOOTH",
"50 146 OFFCURVE",
"215 -14 OFFCURVE",
"419 -14 CURVE SMOOTH"
);
},
{
closed = 1;
nodes = (
"276 41 OFFCURVE",
"141 215 OFFCURVE",
"141 390 CURVE SMOOTH",
"141 544 OFFCURVE",
"248 667 OFFCURVE",
"395 667 CURVE SMOOTH",
"566 667 OFFCURVE",
"702 496 OFFCURVE",
"702 319 CURVE SMOOTH",
"702 165 OFFCURVE",
"596 41 OFFCURVE",
"449 41 CURVE SMOOTH"
);
},
{
closed = 1;
nodes = (
"365 800 OFFCURVE",
"387 823 OFFCURVE",
"387 850 CURVE SMOOTH",
"387 877 OFFCURVE",
"365 898 OFFCURVE",
"337 898 CURVE SMOOTH",
"309 898 OFFCURVE",
"288 875 OFFCURVE",
"288 848 CURVE SMOOTH",
"288 821 OFFCURVE",
"309 800 OFFCURVE",
"337 800 CURVE SMOOTH"
);
},
{
closed = 1;
nodes = (
"546 800 OFFCURVE",
"568 823 OFFCURVE",
"568 850 CURVE SMOOTH",
"568 877 OFFCURVE",
"546 898 OFFCURVE",
"518 898 CURVE SMOOTH",
"490 898 OFFCURVE",
"469 875 OFFCURVE",
"469 848 CURVE SMOOTH",
"469 821 OFFCURVE",
"490 800 OFFCURVE",
"518 800 CURVE SMOOTH"
);
}
);
width = 844;
}
);
leftKerningGroup = O;
rightKerningGroup = O;
unicode = 00D6;
},
{
glyphname = Odotbelow;
lastChange = "2023-05-29 09:32:29 +0000";
layers = (
{
layerId = "6D97EE47-94AA-478E-ABFB-936E6C32B491";
paths = (
{
closed = 1;
nodes = (
"625 -14 OFFCURVE",
"794 155 OFFCURVE",
"794 360 CURVE SMOOTH",
"794 562 OFFCURVE",
"627 721 OFFCURVE",
"424 721 CURVE SMOOTH",
"218 721 OFFCURVE",
"50 553 OFFCURVE",
"50 348 CURVE SMOOTH",
"50 146 OFFCURVE",
"215 -14 OFFCURVE",
"419 -14 CURVE SMOOTH"
);
},
{
closed = 1;
nodes = (
"469 -181 OFFCURVE",
"493 -155 OFFCURVE",
"493 -125 CURVE SMOOTH",
"493 -94 OFFCURVE",
"469 -70 OFFCURVE",
"437 -70 CURVE SMOOTH",
"405 -70 OFFCURVE",
"382 -97 OFFCURVE",
"382 -126 CURVE SMOOTH",
"382 -157 OFFCURVE",
"405 -181 OFFCURVE",
"437 -181 CURVE SMOOTH"
);
},
{
closed = 1;
nodes = (
"276 41 OFFCURVE",
"141 215 OFFCURVE",
"141 390 CURVE SMOOTH",
"141 544 OFFCURVE",
"248 667 OFFCURVE",
"395 667 CURVE SMOOTH",
"566 667 OFFCURVE",
"702 496 OFFCURVE",
"702 319 CURVE SMOOTH",
"702 165 OFFCURVE",
"596 41 OFFCURVE",
"449 41 CURVE SMOOTH"
);
}
);
width = 844;
}
);
leftKerningGroup = O;
rightKerningGroup = O;
unicode = 1ECC;
},
{
glyphname = Ograve;
lastChange = "2023-05-29 09:32:29 +0000";
layers = (
{
layerId = "6D97EE47-94AA-478E-ABFB-936E6C32B491";
paths = (
{
closed = 1;
nodes = (
"625 -14 OFFCURVE",
"794 155 OFFCURVE",
"794 360 CURVE SMOOTH",
"794 562 OFFCURVE",
"627 721 OFFCURVE",
"424 721 CURVE SMOOTH",
"218 721 OFFCURVE",
"50 553 OFFCURVE",
"50 348 CURVE SMOOTH",
"50 146 OFFCURVE",
"215 -14 OFFCURVE",
"419 -14 CURVE SMOOTH"
);
},
{
closed = 1;
nodes = (
"276 41 OFFCURVE",
"141 215 OFFCURVE",
"141 390 CURVE SMOOTH",
"141 544 OFFCURVE",
"248 667 OFFCURVE",
"395 667 CURVE SMOOTH",
"566 667 OFFCURVE",
"702 496 OFFCURVE",
"702 319 CURVE SMOOTH",
"702 165 OFFCURVE",
"596 41 OFFCURVE",
"449 41 CURVE SMOOTH"
);
},
{
closed = 1;
nodes = (
"508 813 LINE",
"302 932 LINE",
"267 872 LINE",
"494 789 LINE"
);
}
);
width = 844;
}
);
leftKerningGroup = O;
rightKerningGroup = O;
unicode = 00D2;
},
{
glyphname = Ohungarumlaut;
lastChange = "2023-05-29 09:32:29 +0000";
layers = (
{
layerId = "6D97EE47-94AA-478E-ABFB-936E6C32B491";
paths = (
{
closed = 1;
nodes = (
"625 -14 OFFCURVE",
"794 155 OFFCURVE",
"794 360 CURVE SMOOTH",
"794 562 OFFCURVE",
"627 721 OFFCURVE",
"424 721 CURVE SMOOTH",
"218 721 OFFCURVE",
"50 553 OFFCURVE",
"50 348 CURVE SMOOTH",
"50 146 OFFCURVE",
"215 -14 OFFCURVE",
"419 -14 CURVE SMOOTH"
);
},
{
closed = 1;
nodes = (
"276 41 OFFCURVE",
"141 215 OFFCURVE",
"141 390 CURVE SMOOTH",
"141 544 OFFCURVE",
"248 667 OFFCURVE",
"395 667 CURVE SMOOTH",
"566 667 OFFCURVE",
"702 496 OFFCURVE",
"702 319 CURVE SMOOTH",
"702 165 OFFCURVE",
"596 41 OFFCURVE",
"449 41 CURVE SMOOTH"
);
},
{
closed = 1;
nodes = (
"494 926 LINE",
"437 970 LINE",
"330 801 LINE",
"354 781 LINE"
);
},
{
closed = 1;
nodes = (
"639 934 LINE",
"582 978 LINE",
"475 809 LINE",
"499 789 LINE"
);
}
);
width = 844;
}
);
leftKerningGroup = O;
rightKerningGroup = O;
unicode = 0150;
},
{
glyphname = Omacron;
lastChange = "2023-05-29 09:32:29 +0000";
layers = (
{
layerId = "6D97EE47-94AA-478E-ABFB-936E6C32B491";
paths = (
{
closed = 1;
nodes = (
"625 -14 OFFCURVE",
"794 155 OFFCURVE",
"794 360 CURVE SMOOTH",
"794 562 OFFCURVE",
"627 721 OFFCURVE",
"424 721 CURVE SMOOTH",
"218 721 OFFCURVE",
"50 553 OFFCURVE",
"50 348 CURVE SMOOTH",
"50 146 OFFCURVE",
"215 -14 OFFCURVE",
"419 -14 CURVE SMOOTH"
);
},
{
closed = 1;
nodes = (
"276 41 OFFCURVE",
"141 215 OFFCURVE",
"141 390 CURVE SMOOTH",
"141 544 OFFCURVE",
"248 667 OFFCURVE",
"395 667 CURVE SMOOTH",
"566 667 OFFCURVE",
"702 496 OFFCURVE",
"702 319 CURVE SMOOTH",
"702 165 OFFCURVE",
"596 41 OFFCURVE",
"449 41 CURVE SMOOTH"
);
},
{
closed = 1;
nodes = (
"598 806 LINE",
"598 854 LINE",
"258 854 LINE",
"258 806 LINE"
);
}
);
width = 844;
}
);
leftKerningGroup = O;
rightKerningGroup = O;
unicode = 014C;
},
{
glyphname = Oogonek;
lastChange = "2023-05-29 09:32:29 +0000";
layers = (
{
layerId = "6D97EE47-94AA-478E-ABFB-936E6C32B491";
paths = (
{
closed = 1;
nodes = (
"448 -240 OFFCURVE",
"489 -218 OFFCURVE",
"512 -190 CURVE",
"501 -174 LINE",
"490 -183 OFFCURVE",
"471 -192 OFFCURVE",
"452 -192 CURVE SMOOTH",
"417 -192 OFFCURVE",
"397 -168 OFFCURVE",
"397 -135 CURVE SMOOTH",
"397 -99 OFFCURVE",
"424 -55 OFFCURVE",
"469 -11 CURVE",
"652 14 OFFCURVE",
"794 172 OFFCURVE",
"794 360 CURVE SMOOTH",
"794 562 OFFCURVE",
"627 721 OFFCURVE",
"424 721 CURVE SMOOTH",
"218 721 OFFCURVE",
"50 553 OFFCURVE",
"50 348 CURVE SMOOTH",
"50 146 OFFCURVE",
"215 -14 OFFCURVE",
"419 -14 CURVE SMOOTH",
"423 -14 LINE",
"358 -65 OFFCURVE",
"328 -111 OFFCURVE",
"328 -162 CURVE SMOOTH",
"328 -217 OFFCURVE",
"367 -240 OFFCURVE",
"416 -240 CURVE SMOOTH"
);
},
{
closed = 1;
nodes = (
"276 41 OFFCURVE",
"141 215 OFFCURVE",
"141 390 CURVE SMOOTH",
"141 544 OFFCURVE",
"248 667 OFFCURVE",
"395 667 CURVE SMOOTH",
"566 667 OFFCURVE",
"702 496 OFFCURVE",
"702 319 CURVE SMOOTH",
"702 165 OFFCURVE",
"596 41 OFFCURVE",
"449 41 CURVE SMOOTH"
);
}
);
width = 844;
}
);
leftKerningGroup = O;
rightKerningGroup = O;
unicode = 01EA;
},
{
glyphname = Oslash;
lastChange = "2023-05-29 09:32:29 +0000";
layers = (
{
layerId = "6D97EE47-94AA-478E-ABFB-936E6C32B491";
paths = (
{
closed = 1;
nodes = (
"261 20 LINE",
"309 -2 OFFCURVE",
"363 -14 OFFCURVE",
"419 -14 CURVE SMOOTH",
"625 -14 OFFCURVE",
"794 155 OFFCURVE",
"794 360 CURVE SMOOTH",
"794 486 OFFCURVE",
"729 595 OFFCURVE",
"631 660 CURVE",
"699 778 LINE",
"660 799 LINE",
"592 682 LINE",
"542 707 OFFCURVE",
"484 721 OFFCURVE",
"424 721 CURVE SMOOTH",
"218 721 OFFCURVE",
"50 553 OFFCURVE",
"50 348 CURVE SMOOTH",
"50 218 OFFCURVE",
"119 105 OFFCURVE",
"223 41 CURVE",
"154 -78 LINE",
"192 -100 LINE"
);
},
{
closed = 1;
nodes = (
"189 181 OFFCURVE",
"141 285 OFFCURVE",
"141 390 CURVE SMOOTH",
"141 544 OFFCURVE",
"248 667 OFFCURVE",
"395 667 CURVE SMOOTH",
"453 667 OFFCURVE",
"507 647 OFFCURVE",
"553 614 CURVE",
"265 114 LINE"
);
},
{
closed = 1;
nodes = (
"395 41 OFFCURVE",
"344 58 OFFCURVE",
"300 87 CURVE",
"588 586 LINE",
"658 519 OFFCURVE",
"702 420 OFFCURVE",
"702 319 CURVE SMOOTH",
"702 165 OFFCURVE",
"596 41 OFFCURVE",
"449 41 CURVE SMOOTH"
);
}
);
width = 844;
}
);
leftKerningGroup = O;
leftMetricsKey = O;
rightKerningGroup = O;
rightMetricsKey = O;
unicode = 00D8;
},
{
glyphname = Oslashacute;
lastChange = "2023-05-29 09:32:29 +0000";
layers = (
{
layerId = "6D97EE47-94AA-478E-ABFB-936E6C32B491";
paths = (
{
closed = 1;
nodes = (
"261 20 LINE",
"309 -2 OFFCURVE",
"363 -14 OFFCURVE",
"419 -14 CURVE SMOOTH",
"625 -14 OFFCURVE",
"794 155 OFFCURVE",
"794 360 CURVE SMOOTH",
"794 486 OFFCURVE",
"729 595 OFFCURVE",
"631 660 CURVE",
"699 778 LINE",
"660 799 LINE",
"592 682 LINE",
"542 707 OFFCURVE",
"484 721 OFFCURVE",
"424 721 CURVE SMOOTH",
"218 721 OFFCURVE",
"50 553 OFFCURVE",
"50 348 CURVE SMOOTH",
"50 218 OFFCURVE",
"119 105 OFFCURVE",
"223 41 CURVE",
"154 -78 LINE",
"192 -100 LINE"
);
},
{
closed = 1;
nodes = (
"189 181 OFFCURVE",
"141 285 OFFCURVE",
"141 390 CURVE SMOOTH",
"141 544 OFFCURVE",
"248 667 OFFCURVE",
"395 667 CURVE SMOOTH",
"453 667 OFFCURVE",
"507 647 OFFCURVE",
"553 614 CURVE",
"265 114 LINE"
);
},
{
closed = 1;
nodes = (
"395 41 OFFCURVE",
"344 58 OFFCURVE",
"300 87 CURVE",
"588 586 LINE",
"658 519 OFFCURVE",
"702 420 OFFCURVE",
"702 319 CURVE SMOOTH",
"702 165 OFFCURVE",
"596 41 OFFCURVE",
"449 41 CURVE SMOOTH"
);
},
{
closed = 1;
nodes = (
"609 864 LINE",
"574 924 LINE",
"368 805 LINE",
"382 781 LINE"
);
}
);
width = 844;
}
);
leftKerningGroup = O;
rightKerningGroup = O;
unicode = 01FE;
},
{
glyphname = Otilde;
lastChange = "2023-05-29 09:32:29 +0000";
layers = (
{
layerId = "6D97EE47-94AA-478E-ABFB-936E6C32B491";
paths = (
{
closed = 1;
nodes = (
"625 -14 OFFCURVE",
"794 155 OFFCURVE",
"794 360 CURVE SMOOTH",
"794 562 OFFCURVE",
"627 721 OFFCURVE",
"424 721 CURVE SMOOTH",
"218 721 OFFCURVE",
"50 553 OFFCURVE",
"50 348 CURVE SMOOTH",
"50 146 OFFCURVE",
"215 -14 OFFCURVE",
"419 -14 CURVE SMOOTH"
);
},
{
closed = 1;
nodes = (
"276 41 OFFCURVE",
"141 215 OFFCURVE",
"141 390 CURVE SMOOTH",
"141 544 OFFCURVE",
"248 667 OFFCURVE",
"395 667 CURVE SMOOTH",
"566 667 OFFCURVE",
"702 496 OFFCURVE",
"702 319 CURVE SMOOTH",
"702 165 OFFCURVE",
"596 41 OFFCURVE",
"449 41 CURVE SMOOTH"
);
},
{
closed = 1;
nodes = (
"311 822 OFFCURVE",
"325 847 OFFCURVE",
"364 850 CURVE SMOOTH",
"413 852 OFFCURVE",
"438 796 OFFCURVE",
"506 800 CURVE SMOOTH",
"557 803 OFFCURVE",
"596 867 OFFCURVE",
"613 903 CURVE",
"592 914 LINE",
"574 885 OFFCURVE",
"560 861 OFFCURVE",
"521 859 CURVE SMOOTH",
"473 857 OFFCURVE",
"448 912 OFFCURVE",
"379 908 CURVE SMOOTH",
"328 906 OFFCURVE",
"289 842 OFFCURVE",
"272 805 CURVE",
"293 794 LINE"
);
}
);
width = 844;
}
);
leftKerningGroup = O;
rightKerningGroup = O;
unicode = 00D5;
},
{
glyphname = OE;
lastChange = "2023-05-29 09:32:29 +0000";
layers = (
{
layerId = "6D97EE47-94AA-478E-ABFB-936E6C32B491";
paths = (
{
closed = 1;
nodes = (
"459 -14 OFFCURVE",
"490 -9 OFFCURVE",
"521 0 CURVE",
"990 0 LINE",
"1023 151 LINE",
"991 159 LINE",
"988 146 OFFCURVE",
"964 85 OFFCURVE",
"938 51 CURVE",
"675 51 LINE",
"675 342 LINE",
"881 342 LINE",
"891 314 OFFCURVE",
"893 280 OFFCURVE",
"893 263 CURVE",
"925 263 LINE",
"925 463 LINE",
"893 463 LINE",
"893 447 OFFCURVE",
"891 419 OFFCURVE",
"884 393 CURVE",
"675 393 LINE",
"675 656 LINE",
"918 656 LINE",
"931 626 OFFCURVE",
"936 591 OFFCURVE",
"938 569 CURVE",
"970 571 LINE",
"965 707 LINE",
"526 707 LINE",
"493 716 OFFCURVE",
"459 721 OFFCURVE",
"424 721 CURVE SMOOTH",
"218 721 OFFCURVE",
"50 553 OFFCURVE",
"50 348 CURVE SMOOTH",
"50 149 OFFCURVE",
"213 -14 OFFCURVE",
"419 -14 CURVE SMOOTH"
);
},
{
closed = 1;
nodes = (
"276 41 OFFCURVE",
"141 216 OFFCURVE",
"141 390 CURVE SMOOTH",
"141 548 OFFCURVE",
"250 669 OFFCURVE",
"406 669 CURVE SMOOTH",
"471 669 OFFCURVE",
"536 646 OFFCURVE",
"588 606 CURVE",
"588 84 LINE",
"547 57 OFFCURVE",
"498 41 OFFCURVE",
"449 41 CURVE SMOOTH"
);
}
);
width = 1048;
}
);
leftKerningGroup = O;
leftMetricsKey = O;
rightKerningGroup = E;
rightMetricsKey = E;
unicode = 0152;
},
{
glyphname = P;
lastChange = "2023-05-29 09:32:29 +0000";
layers = (
{
layerId = "6D97EE47-94AA-478E-ABFB-936E6C32B491";
paths = (
{
closed = 1;
nodes = (
"322 0 LINE",
"322 30 LINE",
"301 30 OFFCURVE",
"258 33 OFFCURVE",
"225 46 CURVE",
"225 671 LINE",
"359 692 OFFCURVE",
"487 607 OFFCURVE",
"487 470 CURVE SMOOTH",
"487 381 OFFCURVE",
"423 309 OFFCURVE",
"282 300 CURVE",
"287 268 LINE",
"474 261 OFFCURVE",
"580 375 OFFCURVE",
"580 491 CURVE SMOOTH",
"580 605 OFFCURVE",
"473 721 OFFCURVE",
"311 721 CURVE SMOOTH",
"236 721 OFFCURVE",
"178 712 OFFCURVE",
"51 702 CURVE",
"54 672 LINE",
"69 675 OFFCURVE",
"110 673 OFFCURVE",
"138 667 CURVE",
"138 46 LINE",
"108 33 OFFCURVE",
"69 30 OFFCURVE",
"50 30 CURVE",
"50 0 LINE"
);
}
);
width = 630;
}
);
leftKerningGroup = H;
leftMetricsKey = H;
rightKerningGroup = P;
rightMetricsKey = O;
unicode = 0050;
},
{
glyphname = Thorn;
lastChange = "2023-05-29 09:32:29 +0000";
layers = (
{
layerId = "6D97EE47-94AA-478E-ABFB-936E6C32B491";
paths = (
{
closed = 1;
nodes = (
"313 0 LINE",
"313 30 LINE",
"294 30 OFFCURVE",
"255 33 OFFCURVE",
"225 46 CURVE",
"225 512 LINE",
"237 514 OFFCURVE",
"249 515 OFFCURVE",
"262 515 CURVE SMOOTH",
"353 515 OFFCURVE",
"446 456 OFFCURVE",
"446 339 CURVE SMOOTH",
"446 260 OFFCURVE",
"391 200 OFFCURVE",
"268 194 CURVE",
"272 163 LINE",
"443 155 OFFCURVE",
"534 258 OFFCURVE",
"534 358 CURVE SMOOTH",
"534 477 OFFCURVE",
"422 561 OFFCURVE",
"284 561 CURVE SMOOTH",
"265 561 OFFCURVE",
"246 559 OFFCURVE",
"225 555 CURVE",
"225 661 LINE",
"255 674 OFFCURVE",
"294 677 OFFCURVE",
"313 677 CURVE",
"313 707 LINE",
"50 707 LINE",
"50 677 LINE",
"69 677 OFFCURVE",
"108 674 OFFCURVE",
"138 661 CURVE",
"138 46 LINE",
"108 33 OFFCURVE",
"69 30 OFFCURVE",
"50 30 CURVE",
"50 0 LINE"
);
}
);
width = 584;
}
);
leftKerningGroup = H;
leftMetricsKey = H;
rightKerningGroup = Thorn;
rightMetricsKey = P;
unicode = 00DE;
},
{
glyphname = Q;
lastChange = "2023-05-29 09:32:29 +0000";
layers = (
{
layerId = "6D97EE47-94AA-478E-ABFB-936E6C32B491";
paths = (
{
closed = 1;
nodes = (
"853 -168 LINE",
"743 -158 OFFCURVE",
"631 -90 OFFCURVE",
"543 7 CURVE",
"689 58 OFFCURVE",
"795 197 OFFCURVE",
"795 359 CURVE SMOOTH",
"795 561 OFFCURVE",
"627 721 OFFCURVE",
"424 721 CURVE SMOOTH",
"219 721 OFFCURVE",
"50 553 OFFCURVE",
"50 348 CURVE SMOOTH",
"50 149 OFFCURVE",
"213 -14 OFFCURVE",
"419 -14 CURVE SMOOTH",
"428 -14 OFFCURVE",
"436 -14 OFFCURVE",
"445 -13 CURVE",
"561 -136 OFFCURVE",
"685 -190 OFFCURVE",
"850 -200 CURVE"
);
},
{
closed = 1;
nodes = (
"276 41 OFFCURVE",
"141 216 OFFCURVE",
"141 390 CURVE SMOOTH",
"141 543 OFFCURVE",
"247 667 OFFCURVE",
"395 667 CURVE SMOOTH",
"566 667 OFFCURVE",
"702 496 OFFCURVE",
"702 319 CURVE SMOOTH",
"702 165 OFFCURVE",
"597 41 OFFCURVE",
"449 41 CURVE SMOOTH"
);
}
);
width = 833;
}
);
leftKerningGroup = O;
leftMetricsKey = O;
rightKerningGroup = O;
unicode = 0051;
},
{
glyphname = R;
lastChange = "2023-05-29 09:32:29 +0000";
layers = (
{
guideLines = (
{
angle = -84;
position = "{68, 530}";
},
{
angle = 73;
position = "{679, -111}";
}
);
layerId = "6D97EE47-94AA-478E-ABFB-936E6C32B491";
paths = (
{
closed = 1;
nodes = (
"713 0 LINE",
"626 33 OFFCURVE",
"590 65 OFFCURVE",
"541 128 CURVE SMOOTH",
"488 195 OFFCURVE",
"427 289 OFFCURVE",
"391 354 CURVE",
"504 402 OFFCURVE",
"544 482 OFFCURVE",
"544 548 CURVE SMOOTH",
"544 680 OFFCURVE",
"439 721 OFFCURVE",
"305 721 CURVE SMOOTH",
"230 721 OFFCURVE",
"146 712 OFFCURVE",
"50 704 CURVE",
"53 674 LINE",
"71 676 OFFCURVE",
"106 676 OFFCURVE",
"138 669 CURVE",
"138 46 LINE",
"108 33 OFFCURVE",
"69 30 OFFCURVE",
"50 30 CURVE",
"50 0 LINE",
"317 0 LINE",
"317 30 LINE",
"297 30 OFFCURVE",
"256 33 OFFCURVE",
"225 46 CURVE",
"225 317 LINE",
"256 320 OFFCURVE",
"284 324 OFFCURVE",
"309 330 CURVE",
"347 265 OFFCURVE",
"424 122 OFFCURVE",
"466 73 CURVE SMOOTH",
"519 12 OFFCURVE",
"566 -20 OFFCURVE",
"704 -29 CURVE"
);
},
{
closed = 1;
nodes = (
"225 677 LINE",
"358 694 OFFCURVE",
"457 642 OFFCURVE",
"457 524 CURVE SMOOTH",
"457 444 OFFCURVE",
"378 359 OFFCURVE",
"225 353 CURVE"
);
}
);
width = 707;
}
);
leftKerningGroup = H;
leftMetricsKey = H;
rightKerningGroup = R;
unicode = 0052;
},
{
glyphname = Racute;
lastChange = "2023-05-29 09:32:29 +0000";
layers = (
{
layerId = "6D97EE47-94AA-478E-ABFB-936E6C32B491";
paths = (
{
closed = 1;
nodes = (
"713 0 LINE",
"626 33 OFFCURVE",
"590 65 OFFCURVE",
"541 128 CURVE SMOOTH",
"488 195 OFFCURVE",
"427 289 OFFCURVE",
"391 354 CURVE",
"504 402 OFFCURVE",
"544 482 OFFCURVE",
"544 548 CURVE SMOOTH",
"544 680 OFFCURVE",
"439 721 OFFCURVE",
"305 721 CURVE SMOOTH",
"230 721 OFFCURVE",
"146 712 OFFCURVE",
"50 704 CURVE",
"53 674 LINE",
"71 676 OFFCURVE",
"106 676 OFFCURVE",
"138 669 CURVE",
"138 46 LINE",
"108 33 OFFCURVE",
"69 30 OFFCURVE",
"50 30 CURVE",
"50 0 LINE",
"317 0 LINE",
"317 30 LINE",
"297 30 OFFCURVE",
"256 33 OFFCURVE",
"225 46 CURVE",
"225 317 LINE",
"256 320 OFFCURVE",
"284 324 OFFCURVE",
"309 330 CURVE",
"347 265 OFFCURVE",
"424 122 OFFCURVE",
"466 73 CURVE SMOOTH",
"519 12 OFFCURVE",
"566 -20 OFFCURVE",
"704 -29 CURVE"
);
},
{
closed = 1;
nodes = (
"225 677 LINE",
"358 694 OFFCURVE",
"457 642 OFFCURVE",
"457 524 CURVE SMOOTH",
"457 444 OFFCURVE",
"378 359 OFFCURVE",
"225 353 CURVE"
);
},
{
closed = 1;
nodes = (
"468 864 LINE",
"433 924 LINE",
"227 805 LINE",
"241 781 LINE"
);
}
);
width = 707;
}
);
leftKerningGroup = H;
rightKerningGroup = R;
unicode = 0154;
},
{
glyphname = Rcaron;
lastChange = "2023-05-29 09:32:29 +0000";
layers = (
{
layerId = "6D97EE47-94AA-478E-ABFB-936E6C32B491";
paths = (
{
closed = 1;
nodes = (
"713 0 LINE",
"626 33 OFFCURVE",
"590 65 OFFCURVE",
"541 128 CURVE SMOOTH",
"488 195 OFFCURVE",
"427 289 OFFCURVE",
"391 354 CURVE",
"504 402 OFFCURVE",
"544 482 OFFCURVE",
"544 548 CURVE SMOOTH",
"544 680 OFFCURVE",
"439 721 OFFCURVE",
"305 721 CURVE SMOOTH",
"230 721 OFFCURVE",
"146 712 OFFCURVE",
"50 704 CURVE",
"53 674 LINE",
"71 676 OFFCURVE",
"106 676 OFFCURVE",
"138 669 CURVE",
"138 46 LINE",
"108 33 OFFCURVE",
"69 30 OFFCURVE",
"50 30 CURVE",
"50 0 LINE",
"317 0 LINE",
"317 30 LINE",
"297 30 OFFCURVE",
"256 33 OFFCURVE",
"225 46 CURVE",
"225 317 LINE",
"256 320 OFFCURVE",
"284 324 OFFCURVE",
"309 330 CURVE",
"347 265 OFFCURVE",
"424 122 OFFCURVE",
"466 73 CURVE SMOOTH",
"519 12 OFFCURVE",
"566 -20 OFFCURVE",
"704 -29 CURVE"
);
},
{
closed = 1;
nodes = (
"225 677 LINE",
"358 694 OFFCURVE",
"457 642 OFFCURVE",
"457 524 CURVE SMOOTH",
"457 444 OFFCURVE",
"378 359 OFFCURVE",
"225 353 CURVE"
);
},
{
closed = 1;
nodes = (
"302 796 LINE",
"463 932 LINE",
"444 955 LINE",
"290 867 LINE",
"136 955 LINE",
"117 932 LINE",
"278 796 LINE"
);
}
);
width = 707;
}
);
leftKerningGroup = H;
rightKerningGroup = R;
unicode = 0158;
},
{
glyphname = Rcommaaccent;
lastChange = "2023-05-29 09:32:29 +0000";
layers = (
{
layerId = "6D97EE47-94AA-478E-ABFB-936E6C32B491";
paths = (
{
closed = 1;
nodes = (
"713 0 LINE",
"626 33 OFFCURVE",
"590 65 OFFCURVE",
"541 128 CURVE SMOOTH",
"488 195 OFFCURVE",
"427 289 OFFCURVE",
"391 354 CURVE",
"504 402 OFFCURVE",
"544 482 OFFCURVE",
"544 548 CURVE SMOOTH",
"544 680 OFFCURVE",
"439 721 OFFCURVE",
"305 721 CURVE SMOOTH",
"230 721 OFFCURVE",
"146 712 OFFCURVE",
"50 704 CURVE",
"53 674 LINE",
"71 676 OFFCURVE",
"106 676 OFFCURVE",
"138 669 CURVE",
"138 46 LINE",
"108 33 OFFCURVE",
"69 30 OFFCURVE",
"50 30 CURVE",
"50 0 LINE",
"317 0 LINE",
"317 30 LINE",
"297 30 OFFCURVE",
"256 33 OFFCURVE",
"225 46 CURVE",
"225 317 LINE",
"256 320 OFFCURVE",
"284 324 OFFCURVE",
"309 330 CURVE",
"347 265 OFFCURVE",
"424 122 OFFCURVE",
"466 73 CURVE SMOOTH",
"519 12 OFFCURVE",
"566 -20 OFFCURVE",
"704 -29 CURVE"
);
},
{
closed = 1;
nodes = (
"391 -273 OFFCURVE",
"420 -185 OFFCURVE",
"414 -128 CURVE SMOOTH",
"411 -94 OFFCURVE",
"390 -70 OFFCURVE",
"359 -70 CURVE SMOOTH",
"327 -70 OFFCURVE",
"304 -97 OFFCURVE",
"304 -126 CURVE SMOOTH",
"304 -157 OFFCURVE",
"327 -180 OFFCURVE",
"359 -180 CURVE SMOOTH",
"360 -180 LINE",
"360 -228 OFFCURVE",
"337 -269 OFFCURVE",
"298 -298 CURVE",
"312 -317 LINE"
);
},
{
closed = 1;
nodes = (
"225 677 LINE",
"358 694 OFFCURVE",
"457 642 OFFCURVE",
"457 524 CURVE SMOOTH",
"457 444 OFFCURVE",
"378 359 OFFCURVE",
"225 353 CURVE"
);
}
);
width = 707;
}
);
leftKerningGroup = H;
rightKerningGroup = R;
unicode = 0156;
},
{
glyphname = S;
lastChange = "2023-05-29 09:32:29 +0000";
layers = (
{
layerId = "6D97EE47-94AA-478E-ABFB-936E6C32B491";
paths = (
{
closed = 1;
nodes = (
"401 -14 OFFCURVE",
"503 50 OFFCURVE",
"503 168 CURVE SMOOTH",
"503 400 OFFCURVE",
"179 402 OFFCURVE",
"179 560 CURVE SMOOTH",
"179 626 OFFCURVE",
"244 675 OFFCURVE",
"321 675 CURVE SMOOTH",
"405 675 OFFCURVE",
"445 620 OFFCURVE",
"456 536 CURVE",
"489 540 LINE",
"467 702 LINE",
"441 707 OFFCURVE",
"389 721 OFFCURVE",
"328 721 CURVE SMOOTH",
"197 721 OFFCURVE",
"91 660 OFFCURVE",
"91 537 CURVE SMOOTH",
"91 334 OFFCURVE",
"412 316 OFFCURVE",
"412 155 CURVE SMOOTH",
"412 79 OFFCURVE",
"350 33 OFFCURVE",
"262 33 CURVE SMOOTH",
"154 33 OFFCURVE",
"105 106 OFFCURVE",
"79 221 CURVE",
"46 215 LINE",
"77 23 LINE",
"83 15 OFFCURVE",
"178 -14 OFFCURVE",
"272 -14 CURVE SMOOTH"
);
}
);
width = 554;
}
);
leftKerningGroup = S;
rightKerningGroup = S;
unicode = 0053;
},
{
glyphname = Sacute;
lastChange = "2023-05-29 09:32:29 +0000";
layers = (
{
layerId = "6D97EE47-94AA-478E-ABFB-936E6C32B491";
paths = (
{
closed = 1;
nodes = (
"401 -14 OFFCURVE",
"503 50 OFFCURVE",
"503 168 CURVE SMOOTH",
"503 400 OFFCURVE",
"179 402 OFFCURVE",
"179 560 CURVE SMOOTH",
"179 626 OFFCURVE",
"244 675 OFFCURVE",
"321 675 CURVE SMOOTH",
"405 675 OFFCURVE",
"445 620 OFFCURVE",
"456 536 CURVE",
"489 540 LINE",
"467 702 LINE",
"441 707 OFFCURVE",
"389 721 OFFCURVE",
"328 721 CURVE SMOOTH",
"197 721 OFFCURVE",
"91 660 OFFCURVE",
"91 537 CURVE SMOOTH",
"91 334 OFFCURVE",
"412 316 OFFCURVE",
"412 155 CURVE SMOOTH",
"412 79 OFFCURVE",
"350 33 OFFCURVE",
"262 33 CURVE SMOOTH",
"154 33 OFFCURVE",
"105 106 OFFCURVE",
"79 221 CURVE",
"46 215 LINE",
"77 23 LINE",
"83 15 OFFCURVE",
"178 -14 OFFCURVE",
"272 -14 CURVE SMOOTH"
);
},
{
closed = 1;
nodes = (
"473 864 LINE",
"438 924 LINE",
"232 805 LINE",
"246 781 LINE"
);
}
);
width = 554;
}
);
leftKerningGroup = S;
rightKerningGroup = S;
unicode = 015A;
},
{
glyphname = Scaron;
lastChange = "2023-05-29 09:32:29 +0000";
layers = (
{
layerId = "6D97EE47-94AA-478E-ABFB-936E6C32B491";
paths = (
{
closed = 1;
nodes = (
"401 -14 OFFCURVE",
"503 50 OFFCURVE",
"503 168 CURVE SMOOTH",
"503 400 OFFCURVE",
"179 402 OFFCURVE",
"179 560 CURVE SMOOTH",
"179 626 OFFCURVE",
"244 675 OFFCURVE",
"321 675 CURVE SMOOTH",
"405 675 OFFCURVE",
"445 620 OFFCURVE",
"456 536 CURVE",
"489 540 LINE",
"467 702 LINE",
"441 707 OFFCURVE",
"389 721 OFFCURVE",
"328 721 CURVE SMOOTH",
"197 721 OFFCURVE",
"91 660 OFFCURVE",
"91 537 CURVE SMOOTH",
"91 334 OFFCURVE",
"412 316 OFFCURVE",
"412 155 CURVE SMOOTH",
"412 79 OFFCURVE",
"350 33 OFFCURVE",
"262 33 CURVE SMOOTH",
"154 33 OFFCURVE",
"105 106 OFFCURVE",
"79 221 CURVE",
"46 215 LINE",
"77 23 LINE",
"83 15 OFFCURVE",
"178 -14 OFFCURVE",
"272 -14 CURVE SMOOTH"
);
},
{
closed = 1;
nodes = (
"307 796 LINE",
"468 932 LINE",
"449 955 LINE",
"295 867 LINE",
"141 955 LINE",
"122 932 LINE",
"283 796 LINE"
);
}
);
width = 554;
}
);
leftKerningGroup = S;
rightKerningGroup = S;
unicode = 0160;
},
{
glyphname = Scedilla;
lastChange = "2023-05-29 09:32:29 +0000";
layers = (
{
layerId = "6D97EE47-94AA-478E-ABFB-936E6C32B491";
paths = (
{
closed = 1;
nodes = (
"332 -240 OFFCURVE",
"371 -206 OFFCURVE",
"371 -151 CURVE SMOOTH",
"371 -97 OFFCURVE",
"329 -66 OFFCURVE",
"292 -46 CURVE",
"310 -12 LINE",
"420 -1 OFFCURVE",
"503 62 OFFCURVE",
"503 168 CURVE SMOOTH",
"503 400 OFFCURVE",
"179 402 OFFCURVE",
"179 560 CURVE SMOOTH",
"179 626 OFFCURVE",
"244 675 OFFCURVE",
"321 675 CURVE SMOOTH",
"405 675 OFFCURVE",
"445 620 OFFCURVE",
"456 536 CURVE",
"489 540 LINE",
"467 702 LINE",
"441 707 OFFCURVE",
"389 721 OFFCURVE",
"328 721 CURVE SMOOTH",
"197 721 OFFCURVE",
"91 660 OFFCURVE",
"91 537 CURVE SMOOTH",
"91 334 OFFCURVE",
"412 316 OFFCURVE",
"412 155 CURVE SMOOTH",
"412 79 OFFCURVE",
"350 33 OFFCURVE",
"262 33 CURVE SMOOTH",
"154 33 OFFCURVE",
"105 106 OFFCURVE",
"79 221 CURVE",
"46 215 LINE",
"77 23 LINE",
"83 15 OFFCURVE",
"173 -13 OFFCURVE",
"265 -14 CURVE",
"230 -83 LINE",
"255 -88 OFFCURVE",
"309 -117 OFFCURVE",
"309 -162 CURVE SMOOTH",
"309 -187 OFFCURVE",
"292 -210 OFFCURVE",
"264 -210 CURVE SMOOTH",
"244 -210 OFFCURVE",
"220 -198 OFFCURVE",
"204 -181 CURVE",
"188 -197 LINE",
"206 -222 OFFCURVE",
"239 -240 OFFCURVE",
"276 -240 CURVE SMOOTH"
);
}
);
width = 554;
}
);
leftKerningGroup = S;
rightKerningGroup = S;
unicode = 015E;
},
{
glyphname = Scircumflex;
lastChange = "2023-05-29 09:32:29 +0000";
layers = (
{
layerId = "6D97EE47-94AA-478E-ABFB-936E6C32B491";
paths = (
{
closed = 1;
nodes = (
"401 -14 OFFCURVE",
"503 50 OFFCURVE",
"503 168 CURVE SMOOTH",
"503 400 OFFCURVE",
"179 402 OFFCURVE",
"179 560 CURVE SMOOTH",
"179 626 OFFCURVE",
"244 675 OFFCURVE",
"321 675 CURVE SMOOTH",
"405 675 OFFCURVE",
"445 620 OFFCURVE",
"456 536 CURVE",
"489 540 LINE",
"467 702 LINE",
"441 707 OFFCURVE",
"389 721 OFFCURVE",
"328 721 CURVE SMOOTH",
"197 721 OFFCURVE",
"91 660 OFFCURVE",
"91 537 CURVE SMOOTH",
"91 334 OFFCURVE",
"412 316 OFFCURVE",
"412 155 CURVE SMOOTH",
"412 79 OFFCURVE",
"350 33 OFFCURVE",
"262 33 CURVE SMOOTH",
"154 33 OFFCURVE",
"105 106 OFFCURVE",
"79 221 CURVE",
"46 215 LINE",
"77 23 LINE",
"83 15 OFFCURVE",
"178 -14 OFFCURVE",
"272 -14 CURVE SMOOTH"
);
},
{
closed = 1;
nodes = (
"292 877 LINE",
"446 789 LINE",
"465 812 LINE",
"304 948 LINE",
"280 948 LINE",
"119 812 LINE",
"138 789 LINE"
);
}
);
width = 554;
}
);
leftKerningGroup = S;
rightKerningGroup = S;
unicode = 015C;
},
{
glyphname = Scommaaccent;
lastChange = "2023-05-29 09:32:29 +0000";
layers = (
{
layerId = "6D97EE47-94AA-478E-ABFB-936E6C32B491";
paths = (
{
closed = 1;
nodes = (
"401 -14 OFFCURVE",
"503 50 OFFCURVE",
"503 168 CURVE SMOOTH",
"503 400 OFFCURVE",
"179 402 OFFCURVE",
"179 560 CURVE SMOOTH",
"179 626 OFFCURVE",
"244 675 OFFCURVE",
"321 675 CURVE SMOOTH",
"405 675 OFFCURVE",
"445 620 OFFCURVE",
"456 536 CURVE",
"489 540 LINE",
"467 702 LINE",
"441 707 OFFCURVE",
"389 721 OFFCURVE",
"328 721 CURVE SMOOTH",
"197 721 OFFCURVE",
"91 660 OFFCURVE",
"91 537 CURVE SMOOTH",
"91 334 OFFCURVE",
"412 316 OFFCURVE",
"412 155 CURVE SMOOTH",
"412 79 OFFCURVE",
"350 33 OFFCURVE",
"262 33 CURVE SMOOTH",
"154 33 OFFCURVE",
"105 106 OFFCURVE",
"79 221 CURVE",
"46 215 LINE",
"77 23 LINE",
"83 15 OFFCURVE",
"178 -14 OFFCURVE",
"272 -14 CURVE SMOOTH"
);
},
{
closed = 1;
nodes = (
"317 -273 OFFCURVE",
"346 -185 OFFCURVE",
"340 -128 CURVE SMOOTH",
"337 -94 OFFCURVE",
"316 -70 OFFCURVE",
"285 -70 CURVE SMOOTH",
"253 -70 OFFCURVE",
"230 -97 OFFCURVE",
"230 -126 CURVE SMOOTH",
"230 -157 OFFCURVE",
"253 -180 OFFCURVE",
"285 -180 CURVE SMOOTH",
"286 -180 LINE",
"286 -228 OFFCURVE",
"263 -269 OFFCURVE",
"224 -298 CURVE",
"238 -317 LINE"
);
}
);
width = 554;
}
);
leftKerningGroup = S;
rightKerningGroup = S;
unicode = 0218;
},
{
glyphname = Germandbls;
lastChange = "2023-05-29 09:32:29 +0000";
layers = (
{
layerId = "6D97EE47-94AA-478E-ABFB-936E6C32B491";
paths = (
{
closed = 1;
nodes = (
"638 -14 OFFCURVE",
"713 67 OFFCURVE",
"713 170 CURVE SMOOTH",
"713 283 OFFCURVE",
"610 374 OFFCURVE",
"498 456 CURVE",
"604 625 LINE",
"533 692 OFFCURVE",
"465 721 OFFCURVE",
"374 721 CURVE SMOOTH",
"314 721 OFFCURVE",
"246 698 OFFCURVE",
"199 653 CURVE SMOOTH",
"120 577 OFFCURVE",
"116 472 OFFCURVE",
"116 379 CURVE SMOOTH",
"116 46 LINE",
"86 33 OFFCURVE",
"47 30 OFFCURVE",
"28 30 CURVE",
"28 0 LINE",
"283 0 LINE",
"283 30 LINE",
"266 30 OFFCURVE",
"231 33 OFFCURVE",
"204 46 CURVE",
"204 418 LINE SMOOTH",
"204 561 OFFCURVE",
"219 671 OFFCURVE",
"350 671 CURVE SMOOTH",
"425 671 OFFCURVE",
"480 627 OFFCURVE",
"524 574 CURVE",
"415 397 LINE",
"536 305 OFFCURVE",
"638 232 OFFCURVE",
"638 141 CURVE SMOOTH",
"638 80 OFFCURVE",
"588 32 OFFCURVE",
"520 32 CURVE SMOOTH",
"438 32 OFFCURVE",
"381 110 OFFCURVE",
"359 219 CURVE",
"325 212 LINE",
"355 24 LINE",
"384 6 OFFCURVE",
"458 -14 OFFCURVE",
"504 -14 CURVE SMOOTH"
);
}
);
width = 738;
}
);
leftKerningGroup = H;
rightKerningGroup = B;
rightMetricsKey = B;
unicode = 1E9E;
},
{
glyphname = Schwa;
lastChange = "2023-05-29 09:32:29 +0000";
layers = (
{
layerId = "6D97EE47-94AA-478E-ABFB-936E6C32B491";
paths = (
{
closed = 1;
nodes = (
"533 -14 OFFCURVE",
"684 118 OFFCURVE",
"684 360 CURVE SMOOTH",
"684 562 OFFCURVE",
"527 721 OFFCURVE",
"324 721 CURVE SMOOTH",
"192 721 OFFCURVE",
"108 647 OFFCURVE",
"78 609 CURVE",
"108 580 LINE",
"142 613 OFFCURVE",
"216 667 OFFCURVE",
"301 667 CURVE SMOOTH",
"467 667 OFFCURVE",
"593 507 OFFCURVE",
"593 319 CURVE SMOOTH",
"593 309 OFFCURVE",
"593 299 OFFCURVE",
"592 289 CURVE",
"42 289 LINE",
"22 108 OFFCURVE",
"168 -14 OFFCURVE",
"345 -14 CURVE SMOOTH"
);
},
{
closed = 1;
nodes = (
"223 34 OFFCURVE",
"143 153 OFFCURVE",
"143 238 CURVE",
"585 238 LINE",
"563 125 OFFCURVE",
"491 34 OFFCURVE",
"347 34 CURVE SMOOTH"
);
}
);
width = 734;
}
);
leftKerningGroup = Schwa;
rightKerningGroup = O;
rightMetricsKey = O;
unicode = 018F;
},
{
glyphname = T;
lastChange = "2023-05-29 09:32:29 +0000";
layers = (
{
layerId = "6D97EE47-94AA-478E-ABFB-936E6C32B491";
paths = (
{
closed = 1;
nodes = (
"450 0 LINE",
"450 30 LINE",
"431 30 OFFCURVE",
"392 33 OFFCURVE",
"362 46 CURVE",
"362 656 LINE",
"567 656 LINE",
"573 610 OFFCURVE",
"572 570 OFFCURVE",
"571 531 CURVE",
"602 528 LINE",
"628 707 LINE",
"10 707 LINE",
"10 531 LINE",
"42 531 LINE",
"48 571 OFFCURVE",
"54 612 OFFCURVE",
"66 656 CURVE",
"275 656 LINE",
"275 46 LINE",
"245 33 OFFCURVE",
"206 30 OFFCURVE",
"187 30 CURVE",
"187 0 LINE"
);
}
);
width = 638;
}
);
leftKerningGroup = T;
rightKerningGroup = T;
unicode = 0054;
},
{
glyphname = Tbar;
lastChange = "2023-05-29 09:32:29 +0000";
layers = (
{
layerId = "6D97EE47-94AA-478E-ABFB-936E6C32B491";
paths = (
{
closed = 1;
nodes = (
"450 0 LINE",
"450 30 LINE",
"431 30 OFFCURVE",
"392 33 OFFCURVE",
"362 46 CURVE",
"362 339 LINE",
"494 339 LINE",
"494 381 LINE",
"362 381 LINE",
"362 656 LINE",
"567 656 LINE",
"573 610 OFFCURVE",
"572 570 OFFCURVE",
"571 531 CURVE",
"602 528 LINE",
"628 707 LINE",
"10 707 LINE",
"10 531 LINE",
"42 531 LINE",
"48 571 OFFCURVE",
"54 612 OFFCURVE",
"66 656 CURVE",
"275 656 LINE",
"275 381 LINE",
"144 381 LINE",
"144 339 LINE",
"275 339 LINE",
"275 46 LINE",
"245 33 OFFCURVE",
"206 30 OFFCURVE",
"187 30 CURVE",
"187 0 LINE"
);
}
);
width = 638;
}
);
leftKerningGroup = T;
leftMetricsKey = T;
rightKerningGroup = T;
rightMetricsKey = T;
unicode = 0166;
},
{
glyphname = Tcaron;
lastChange = "2023-05-29 09:32:29 +0000";
layers = (
{
layerId = "6D97EE47-94AA-478E-ABFB-936E6C32B491";
paths = (
{
closed = 1;
nodes = (
"450 0 LINE",
"450 30 LINE",
"431 30 OFFCURVE",
"392 33 OFFCURVE",
"362 46 CURVE",
"362 656 LINE",
"567 656 LINE",
"573 610 OFFCURVE",
"572 570 OFFCURVE",
"571 531 CURVE",
"602 528 LINE",
"628 707 LINE",
"10 707 LINE",
"10 531 LINE",
"42 531 LINE",
"48 571 OFFCURVE",
"54 612 OFFCURVE",
"66 656 CURVE",
"275 656 LINE",
"275 46 LINE",
"245 33 OFFCURVE",
"206 30 OFFCURVE",
"187 30 CURVE",
"187 0 LINE"
);
},
{
closed = 1;
nodes = (
"334 796 LINE",
"495 932 LINE",
"476 955 LINE",
"322 867 LINE",
"168 955 LINE",
"149 932 LINE",
"310 796 LINE"
);
}
);
width = 638;
}
);
leftKerningGroup = T;
rightKerningGroup = T;
unicode = 0164;
},
{
glyphname = Tcedilla;
lastChange = "2023-05-29 09:32:29 +0000";
layers = (
{
layerId = "6D97EE47-94AA-478E-ABFB-936E6C32B491";
paths = (
{
closed = 1;
nodes = (
"369 -240 OFFCURVE",
"408 -206 OFFCURVE",
"408 -151 CURVE SMOOTH",
"408 -97 OFFCURVE",
"366 -66 OFFCURVE",
"329 -46 CURVE",
"353 0 LINE",
"450 0 LINE",
"450 30 LINE",
"431 30 OFFCURVE",
"392 33 OFFCURVE",
"362 46 CURVE",
"362 656 LINE",
"567 656 LINE",
"573 610 OFFCURVE",
"572 570 OFFCURVE",
"571 531 CURVE",
"602 528 LINE",
"628 707 LINE",
"10 707 LINE",
"10 531 LINE",
"42 531 LINE",
"48 571 OFFCURVE",
"54 612 OFFCURVE",
"66 656 CURVE",
"275 656 LINE",
"275 46 LINE",
"245 33 OFFCURVE",
"206 30 OFFCURVE",
"187 30 CURVE",
"187 0 LINE",
"309 0 LINE",
"267 -83 LINE",
"292 -88 OFFCURVE",
"346 -117 OFFCURVE",
"346 -162 CURVE SMOOTH",
"346 -187 OFFCURVE",
"329 -210 OFFCURVE",
"301 -210 CURVE SMOOTH",
"281 -210 OFFCURVE",
"257 -198 OFFCURVE",
"241 -181 CURVE",
"225 -197 LINE",
"243 -222 OFFCURVE",
"276 -240 OFFCURVE",
"313 -240 CURVE SMOOTH"
);
}
);
width = 638;
}
);
leftKerningGroup = T;
rightKerningGroup = T;
unicode = 0162;
},
{
glyphname = Tcommaaccent;
lastChange = "2023-05-29 09:32:29 +0000";
layers = (
{
layerId = "6D97EE47-94AA-478E-ABFB-936E6C32B491";
paths = (
{
closed = 1;
nodes = (
"450 0 LINE",
"450 30 LINE",
"431 30 OFFCURVE",
"392 33 OFFCURVE",
"362 46 CURVE",
"362 656 LINE",
"567 656 LINE",
"573 610 OFFCURVE",
"572 570 OFFCURVE",
"571 531 CURVE",
"602 528 LINE",
"628 707 LINE",
"10 707 LINE",
"10 531 LINE",
"42 531 LINE",
"48 571 OFFCURVE",
"54 612 OFFCURVE",
"66 656 CURVE",
"275 656 LINE",
"275 46 LINE",
"245 33 OFFCURVE",
"206 30 OFFCURVE",
"187 30 CURVE",
"187 0 LINE"
);
},
{
closed = 1;
nodes = (
"354 -273 OFFCURVE",
"383 -185 OFFCURVE",
"377 -128 CURVE SMOOTH",
"374 -94 OFFCURVE",
"353 -70 OFFCURVE",
"322 -70 CURVE SMOOTH",
"290 -70 OFFCURVE",
"267 -97 OFFCURVE",
"267 -126 CURVE SMOOTH",
"267 -157 OFFCURVE",
"290 -180 OFFCURVE",
"322 -180 CURVE SMOOTH",
"323 -180 LINE",
"323 -228 OFFCURVE",
"300 -269 OFFCURVE",
"261 -298 CURVE",
"275 -317 LINE"
);
}
);
width = 638;
}
);
leftKerningGroup = T;
rightKerningGroup = T;
unicode = 021A;
},
{
glyphname = Tdotbelow;
lastChange = "2023-05-29 09:32:29 +0000";
layers = (
{
layerId = "6D97EE47-94AA-478E-ABFB-936E6C32B491";
paths = (
{
closed = 1;
nodes = (
"450 0 LINE",
"450 30 LINE",
"431 30 OFFCURVE",
"392 33 OFFCURVE",
"362 46 CURVE",
"362 656 LINE",
"567 656 LINE",
"573 610 OFFCURVE",
"572 570 OFFCURVE",
"571 531 CURVE",
"602 528 LINE",
"628 707 LINE",
"10 707 LINE",
"10 531 LINE",
"42 531 LINE",
"48 571 OFFCURVE",
"54 612 OFFCURVE",
"66 656 CURVE",
"275 656 LINE",
"275 46 LINE",
"245 33 OFFCURVE",
"206 30 OFFCURVE",
"187 30 CURVE",
"187 0 LINE"
);
},
{
closed = 1;
nodes = (
"350 -181 OFFCURVE",
"374 -155 OFFCURVE",
"374 -125 CURVE SMOOTH",
"374 -94 OFFCURVE",
"350 -70 OFFCURVE",
"318 -70 CURVE SMOOTH",
"286 -70 OFFCURVE",
"263 -97 OFFCURVE",
"263 -126 CURVE SMOOTH",
"263 -157 OFFCURVE",
"286 -181 OFFCURVE",
"318 -181 CURVE SMOOTH"
);
}
);
width = 638;
}
);
leftKerningGroup = T;
rightKerningGroup = T;
unicode = 1E6C;
},
{
glyphname = U;
lastChange = "2023-05-29 09:32:29 +0000";
layers = (
{
layerId = "6D97EE47-94AA-478E-ABFB-936E6C32B491";
paths = (
{
closed = 1;
nodes = (
"506 -14 OFFCURVE",
"647 15 OFFCURVE",
"688 139 CURVE SMOOTH",
"708 199 OFFCURVE",
"706 306 OFFCURVE",
"706 393 CURVE SMOOTH",
"706 661 LINE",
"736 674 OFFCURVE",
"775 677 OFFCURVE",
"794 677 CURVE",
"794 707 LINE",
"562 707 LINE",
"562 677 LINE",
"581 677 OFFCURVE",
"620 674 OFFCURVE",
"650 661 CURVE",
"650 400 LINE SMOOTH",
"650 305 OFFCURVE",
"653 218 OFFCURVE",
"637 162 CURVE SMOOTH",
"611 76 OFFCURVE",
"528 38 OFFCURVE",
"433 38 CURVE SMOOTH",
"335 38 OFFCURVE",
"263 97 OFFCURVE",
"240 166 CURVE SMOOTH",
"223 220 OFFCURVE",
"225 338 OFFCURVE",
"225 389 CURVE SMOOTH",
"225 661 LINE",
"255 674 OFFCURVE",
"294 677 OFFCURVE",
"313 677 CURVE",
"313 707 LINE",
"50 707 LINE",
"50 677 LINE",
"69 677 OFFCURVE",
"108 674 OFFCURVE",
"138 661 CURVE",
"138 384 LINE SMOOTH",
"138 281 OFFCURVE",
"139 192 OFFCURVE",
"163 134 CURVE SMOOTH",
"213 18 OFFCURVE",
"340 -14 OFFCURVE",
"423 -14 CURVE SMOOTH"
);
}
);
width = 834;
}
);
leftKerningGroup = U;
leftMetricsKey = H;
rightKerningGroup = U;
rightMetricsKey = "=H-10";
unicode = 0055;
},
{
glyphname = Uacute;
lastChange = "2023-05-29 09:32:29 +0000";
layers = (
{
layerId = "6D97EE47-94AA-478E-ABFB-936E6C32B491";
paths = (
{
closed = 1;
nodes = (
"506 -14 OFFCURVE",
"647 15 OFFCURVE",
"688 139 CURVE SMOOTH",
"708 199 OFFCURVE",
"706 306 OFFCURVE",
"706 393 CURVE SMOOTH",
"706 661 LINE",
"736 674 OFFCURVE",
"775 677 OFFCURVE",
"794 677 CURVE",
"794 707 LINE",
"562 707 LINE",
"562 677 LINE",
"581 677 OFFCURVE",
"620 674 OFFCURVE",
"650 661 CURVE",
"650 400 LINE SMOOTH",
"650 305 OFFCURVE",
"653 218 OFFCURVE",
"637 162 CURVE SMOOTH",
"611 76 OFFCURVE",
"528 38 OFFCURVE",
"433 38 CURVE SMOOTH",
"335 38 OFFCURVE",
"263 97 OFFCURVE",
"240 166 CURVE SMOOTH",
"223 220 OFFCURVE",
"225 338 OFFCURVE",
"225 389 CURVE SMOOTH",
"225 661 LINE",
"255 674 OFFCURVE",
"294 677 OFFCURVE",
"313 677 CURVE",
"313 707 LINE",
"50 707 LINE",
"50 677 LINE",
"69 677 OFFCURVE",
"108 674 OFFCURVE",
"138 661 CURVE",
"138 384 LINE SMOOTH",
"138 281 OFFCURVE",
"139 192 OFFCURVE",
"163 134 CURVE SMOOTH",
"213 18 OFFCURVE",
"340 -14 OFFCURVE",
"423 -14 CURVE SMOOTH"
);
},
{
closed = 1;
nodes = (
"617 864 LINE",
"582 924 LINE",
"376 805 LINE",
"390 781 LINE"
);
}
);
width = 834;
}
);
leftKerningGroup = U;
rightKerningGroup = U;
unicode = 00DA;
},
{
glyphname = Ubreve;
lastChange = "2023-05-29 09:32:30 +0000";
layers = (
{
layerId = "6D97EE47-94AA-478E-ABFB-936E6C32B491";
paths = (
{
closed = 1;
nodes = (
"506 -14 OFFCURVE",
"647 15 OFFCURVE",
"688 139 CURVE SMOOTH",
"708 199 OFFCURVE",
"706 306 OFFCURVE",
"706 393 CURVE SMOOTH",
"706 661 LINE",
"736 674 OFFCURVE",
"775 677 OFFCURVE",
"794 677 CURVE",
"794 707 LINE",
"562 707 LINE",
"562 677 LINE",
"581 677 OFFCURVE",
"620 674 OFFCURVE",
"650 661 CURVE",
"650 400 LINE SMOOTH",
"650 305 OFFCURVE",
"653 218 OFFCURVE",
"637 162 CURVE SMOOTH",
"611 76 OFFCURVE",
"528 38 OFFCURVE",
"433 38 CURVE SMOOTH",
"335 38 OFFCURVE",
"263 97 OFFCURVE",
"240 166 CURVE SMOOTH",
"223 220 OFFCURVE",
"225 338 OFFCURVE",
"225 389 CURVE SMOOTH",
"225 661 LINE",
"255 674 OFFCURVE",
"294 677 OFFCURVE",
"313 677 CURVE",
"313 707 LINE",
"50 707 LINE",
"50 677 LINE",
"69 677 OFFCURVE",
"108 674 OFFCURVE",
"138 661 CURVE",
"138 384 LINE SMOOTH",
"138 281 OFFCURVE",
"139 192 OFFCURVE",
"163 134 CURVE SMOOTH",
"213 18 OFFCURVE",
"340 -14 OFFCURVE",
"423 -14 CURVE SMOOTH"
);
},
{
closed = 1;
nodes = (
"493 811 OFFCURVE",
"553 837 OFFCURVE",
"586 923 CURVE",
"563 935 LINE",
"529 883 OFFCURVE",
"479 877 OFFCURVE",
"436 877 CURVE SMOOTH",
"391 877 OFFCURVE",
"344 883 OFFCURVE",
"309 935 CURVE",
"286 923 LINE",
"318 837 OFFCURVE",
"380 809 OFFCURVE",
"436 810 CURVE SMOOTH"
);
}
);
width = 834;
}
);
leftKerningGroup = U;
rightKerningGroup = U;
unicode = 016C;
},
{
glyphname = Ucircumflex;
lastChange = "2023-05-29 09:32:30 +0000";
layers = (
{
layerId = "6D97EE47-94AA-478E-ABFB-936E6C32B491";
paths = (
{
closed = 1;
nodes = (
"506 -14 OFFCURVE",
"647 15 OFFCURVE",
"688 139 CURVE SMOOTH",
"708 199 OFFCURVE",
"706 306 OFFCURVE",
"706 393 CURVE SMOOTH",
"706 661 LINE",
"736 674 OFFCURVE",
"775 677 OFFCURVE",
"794 677 CURVE",
"794 707 LINE",
"562 707 LINE",
"562 677 LINE",
"581 677 OFFCURVE",
"620 674 OFFCURVE",
"650 661 CURVE",
"650 400 LINE SMOOTH",
"650 305 OFFCURVE",
"653 218 OFFCURVE",
"637 162 CURVE SMOOTH",
"611 76 OFFCURVE",
"528 38 OFFCURVE",
"433 38 CURVE SMOOTH",
"335 38 OFFCURVE",
"263 97 OFFCURVE",
"240 166 CURVE SMOOTH",
"223 220 OFFCURVE",
"225 338 OFFCURVE",
"225 389 CURVE SMOOTH",
"225 661 LINE",
"255 674 OFFCURVE",
"294 677 OFFCURVE",
"313 677 CURVE",
"313 707 LINE",
"50 707 LINE",
"50 677 LINE",
"69 677 OFFCURVE",
"108 674 OFFCURVE",
"138 661 CURVE",
"138 384 LINE SMOOTH",
"138 281 OFFCURVE",
"139 192 OFFCURVE",
"163 134 CURVE SMOOTH",
"213 18 OFFCURVE",
"340 -14 OFFCURVE",
"423 -14 CURVE SMOOTH"
);
},
{
closed = 1;
nodes = (
"436 877 LINE",
"590 789 LINE",
"609 812 LINE",
"448 948 LINE",
"424 948 LINE",
"263 812 LINE",
"282 789 LINE"
);
}
);
width = 834;
}
);
leftKerningGroup = U;
rightKerningGroup = U;
unicode = 00DB;
},
{
glyphname = Udieresis;
lastChange = "2023-05-29 09:32:30 +0000";
layers = (
{
layerId = "6D97EE47-94AA-478E-ABFB-936E6C32B491";
paths = (
{
closed = 1;
nodes = (
"506 -14 OFFCURVE",
"647 15 OFFCURVE",
"688 139 CURVE SMOOTH",
"708 199 OFFCURVE",
"706 306 OFFCURVE",
"706 393 CURVE SMOOTH",
"706 661 LINE",
"736 674 OFFCURVE",
"775 677 OFFCURVE",
"794 677 CURVE",
"794 707 LINE",
"562 707 LINE",
"562 677 LINE",
"581 677 OFFCURVE",
"620 674 OFFCURVE",
"650 661 CURVE",
"650 400 LINE SMOOTH",
"650 305 OFFCURVE",
"653 218 OFFCURVE",
"637 162 CURVE SMOOTH",
"611 76 OFFCURVE",
"528 38 OFFCURVE",
"433 38 CURVE SMOOTH",
"335 38 OFFCURVE",
"263 97 OFFCURVE",
"240 166 CURVE SMOOTH",
"223 220 OFFCURVE",
"225 338 OFFCURVE",
"225 389 CURVE SMOOTH",
"225 661 LINE",
"255 674 OFFCURVE",
"294 677 OFFCURVE",
"313 677 CURVE",
"313 707 LINE",
"50 707 LINE",
"50 677 LINE",
"69 677 OFFCURVE",
"108 674 OFFCURVE",
"138 661 CURVE",
"138 384 LINE SMOOTH",
"138 281 OFFCURVE",
"139 192 OFFCURVE",
"163 134 CURVE SMOOTH",
"213 18 OFFCURVE",
"340 -14 OFFCURVE",
"423 -14 CURVE SMOOTH"
);
},
{
closed = 1;
nodes = (
"373 800 OFFCURVE",
"395 823 OFFCURVE",
"395 850 CURVE SMOOTH",
"395 877 OFFCURVE",
"373 898 OFFCURVE",
"345 898 CURVE SMOOTH",
"317 898 OFFCURVE",
"296 875 OFFCURVE",
"296 848 CURVE SMOOTH",
"296 821 OFFCURVE",
"317 800 OFFCURVE",
"345 800 CURVE SMOOTH"
);
},
{
closed = 1;
nodes = (
"554 800 OFFCURVE",
"576 823 OFFCURVE",
"576 850 CURVE SMOOTH",
"576 877 OFFCURVE",
"554 898 OFFCURVE",
"526 898 CURVE SMOOTH",
"498 898 OFFCURVE",
"477 875 OFFCURVE",
"477 848 CURVE SMOOTH",
"477 821 OFFCURVE",
"498 800 OFFCURVE",
"526 800 CURVE SMOOTH"
);
}
);
width = 834;
}
);
leftKerningGroup = U;
rightKerningGroup = U;
unicode = 00DC;
},
{
glyphname = Udotbelow;
lastChange = "2023-05-29 09:32:30 +0000";
layers = (
{
layerId = "6D97EE47-94AA-478E-ABFB-936E6C32B491";
paths = (
{
closed = 1;
nodes = (
"506 -14 OFFCURVE",
"647 15 OFFCURVE",
"688 139 CURVE SMOOTH",
"708 199 OFFCURVE",
"706 306 OFFCURVE",
"706 393 CURVE SMOOTH",
"706 661 LINE",
"736 674 OFFCURVE",
"775 677 OFFCURVE",
"794 677 CURVE",
"794 707 LINE",
"562 707 LINE",
"562 677 LINE",
"581 677 OFFCURVE",
"620 674 OFFCURVE",
"650 661 CURVE",
"650 400 LINE SMOOTH",
"650 305 OFFCURVE",
"653 218 OFFCURVE",
"637 162 CURVE SMOOTH",
"611 76 OFFCURVE",
"528 38 OFFCURVE",
"433 38 CURVE SMOOTH",
"335 38 OFFCURVE",
"263 97 OFFCURVE",
"240 166 CURVE SMOOTH",
"223 220 OFFCURVE",
"225 338 OFFCURVE",
"225 389 CURVE SMOOTH",
"225 661 LINE",
"255 674 OFFCURVE",
"294 677 OFFCURVE",
"313 677 CURVE",
"313 707 LINE",
"50 707 LINE",
"50 677 LINE",
"69 677 OFFCURVE",
"108 674 OFFCURVE",
"138 661 CURVE",
"138 384 LINE SMOOTH",
"138 281 OFFCURVE",
"139 192 OFFCURVE",
"163 134 CURVE SMOOTH",
"213 18 OFFCURVE",
"340 -14 OFFCURVE",
"423 -14 CURVE SMOOTH"
);
},
{
closed = 1;
nodes = (
"468 -181 OFFCURVE",
"492 -155 OFFCURVE",
"492 -125 CURVE SMOOTH",
"492 -94 OFFCURVE",
"468 -70 OFFCURVE",
"436 -70 CURVE SMOOTH",
"404 -70 OFFCURVE",
"381 -97 OFFCURVE",
"381 -126 CURVE SMOOTH",
"381 -157 OFFCURVE",
"404 -181 OFFCURVE",
"436 -181 CURVE SMOOTH"
);
}
);
width = 834;
}
);
leftKerningGroup = U;
rightKerningGroup = U;
unicode = 1EE4;
},
{
glyphname = Ugrave;
lastChange = "2023-05-29 09:32:30 +0000";
layers = (
{
layerId = "6D97EE47-94AA-478E-ABFB-936E6C32B491";
paths = (
{
closed = 1;
nodes = (
"506 -14 OFFCURVE",
"647 15 OFFCURVE",
"688 139 CURVE SMOOTH",
"708 199 OFFCURVE",
"706 306 OFFCURVE",
"706 393 CURVE SMOOTH",
"706 661 LINE",
"736 674 OFFCURVE",
"775 677 OFFCURVE",
"794 677 CURVE",
"794 707 LINE",
"562 707 LINE",
"562 677 LINE",
"581 677 OFFCURVE",
"620 674 OFFCURVE",
"650 661 CURVE",
"650 400 LINE SMOOTH",
"650 305 OFFCURVE",
"653 218 OFFCURVE",
"637 162 CURVE SMOOTH",
"611 76 OFFCURVE",
"528 38 OFFCURVE",
"433 38 CURVE SMOOTH",
"335 38 OFFCURVE",
"263 97 OFFCURVE",
"240 166 CURVE SMOOTH",
"223 220 OFFCURVE",
"225 338 OFFCURVE",
"225 389 CURVE SMOOTH",
"225 661 LINE",
"255 674 OFFCURVE",
"294 677 OFFCURVE",
"313 677 CURVE",
"313 707 LINE",
"50 707 LINE",
"50 677 LINE",
"69 677 OFFCURVE",
"108 674 OFFCURVE",
"138 661 CURVE",
"138 384 LINE SMOOTH",
"138 281 OFFCURVE",
"139 192 OFFCURVE",
"163 134 CURVE SMOOTH",
"213 18 OFFCURVE",
"340 -14 OFFCURVE",
"423 -14 CURVE SMOOTH"
);
},
{
closed = 1;
nodes = (
"516 813 LINE",
"310 932 LINE",
"275 872 LINE",
"502 789 LINE"
);
}
);
width = 834;
}
);
leftKerningGroup = U;
rightKerningGroup = U;
unicode = 00D9;
},
{
glyphname = Uhungarumlaut;
lastChange = "2023-05-29 09:32:30 +0000";
layers = (
{
layerId = "6D97EE47-94AA-478E-ABFB-936E6C32B491";
paths = (
{
closed = 1;
nodes = (
"506 -14 OFFCURVE",
"647 15 OFFCURVE",
"688 139 CURVE SMOOTH",
"708 199 OFFCURVE",
"706 306 OFFCURVE",
"706 393 CURVE SMOOTH",
"706 661 LINE",
"736 674 OFFCURVE",
"775 677 OFFCURVE",
"794 677 CURVE",
"794 707 LINE",
"562 707 LINE",
"562 677 LINE",
"581 677 OFFCURVE",
"620 674 OFFCURVE",
"650 661 CURVE",
"650 400 LINE SMOOTH",
"650 305 OFFCURVE",
"653 218 OFFCURVE",
"637 162 CURVE SMOOTH",
"611 76 OFFCURVE",
"528 38 OFFCURVE",
"433 38 CURVE SMOOTH",
"335 38 OFFCURVE",
"263 97 OFFCURVE",
"240 166 CURVE SMOOTH",
"223 220 OFFCURVE",
"225 338 OFFCURVE",
"225 389 CURVE SMOOTH",
"225 661 LINE",
"255 674 OFFCURVE",
"294 677 OFFCURVE",
"313 677 CURVE",
"313 707 LINE",
"50 707 LINE",
"50 677 LINE",
"69 677 OFFCURVE",
"108 674 OFFCURVE",
"138 661 CURVE",
"138 384 LINE SMOOTH",
"138 281 OFFCURVE",
"139 192 OFFCURVE",
"163 134 CURVE SMOOTH",
"213 18 OFFCURVE",
"340 -14 OFFCURVE",
"423 -14 CURVE SMOOTH"
);
},
{
closed = 1;
nodes = (
"502 926 LINE",
"445 970 LINE",
"338 801 LINE",
"362 781 LINE"
);
},
{
closed = 1;
nodes = (
"647 934 LINE",
"590 978 LINE",
"483 809 LINE",
"507 789 LINE"
);
}
);
width = 834;
}
);
leftKerningGroup = U;
rightKerningGroup = U;
unicode = 0170;
},
{
glyphname = Umacron;
lastChange = "2023-05-29 09:32:30 +0000";
layers = (
{
layerId = "6D97EE47-94AA-478E-ABFB-936E6C32B491";
paths = (
{
closed = 1;
nodes = (
"506 -14 OFFCURVE",
"647 15 OFFCURVE",
"688 139 CURVE SMOOTH",
"708 199 OFFCURVE",
"706 306 OFFCURVE",
"706 393 CURVE SMOOTH",
"706 661 LINE",
"736 674 OFFCURVE",
"775 677 OFFCURVE",
"794 677 CURVE",
"794 707 LINE",
"562 707 LINE",
"562 677 LINE",
"581 677 OFFCURVE",
"620 674 OFFCURVE",
"650 661 CURVE",
"650 400 LINE SMOOTH",
"650 305 OFFCURVE",
"653 218 OFFCURVE",
"637 162 CURVE SMOOTH",
"611 76 OFFCURVE",
"528 38 OFFCURVE",
"433 38 CURVE SMOOTH",
"335 38 OFFCURVE",
"263 97 OFFCURVE",
"240 166 CURVE SMOOTH",
"223 220 OFFCURVE",
"225 338 OFFCURVE",
"225 389 CURVE SMOOTH",
"225 661 LINE",
"255 674 OFFCURVE",
"294 677 OFFCURVE",
"313 677 CURVE",
"313 707 LINE",
"50 707 LINE",
"50 677 LINE",
"69 677 OFFCURVE",
"108 674 OFFCURVE",
"138 661 CURVE",
"138 384 LINE SMOOTH",
"138 281 OFFCURVE",
"139 192 OFFCURVE",
"163 134 CURVE SMOOTH",
"213 18 OFFCURVE",
"340 -14 OFFCURVE",
"423 -14 CURVE SMOOTH"
);
},
{
closed = 1;
nodes = (
"606 806 LINE",
"606 854 LINE",
"266 854 LINE",
"266 806 LINE"
);
}
);
width = 834;
}
);
leftKerningGroup = U;
rightKerningGroup = U;
unicode = 016A;
},
{
glyphname = Uogonek;
lastChange = "2023-05-29 09:32:30 +0000";
layers = (
{
layerId = "6D97EE47-94AA-478E-ABFB-936E6C32B491";
paths = (
{
closed = 1;
nodes = (
"465 -240 OFFCURVE",
"506 -218 OFFCURVE",
"529 -190 CURVE",
"518 -174 LINE",
"507 -183 OFFCURVE",
"488 -192 OFFCURVE",
"469 -192 CURVE SMOOTH",
"434 -192 OFFCURVE",
"414 -168 OFFCURVE",
"414 -135 CURVE SMOOTH",
"414 -98 OFFCURVE",
"442 -54 OFFCURVE",
"488 -8 CURVE",
"566 5 OFFCURVE",
"657 44 OFFCURVE",
"688 139 CURVE SMOOTH",
"708 199 OFFCURVE",
"706 306 OFFCURVE",
"706 393 CURVE SMOOTH",
"706 661 LINE",
"736 674 OFFCURVE",
"775 677 OFFCURVE",
"794 677 CURVE",
"794 707 LINE",
"562 707 LINE",
"562 677 LINE",
"581 677 OFFCURVE",
"620 674 OFFCURVE",
"650 661 CURVE",
"650 400 LINE SMOOTH",
"650 305 OFFCURVE",
"653 218 OFFCURVE",
"637 162 CURVE SMOOTH",
"611 76 OFFCURVE",
"528 38 OFFCURVE",
"433 38 CURVE SMOOTH",
"335 38 OFFCURVE",
"263 97 OFFCURVE",
"240 166 CURVE SMOOTH",
"223 220 OFFCURVE",
"225 338 OFFCURVE",
"225 389 CURVE SMOOTH",
"225 661 LINE",
"255 674 OFFCURVE",
"294 677 OFFCURVE",
"313 677 CURVE",
"313 707 LINE",
"50 707 LINE",
"50 677 LINE",
"69 677 OFFCURVE",
"108 674 OFFCURVE",
"138 661 CURVE",
"138 384 LINE SMOOTH",
"138 281 OFFCURVE",
"139 192 OFFCURVE",
"163 134 CURVE SMOOTH",
"213 18 OFFCURVE",
"340 -14 OFFCURVE",
"423 -14 CURVE SMOOTH",
"440 -14 LINE",
"375 -65 OFFCURVE",
"345 -111 OFFCURVE",
"345 -162 CURVE SMOOTH",
"345 -217 OFFCURVE",
"384 -240 OFFCURVE",
"433 -240 CURVE SMOOTH"
);
}
);
width = 834;
}
);
leftKerningGroup = U;
rightKerningGroup = U;
unicode = 0172;
},
{
glyphname = Uring;
lastChange = "2023-05-29 09:32:30 +0000";
layers = (
{
layerId = "6D97EE47-94AA-478E-ABFB-936E6C32B491";
paths = (
{
closed = 1;
nodes = (
"506 -14 OFFCURVE",
"647 15 OFFCURVE",
"688 139 CURVE SMOOTH",
"708 199 OFFCURVE",
"706 306 OFFCURVE",
"706 393 CURVE SMOOTH",
"706 661 LINE",
"736 674 OFFCURVE",
"775 677 OFFCURVE",
"794 677 CURVE",
"794 707 LINE",
"562 707 LINE",
"562 677 LINE",
"581 677 OFFCURVE",
"620 674 OFFCURVE",
"650 661 CURVE",
"650 400 LINE SMOOTH",
"650 305 OFFCURVE",
"653 218 OFFCURVE",
"637 162 CURVE SMOOTH",
"611 76 OFFCURVE",
"528 38 OFFCURVE",
"433 38 CURVE SMOOTH",
"335 38 OFFCURVE",
"263 97 OFFCURVE",
"240 166 CURVE SMOOTH",
"223 220 OFFCURVE",
"225 338 OFFCURVE",
"225 389 CURVE SMOOTH",
"225 661 LINE",
"255 674 OFFCURVE",
"294 677 OFFCURVE",
"313 677 CURVE",
"313 707 LINE",
"50 707 LINE",
"50 677 LINE",
"69 677 OFFCURVE",
"108 674 OFFCURVE",
"138 661 CURVE",
"138 384 LINE SMOOTH",
"138 281 OFFCURVE",
"139 192 OFFCURVE",
"163 134 CURVE SMOOTH",
"213 18 OFFCURVE",
"340 -14 OFFCURVE",
"423 -14 CURVE SMOOTH"
);
},
{
closed = 1;
nodes = (
"486 800 OFFCURVE",
"528 844 OFFCURVE",
"528 895 CURVE SMOOTH",
"528 945 OFFCURVE",
"487 989 OFFCURVE",
"435 989 CURVE SMOOTH",
"384 989 OFFCURVE",
"343 945 OFFCURVE",
"343 893 CURVE SMOOTH",
"343 838 OFFCURVE",
"387 800 OFFCURVE",
"436 800 CURVE SMOOTH"
);
},
{
closed = 1;
nodes = (
"409 830 OFFCURVE",
"387 869 OFFCURVE",
"387 903 CURVE SMOOTH",
"387 933 OFFCURVE",
"407 956 OFFCURVE",
"430 956 CURVE SMOOTH",
"461 956 OFFCURVE",
"484 919 OFFCURVE",
"484 887 CURVE SMOOTH",
"484 851 OFFCURVE",
"466 835 OFFCURVE",
"441 833 CURVE SMOOTH"
);
}
);
width = 834;
}
);
leftKerningGroup = U;
rightKerningGroup = U;
unicode = 016E;
},
{
glyphname = Utilde;
lastChange = "2023-05-29 09:32:30 +0000";
layers = (
{
layerId = "6D97EE47-94AA-478E-ABFB-936E6C32B491";
paths = (
{
closed = 1;
nodes = (
"506 -14 OFFCURVE",
"647 15 OFFCURVE",
"688 139 CURVE SMOOTH",
"708 199 OFFCURVE",
"706 306 OFFCURVE",
"706 393 CURVE SMOOTH",
"706 661 LINE",
"736 674 OFFCURVE",
"775 677 OFFCURVE",
"794 677 CURVE",
"794 707 LINE",
"562 707 LINE",
"562 677 LINE",
"581 677 OFFCURVE",
"620 674 OFFCURVE",
"650 661 CURVE",
"650 400 LINE SMOOTH",
"650 305 OFFCURVE",
"653 218 OFFCURVE",
"637 162 CURVE SMOOTH",
"611 76 OFFCURVE",
"528 38 OFFCURVE",
"433 38 CURVE SMOOTH",
"335 38 OFFCURVE",
"263 97 OFFCURVE",
"240 166 CURVE SMOOTH",
"223 220 OFFCURVE",
"225 338 OFFCURVE",
"225 389 CURVE SMOOTH",
"225 661 LINE",
"255 674 OFFCURVE",
"294 677 OFFCURVE",
"313 677 CURVE",
"313 707 LINE",
"50 707 LINE",
"50 677 LINE",
"69 677 OFFCURVE",
"108 674 OFFCURVE",
"138 661 CURVE",
"138 384 LINE SMOOTH",
"138 281 OFFCURVE",
"139 192 OFFCURVE",
"163 134 CURVE SMOOTH",
"213 18 OFFCURVE",
"340 -14 OFFCURVE",
"423 -14 CURVE SMOOTH"
);
},
{
closed = 1;
nodes = (
"319 822 OFFCURVE",
"333 847 OFFCURVE",
"372 850 CURVE SMOOTH",
"421 852 OFFCURVE",
"446 796 OFFCURVE",
"514 800 CURVE SMOOTH",
"565 803 OFFCURVE",
"604 867 OFFCURVE",
"621 903 CURVE",
"600 914 LINE",
"582 885 OFFCURVE",
"568 861 OFFCURVE",
"529 859 CURVE SMOOTH",
"481 857 OFFCURVE",
"456 912 OFFCURVE",
"387 908 CURVE SMOOTH",
"336 906 OFFCURVE",
"297 842 OFFCURVE",
"280 805 CURVE",
"301 794 LINE"
);
}
);
width = 834;
}
);
leftKerningGroup = U;
rightKerningGroup = U;
unicode = 0168;
},
{
glyphname = V;
lastChange = "2023-05-29 09:32:30 +0000";
layers = (
{
layerId = "6D97EE47-94AA-478E-ABFB-936E6C32B491";
paths = (
{
closed = 1;
nodes = (
"376 -14 LINE",
"652 661 LINE",
"676 674 OFFCURVE",
"707 677 OFFCURVE",
"722 677 CURVE",
"722 707 LINE",
"508 707 LINE",
"508 677 LINE",
"527 677 OFFCURVE",
"566 674 OFFCURVE",
"596 661 CURVE",
"377 126 LINE",
"177 661 LINE",
"207 674 OFFCURVE",
"246 677 OFFCURVE",
"265 677 CURVE",
"265 707 LINE",
"4 707 LINE",
"4 677 LINE",
"21 677 OFFCURVE",
"56 674 OFFCURVE",
"83 661 CURVE",
"335 -14 LINE"
);
}
);
width = 726;
}
);
leftKerningGroup = V;
rightKerningGroup = V;
unicode = 0056;
},
{
glyphname = W;
lastChange = "2023-05-29 09:32:30 +0000";
layers = (
{
layerId = "6D97EE47-94AA-478E-ABFB-936E6C32B491";
paths = (
{
closed = 1;
nodes = (
"297 -14 LINE",
"500 483 LINE",
"694 -14 LINE",
"735 -14 LINE",
"901 661 LINE",
"926 674 OFFCURVE",
"958 677 OFFCURVE",
"973 677 CURVE",
"973 707 LINE",
"759 707 LINE",
"759 677 LINE",
"778 677 OFFCURVE",
"817 674 OFFCURVE",
"846 661 CURVE",
"722 155 LINE",
"540 619 LINE",
"498 619 LINE",
"305 145 LINE",
"171 661 LINE",
"200 674 OFFCURVE",
"239 677 OFFCURVE",
"258 677 CURVE",
"258 707 LINE",
"4 707 LINE",
"4 677 LINE",
"20 677 OFFCURVE",
"54 674 OFFCURVE",
"80 662 CURVE",
"255 -14 LINE"
);
}
);
width = 949;
}
);
leftKerningGroup = W;
leftMetricsKey = V;
rightKerningGroup = W;
unicode = 0057;
},
{
glyphname = Wacute;
lastChange = "2023-05-29 09:32:30 +0000";
layers = (
{
layerId = "6D97EE47-94AA-478E-ABFB-936E6C32B491";
paths = (
{
closed = 1;
nodes = (
"297 -14 LINE",
"500 483 LINE",
"694 -14 LINE",
"735 -14 LINE",
"901 661 LINE",
"926 674 OFFCURVE",
"958 677 OFFCURVE",
"973 677 CURVE",
"973 707 LINE",
"759 707 LINE",
"759 677 LINE",
"778 677 OFFCURVE",
"817 674 OFFCURVE",
"846 661 CURVE",
"722 155 LINE",
"540 619 LINE",
"498 619 LINE",
"305 145 LINE",
"171 661 LINE",
"200 674 OFFCURVE",
"239 677 OFFCURVE",
"258 677 CURVE",
"258 707 LINE",
"4 707 LINE",
"4 677 LINE",
"20 677 OFFCURVE",
"54 674 OFFCURVE",
"80 662 CURVE",
"255 -14 LINE"
);
},
{
closed = 1;
nodes = (
"701 872 LINE",
"666 932 LINE",
"460 813 LINE",
"474 789 LINE"
);
}
);
width = 949;
}
);
leftKerningGroup = W;
rightKerningGroup = W;
unicode = 1E82;
},
{
glyphname = Wcircumflex;
lastChange = "2023-05-29 09:32:30 +0000";
layers = (
{
layerId = "6D97EE47-94AA-478E-ABFB-936E6C32B491";
paths = (
{
closed = 1;
nodes = (
"297 -14 LINE",
"500 483 LINE",
"694 -14 LINE",
"735 -14 LINE",
"901 661 LINE",
"926 674 OFFCURVE",
"958 677 OFFCURVE",
"973 677 CURVE",
"973 707 LINE",
"759 707 LINE",
"759 677 LINE",
"778 677 OFFCURVE",
"817 674 OFFCURVE",
"846 661 CURVE",
"722 155 LINE",
"540 619 LINE",
"498 619 LINE",
"305 145 LINE",
"171 661 LINE",
"200 674 OFFCURVE",
"239 677 OFFCURVE",
"258 677 CURVE",
"258 707 LINE",
"4 707 LINE",
"4 677 LINE",
"20 677 OFFCURVE",
"54 674 OFFCURVE",
"80 662 CURVE",
"255 -14 LINE"
);
},
{
closed = 1;
nodes = (
"520 877 LINE",
"674 789 LINE",
"693 812 LINE",
"532 948 LINE",
"508 948 LINE",
"347 812 LINE",
"366 789 LINE"
);
}
);
width = 949;
}
);
leftKerningGroup = W;
rightKerningGroup = W;
unicode = 0174;
},
{
glyphname = Wdieresis;
lastChange = "2023-05-29 09:32:30 +0000";
layers = (
{
layerId = "6D97EE47-94AA-478E-ABFB-936E6C32B491";
paths = (
{
closed = 1;
nodes = (
"297 -14 LINE",
"500 483 LINE",
"694 -14 LINE",
"735 -14 LINE",
"901 661 LINE",
"926 674 OFFCURVE",
"958 677 OFFCURVE",
"973 677 CURVE",
"973 707 LINE",
"759 707 LINE",
"759 677 LINE",
"778 677 OFFCURVE",
"817 674 OFFCURVE",
"846 661 CURVE",
"722 155 LINE",
"540 619 LINE",
"498 619 LINE",
"305 145 LINE",
"171 661 LINE",
"200 674 OFFCURVE",
"239 677 OFFCURVE",
"258 677 CURVE",
"258 707 LINE",
"4 707 LINE",
"4 677 LINE",
"20 677 OFFCURVE",
"54 674 OFFCURVE",
"80 662 CURVE",
"255 -14 LINE"
);
},
{
closed = 1;
nodes = (
"457 800 OFFCURVE",
"479 823 OFFCURVE",
"479 850 CURVE SMOOTH",
"479 877 OFFCURVE",
"457 898 OFFCURVE",
"429 898 CURVE SMOOTH",
"401 898 OFFCURVE",
"380 875 OFFCURVE",
"380 848 CURVE SMOOTH",
"380 821 OFFCURVE",
"401 800 OFFCURVE",
"429 800 CURVE SMOOTH"
);
},
{
closed = 1;
nodes = (
"638 800 OFFCURVE",
"660 823 OFFCURVE",
"660 850 CURVE SMOOTH",
"660 877 OFFCURVE",
"638 898 OFFCURVE",
"610 898 CURVE SMOOTH",
"582 898 OFFCURVE",
"561 875 OFFCURVE",
"561 848 CURVE SMOOTH",
"561 821 OFFCURVE",
"582 800 OFFCURVE",
"610 800 CURVE SMOOTH"
);
}
);
width = 949;
}
);
leftKerningGroup = W;
rightKerningGroup = W;
unicode = 1E84;
},
{
glyphname = Wgrave;
lastChange = "2023-05-29 09:32:30 +0000";
layers = (
{
layerId = "6D97EE47-94AA-478E-ABFB-936E6C32B491";
paths = (
{
closed = 1;
nodes = (
"297 -14 LINE",
"500 483 LINE",
"694 -14 LINE",
"735 -14 LINE",
"901 661 LINE",
"926 674 OFFCURVE",
"958 677 OFFCURVE",
"973 677 CURVE",
"973 707 LINE",
"759 707 LINE",
"759 677 LINE",
"778 677 OFFCURVE",
"817 674 OFFCURVE",
"846 661 CURVE",
"722 155 LINE",
"540 619 LINE",
"498 619 LINE",
"305 145 LINE",
"171 661 LINE",
"200 674 OFFCURVE",
"239 677 OFFCURVE",
"258 677 CURVE",
"258 707 LINE",
"4 707 LINE",
"4 677 LINE",
"20 677 OFFCURVE",
"54 674 OFFCURVE",
"80 662 CURVE",
"255 -14 LINE"
);
},
{
closed = 1;
nodes = (
"600 813 LINE",
"394 932 LINE",
"359 872 LINE",
"586 789 LINE"
);
}
);
width = 949;
}
);
leftKerningGroup = W;
rightKerningGroup = W;
unicode = 1E80;
},
{
glyphname = X;
lastChange = "2023-05-29 09:32:30 +0000";
layers = (
{
layerId = "6D97EE47-94AA-478E-ABFB-936E6C32B491";
paths = (
{
closed = 1;
nodes = (
"227 0 LINE",
"227 30 LINE",
"208 30 OFFCURVE",
"169 33 OFFCURVE",
"139 46 CURVE",
"320 305 LINE",
"488 46 LINE",
"458 33 OFFCURVE",
"420 30 OFFCURVE",
"401 30 CURVE",
"401 0 LINE",
"671 0 LINE",
"671 30 LINE",
"654 30 OFFCURVE",
"620 33 OFFCURVE",
"594 46 CURVE",
"379 377 LINE",
"578 661 LINE",
"603 674 OFFCURVE",
"634 677 OFFCURVE",
"649 677 CURVE",
"649 707 LINE",
"427 707 LINE",
"427 677 LINE",
"446 677 OFFCURVE",
"485 674 OFFCURVE",
"514 661 CURVE",
"348 424 LINE",
"194 661 LINE",
"224 674 OFFCURVE",
"263 677 OFFCURVE",
"282 677 CURVE",
"282 707 LINE",
"12 707 LINE",
"12 677 LINE",
"28 677 OFFCURVE",
"62 674 OFFCURVE",
"88 662 CURVE",
"289 352 LINE",
"76 46 LINE",
"51 33 OFFCURVE",
"19 30 OFFCURVE",
"4 30 CURVE",
"4 0 LINE"
);
}
);
width = 675;
}
);
leftKerningGroup = X;
rightKerningGroup = X;
unicode = 0058;
},
{
glyphname = Y;
lastChange = "2023-05-29 09:32:30 +0000";
layers = (
{
layerId = "6D97EE47-94AA-478E-ABFB-936E6C32B491";
paths = (
{
closed = 1;
nodes = (
"466 0 LINE",
"466 30 LINE",
"447 30 OFFCURVE",
"408 33 OFFCURVE",
"378 46 CURVE",
"378 301 LINE",
"578 662 LINE",
"603 674 OFFCURVE",
"634 677 OFFCURVE",
"649 677 CURVE",
"649 707 LINE",
"431 707 LINE",
"431 677 LINE",
"450 677 OFFCURVE",
"489 674 OFFCURVE",
"519 661 CURVE",
"349 357 LINE",
"181 661 LINE",
"211 674 OFFCURVE",
"249 677 OFFCURVE",
"268 677 CURVE",
"268 707 LINE",
"4 707 LINE",
"4 677 LINE",
"20 677 OFFCURVE",
"54 674 OFFCURVE",
"80 661 CURVE",
"291 280 LINE",
"291 46 LINE",
"261 33 OFFCURVE",
"222 30 OFFCURVE",
"203 30 CURVE",
"203 0 LINE"
);
}
);
width = 653;
}
);
leftKerningGroup = V;
rightKerningGroup = V;
unicode = 0059;
},
{
glyphname = Yacute;
lastChange = "2023-05-29 09:32:30 +0000";
layers = (
{
layerId = "6D97EE47-94AA-478E-ABFB-936E6C32B491";
paths = (
{
closed = 1;
nodes = (
"466 0 LINE",
"466 30 LINE",
"447 30 OFFCURVE",
"408 33 OFFCURVE",
"378 46 CURVE",
"378 301 LINE",
"578 662 LINE",
"603 674 OFFCURVE",
"634 677 OFFCURVE",
"649 677 CURVE",
"649 707 LINE",
"431 707 LINE",
"431 677 LINE",
"450 677 OFFCURVE",
"489 674 OFFCURVE",
"519 661 CURVE",
"349 357 LINE",
"181 661 LINE",
"211 674 OFFCURVE",
"249 677 OFFCURVE",
"268 677 CURVE",
"268 707 LINE",
"4 707 LINE",
"4 677 LINE",
"20 677 OFFCURVE",
"54 674 OFFCURVE",
"80 661 CURVE",
"291 280 LINE",
"291 46 LINE",
"261 33 OFFCURVE",
"222 30 OFFCURVE",
"203 30 CURVE",
"203 0 LINE"
);
},
{
closed = 1;
nodes = (
"520 864 LINE",
"485 924 LINE",
"279 805 LINE",
"293 781 LINE"
);
}
);
width = 653;
}
);
leftKerningGroup = V;
rightKerningGroup = V;
unicode = 00DD;
},
{
glyphname = Ycircumflex;
lastChange = "2023-05-29 09:32:30 +0000";
layers = (
{
layerId = "6D97EE47-94AA-478E-ABFB-936E6C32B491";
paths = (
{
closed = 1;
nodes = (
"466 0 LINE",
"466 30 LINE",
"447 30 OFFCURVE",
"408 33 OFFCURVE",
"378 46 CURVE",
"378 301 LINE",
"578 662 LINE",
"603 674 OFFCURVE",
"634 677 OFFCURVE",
"649 677 CURVE",
"649 707 LINE",
"431 707 LINE",
"431 677 LINE",
"450 677 OFFCURVE",
"489 674 OFFCURVE",
"519 661 CURVE",
"349 357 LINE",
"181 661 LINE",
"211 674 OFFCURVE",
"249 677 OFFCURVE",
"268 677 CURVE",
"268 707 LINE",
"4 707 LINE",
"4 677 LINE",
"20 677 OFFCURVE",
"54 674 OFFCURVE",
"80 661 CURVE",
"291 280 LINE",
"291 46 LINE",
"261 33 OFFCURVE",
"222 30 OFFCURVE",
"203 30 CURVE",
"203 0 LINE"
);
},
{
closed = 1;
nodes = (
"339 877 LINE",
"493 789 LINE",
"512 812 LINE",
"351 948 LINE",
"327 948 LINE",
"166 812 LINE",
"185 789 LINE"
);
}
);
width = 653;
}
);
leftKerningGroup = V;
rightKerningGroup = V;
unicode = 0176;
},
{
glyphname = Ydieresis;
lastChange = "2023-05-29 09:32:30 +0000";
layers = (
{
layerId = "6D97EE47-94AA-478E-ABFB-936E6C32B491";
paths = (
{
closed = 1;
nodes = (
"466 0 LINE",
"466 30 LINE",
"447 30 OFFCURVE",
"408 33 OFFCURVE",
"378 46 CURVE",
"378 301 LINE",
"578 662 LINE",
"603 674 OFFCURVE",
"634 677 OFFCURVE",
"649 677 CURVE",
"649 707 LINE",
"431 707 LINE",
"431 677 LINE",
"450 677 OFFCURVE",
"489 674 OFFCURVE",
"519 661 CURVE",
"349 357 LINE",
"181 661 LINE",
"211 674 OFFCURVE",
"249 677 OFFCURVE",
"268 677 CURVE",
"268 707 LINE",
"4 707 LINE",
"4 677 LINE",
"20 677 OFFCURVE",
"54 674 OFFCURVE",
"80 661 CURVE",
"291 280 LINE",
"291 46 LINE",
"261 33 OFFCURVE",
"222 30 OFFCURVE",
"203 30 CURVE",
"203 0 LINE"
);
},
{
closed = 1;
nodes = (
"276 800 OFFCURVE",
"298 823 OFFCURVE",
"298 850 CURVE SMOOTH",
"298 877 OFFCURVE",
"276 898 OFFCURVE",
"248 898 CURVE SMOOTH",
"220 898 OFFCURVE",
"199 875 OFFCURVE",
"199 848 CURVE SMOOTH",
"199 821 OFFCURVE",
"220 800 OFFCURVE",
"248 800 CURVE SMOOTH"
);
},
{
closed = 1;
nodes = (
"457 800 OFFCURVE",
"479 823 OFFCURVE",
"479 850 CURVE SMOOTH",
"479 877 OFFCURVE",
"457 898 OFFCURVE",
"429 898 CURVE SMOOTH",
"401 898 OFFCURVE",
"380 875 OFFCURVE",
"380 848 CURVE SMOOTH",
"380 821 OFFCURVE",
"401 800 OFFCURVE",
"429 800 CURVE SMOOTH"
);
}
);
width = 653;
}
);
leftKerningGroup = V;
rightKerningGroup = V;
unicode = 0178;
},
{
glyphname = Ygrave;
lastChange = "2023-05-29 09:32:30 +0000";
layers = (
{
layerId = "6D97EE47-94AA-478E-ABFB-936E6C32B491";
paths = (
{
closed = 1;
nodes = (
"466 0 LINE",
"466 30 LINE",
"447 30 OFFCURVE",
"408 33 OFFCURVE",
"378 46 CURVE",
"378 301 LINE",
"578 662 LINE",
"603 674 OFFCURVE",
"634 677 OFFCURVE",
"649 677 CURVE",
"649 707 LINE",
"431 707 LINE",
"431 677 LINE",
"450 677 OFFCURVE",
"489 674 OFFCURVE",
"519 661 CURVE",
"349 357 LINE",
"181 661 LINE",
"211 674 OFFCURVE",
"249 677 OFFCURVE",
"268 677 CURVE",
"268 707 LINE",
"4 707 LINE",
"4 677 LINE",
"20 677 OFFCURVE",
"54 674 OFFCURVE",
"80 661 CURVE",
"291 280 LINE",
"291 46 LINE",
"261 33 OFFCURVE",
"222 30 OFFCURVE",
"203 30 CURVE",
"203 0 LINE"
);
},
{
closed = 1;
nodes = (
"419 813 LINE",
"213 932 LINE",
"178 872 LINE",
"405 789 LINE"
);
}
);
width = 653;
}
);
leftKerningGroup = V;
rightKerningGroup = V;
unicode = 1EF2;
},
{
glyphname = Ymacron;
lastChange = "2023-05-29 09:32:30 +0000";
layers = (
{
layerId = "6D97EE47-94AA-478E-ABFB-936E6C32B491";
paths = (
{
closed = 1;
nodes = (
"466 0 LINE",
"466 30 LINE",
"447 30 OFFCURVE",
"408 33 OFFCURVE",
"378 46 CURVE",
"378 301 LINE",
"578 662 LINE",
"603 674 OFFCURVE",
"634 677 OFFCURVE",
"649 677 CURVE",
"649 707 LINE",
"431 707 LINE",
"431 677 LINE",
"450 677 OFFCURVE",
"489 674 OFFCURVE",
"519 661 CURVE",
"349 357 LINE",
"181 661 LINE",
"211 674 OFFCURVE",
"249 677 OFFCURVE",
"268 677 CURVE",
"268 707 LINE",
"4 707 LINE",
"4 677 LINE",
"20 677 OFFCURVE",
"54 674 OFFCURVE",
"80 661 CURVE",
"291 280 LINE",
"291 46 LINE",
"261 33 OFFCURVE",
"222 30 OFFCURVE",
"203 30 CURVE",
"203 0 LINE"
);
},
{
closed = 1;
nodes = (
"509 806 LINE",
"509 854 LINE",
"169 854 LINE",
"169 806 LINE"
);
}
);
width = 653;
}
);
leftKerningGroup = V;
rightKerningGroup = V;
unicode = 0232;
},
{
glyphname = Ytilde;
lastChange = "2023-05-29 09:32:30 +0000";
layers = (
{
layerId = "6D97EE47-94AA-478E-ABFB-936E6C32B491";
paths = (
{
closed = 1;
nodes = (
"466 0 LINE",
"466 30 LINE",
"447 30 OFFCURVE",
"408 33 OFFCURVE",
"378 46 CURVE",
"378 301 LINE",
"578 662 LINE",
"603 674 OFFCURVE",
"634 677 OFFCURVE",
"649 677 CURVE",
"649 707 LINE",
"431 707 LINE",
"431 677 LINE",
"450 677 OFFCURVE",
"489 674 OFFCURVE",
"519 661 CURVE",
"349 357 LINE",
"181 661 LINE",
"211 674 OFFCURVE",
"249 677 OFFCURVE",
"268 677 CURVE",
"268 707 LINE",
"4 707 LINE",
"4 677 LINE",
"20 677 OFFCURVE",
"54 674 OFFCURVE",
"80 661 CURVE",
"291 280 LINE",
"291 46 LINE",
"261 33 OFFCURVE",
"222 30 OFFCURVE",
"203 30 CURVE",
"203 0 LINE"
);
},
{
closed = 1;
nodes = (
"222 822 OFFCURVE",
"236 847 OFFCURVE",
"275 850 CURVE SMOOTH",
"324 852 OFFCURVE",
"349 796 OFFCURVE",
"417 800 CURVE SMOOTH",
"468 803 OFFCURVE",
"507 867 OFFCURVE",
"524 903 CURVE",
"503 914 LINE",
"485 885 OFFCURVE",
"471 861 OFFCURVE",
"432 859 CURVE SMOOTH",
"384 857 OFFCURVE",
"359 912 OFFCURVE",
"290 908 CURVE SMOOTH",
"239 906 OFFCURVE",
"200 842 OFFCURVE",
"183 805 CURVE",
"204 794 LINE"
);
}
);
width = 653;
}
);
leftKerningGroup = V;
rightKerningGroup = V;
unicode = 1EF8;
},
{
glyphname = Z;
lastChange = "2023-05-29 09:32:30 +0000";
layers = (
{
layerId = "6D97EE47-94AA-478E-ABFB-936E6C32B491";
paths = (
{
closed = 1;
nodes = (
"556 0 LINE",
"595 167 LINE",
"564 175 LINE",
"560 161 OFFCURVE",
"531 90 OFFCURVE",
"500 51 CURVE",
"139 51 LINE",
"555 669 LINE",
"538 707 LINE",
"43 707 LINE",
"36 536 LINE",
"68 534 LINE",
"76 574 OFFCURVE",
"82 613 OFFCURVE",
"94 656 CURVE",
"440 656 LINE",
"25 38 LINE",
"40 0 LINE"
);
}
);
width = 620;
}
);
leftKerningGroup = Z;
leftMetricsKey = "=H/2";
rightKerningGroup = Z;
rightMetricsKey = "=H/2";
unicode = 005A;
},
{
glyphname = Zacute;
lastChange = "2023-05-29 09:32:30 +0000";
layers = (
{
layerId = "6D97EE47-94AA-478E-ABFB-936E6C32B491";
paths = (
{
closed = 1;
nodes = (
"556 0 LINE",
"595 167 LINE",
"564 175 LINE",
"560 161 OFFCURVE",
"531 90 OFFCURVE",
"500 51 CURVE",
"139 51 LINE",
"555 669 LINE",
"538 707 LINE",
"43 707 LINE",
"36 536 LINE",
"68 534 LINE",
"76 574 OFFCURVE",
"82 613 OFFCURVE",
"94 656 CURVE",
"440 656 LINE",
"25 38 LINE",
"40 0 LINE"
);
},
{
closed = 1;
nodes = (
"470 864 LINE",
"435 924 LINE",
"229 805 LINE",
"243 781 LINE"
);
}
);
width = 620;
}
);
leftKerningGroup = Z;
rightKerningGroup = Z;
unicode = 0179;
},
{
glyphname = Zcaron;
lastChange = "2023-05-29 09:32:30 +0000";
layers = (
{
layerId = "6D97EE47-94AA-478E-ABFB-936E6C32B491";
paths = (
{
closed = 1;
nodes = (
"556 0 LINE",
"595 167 LINE",
"564 175 LINE",
"560 161 OFFCURVE",
"531 90 OFFCURVE",
"500 51 CURVE",
"139 51 LINE",
"555 669 LINE",
"538 707 LINE",
"43 707 LINE",
"36 536 LINE",
"68 534 LINE",
"76 574 OFFCURVE",
"82 613 OFFCURVE",
"94 656 CURVE",
"440 656 LINE",
"25 38 LINE",
"40 0 LINE"
);
},
{
closed = 1;
nodes = (
"304 796 LINE",
"465 932 LINE",
"446 955 LINE",
"292 867 LINE",
"138 955 LINE",
"119 932 LINE",
"280 796 LINE"
);
}
);
width = 620;
}
);
leftKerningGroup = Z;
rightKerningGroup = Z;
unicode = 017D;
},
{
glyphname = Zcircumflex;
lastChange = "2023-05-29 09:32:30 +0000";
layers = (
{
layerId = "6D97EE47-94AA-478E-ABFB-936E6C32B491";
paths = (
{
closed = 1;
nodes = (
"556 0 LINE",
"595 167 LINE",
"564 175 LINE",
"560 161 OFFCURVE",
"531 90 OFFCURVE",
"500 51 CURVE",
"139 51 LINE",
"555 669 LINE",
"538 707 LINE",
"43 707 LINE",
"36 536 LINE",
"68 534 LINE",
"76 574 OFFCURVE",
"82 613 OFFCURVE",
"94 656 CURVE",
"440 656 LINE",
"25 38 LINE",
"40 0 LINE"
);
},
{
closed = 1;
nodes = (
"289 877 LINE",
"443 789 LINE",
"462 812 LINE",
"301 948 LINE",
"277 948 LINE",
"116 812 LINE",
"135 789 LINE"
);
}
);
width = 620;
}
);
leftKerningGroup = Z;
rightKerningGroup = Z;
unicode = 1E90;
},
{
glyphname = Zdotaccent;
lastChange = "2023-05-29 09:32:30 +0000";
layers = (
{
layerId = "6D97EE47-94AA-478E-ABFB-936E6C32B491";
paths = (
{
closed = 1;
nodes = (
"556 0 LINE",
"595 167 LINE",
"564 175 LINE",
"560 161 OFFCURVE",
"531 90 OFFCURVE",
"500 51 CURVE",
"139 51 LINE",
"555 669 LINE",
"538 707 LINE",
"43 707 LINE",
"36 536 LINE",
"68 534 LINE",
"76 574 OFFCURVE",
"82 613 OFFCURVE",
"94 656 CURVE",
"440 656 LINE",
"25 38 LINE",
"40 0 LINE"
);
},
{
closed = 1;
nodes = (
"321 800 OFFCURVE",
"345 826 OFFCURVE",
"345 856 CURVE SMOOTH",
"345 887 OFFCURVE",
"321 911 OFFCURVE",
"289 911 CURVE SMOOTH",
"257 911 OFFCURVE",
"234 884 OFFCURVE",
"234 855 CURVE SMOOTH",
"234 824 OFFCURVE",
"257 800 OFFCURVE",
"289 800 CURVE SMOOTH"
);
}
);
width = 620;
}
);
leftKerningGroup = Z;
rightKerningGroup = Z;
unicode = 017B;
},
{
glyphname = Cacute.loclPLK;
lastChange = "2023-05-29 09:32:30 +0000";
layers = (
{
layerId = "6D97EE47-94AA-478E-ABFB-936E6C32B491";
paths = (
{
closed = 1;
nodes = (
"505 -14 OFFCURVE",
"568 -5 OFFCURVE",
"637 13 CURVE",
"715 161 LINE",
"685 176 LINE",
"626 83 OFFCURVE",
"563 33 OFFCURVE",
"452 33 CURVE SMOOTH",
"284 33 OFFCURVE",
"145 197 OFFCURVE",
"145 380 CURVE SMOOTH",
"145 549 OFFCURVE",
"254 673 OFFCURVE",
"425 673 CURVE SMOOTH",
"520 673 OFFCURVE",
"606 635 OFFCURVE",
"642 540 CURVE",
"672 546 LINE",
"652 688 LINE",
"605 701 OFFCURVE",
"523 722 OFFCURVE",
"431 722 CURVE SMOOTH",
"221 722 OFFCURVE",
"50 560 OFFCURVE",
"50 350 CURVE SMOOTH",
"50 135 OFFCURVE",
"217 -14 OFFCURVE",
"448 -14 CURVE SMOOTH"
);
},
{
closed = 1;
nodes = (
"518 970 LINE",
"446 996 LINE",
"372 792 LINE",
"403 780 LINE"
);
}
);
width = 740;
}
);
leftKerningGroup = O;
rightKerningGroup = C;
},
{
glyphname = Nacute.loclPLK;
lastChange = "2023-05-29 09:32:30 +0000";
layers = (
{
layerId = "6D97EE47-94AA-478E-ABFB-936E6C32B491";
paths = (
{
closed = 1;
nodes = (
"678 -14 LINE",
"678 661 LINE",
"708 674 OFFCURVE",
"747 677 OFFCURVE",
"766 677 CURVE",
"766 707 LINE",
"534 707 LINE",
"534 677 LINE",
"553 677 OFFCURVE",
"592 674 OFFCURVE",
"622 661 CURVE",
"622 147 LINE",
"199 707 LINE",
"40 707 LINE",
"40 677 LINE",
"59 677 OFFCURVE",
"98 674 OFFCURVE",
"128 661 CURVE",
"128 46 LINE",
"98 33 OFFCURVE",
"59 30 OFFCURVE",
"40 30 CURVE",
"40 0 LINE",
"272 0 LINE",
"272 30 LINE",
"253 30 OFFCURVE",
"214 33 OFFCURVE",
"184 46 CURVE",
"184 582 LINE",
"633 -14 LINE"
);
},
{
closed = 1;
nodes = (
"522 970 LINE",
"450 996 LINE",
"376 792 LINE",
"407 780 LINE"
);
}
);
width = 806;
}
);
leftKerningGroup = H;
rightKerningGroup = H;
},
{
glyphname = Oacute.loclPLK;
lastChange = "2023-05-29 09:32:30 +0000";
layers = (
{
layerId = "6D97EE47-94AA-478E-ABFB-936E6C32B491";
paths = (
{
closed = 1;
nodes = (
"625 -14 OFFCURVE",
"794 155 OFFCURVE",
"794 360 CURVE SMOOTH",
"794 562 OFFCURVE",
"627 721 OFFCURVE",
"424 721 CURVE SMOOTH",
"218 721 OFFCURVE",
"50 553 OFFCURVE",
"50 348 CURVE SMOOTH",
"50 146 OFFCURVE",
"215 -14 OFFCURVE",
"419 -14 CURVE SMOOTH"
);
},
{
closed = 1;
nodes = (
"276 41 OFFCURVE",
"141 215 OFFCURVE",
"141 390 CURVE SMOOTH",
"141 544 OFFCURVE",
"248 667 OFFCURVE",
"395 667 CURVE SMOOTH",
"566 667 OFFCURVE",
"702 496 OFFCURVE",
"702 319 CURVE SMOOTH",
"702 165 OFFCURVE",
"596 41 OFFCURVE",
"449 41 CURVE SMOOTH"
);
},
{
closed = 1;
nodes = (
"543 970 LINE",
"471 996 LINE",
"397 792 LINE",
"428 780 LINE"
);
}
);
width = 844;
}
);
leftKerningGroup = O;
rightKerningGroup = O;
},
{
glyphname = Sacute.loclPLK;
lastChange = "2023-05-29 09:32:30 +0000";
layers = (
{
layerId = "6D97EE47-94AA-478E-ABFB-936E6C32B491";
paths = (
{
closed = 1;
nodes = (
"401 -14 OFFCURVE",
"503 50 OFFCURVE",
"503 168 CURVE SMOOTH",
"503 400 OFFCURVE",
"179 402 OFFCURVE",
"179 560 CURVE SMOOTH",
"179 626 OFFCURVE",
"244 675 OFFCURVE",
"321 675 CURVE SMOOTH",
"405 675 OFFCURVE",
"445 620 OFFCURVE",
"456 536 CURVE",
"489 540 LINE",
"467 702 LINE",
"441 707 OFFCURVE",
"389 721 OFFCURVE",
"328 721 CURVE SMOOTH",
"197 721 OFFCURVE",
"91 660 OFFCURVE",
"91 537 CURVE SMOOTH",
"91 334 OFFCURVE",
"412 316 OFFCURVE",
"412 155 CURVE SMOOTH",
"412 79 OFFCURVE",
"350 33 OFFCURVE",
"262 33 CURVE SMOOTH",
"154 33 OFFCURVE",
"105 106 OFFCURVE",
"79 221 CURVE",
"46 215 LINE",
"77 23 LINE",
"83 15 OFFCURVE",
"178 -14 OFFCURVE",
"272 -14 CURVE SMOOTH"
);
},
{
closed = 1;
nodes = (
"407 970 LINE",
"335 996 LINE",
"261 792 LINE",
"292 780 LINE"
);
}
);
width = 554;
}
);
leftKerningGroup = S;
rightKerningGroup = S;
},
{
glyphname = Zacute.loclPLK;
lastChange = "2023-05-29 09:32:30 +0000";
layers = (
{
layerId = "6D97EE47-94AA-478E-ABFB-936E6C32B491";
paths = (
{
closed = 1;
nodes = (
"556 0 LINE",
"595 167 LINE",
"564 175 LINE",
"560 161 OFFCURVE",
"531 90 OFFCURVE",
"500 51 CURVE",
"139 51 LINE",
"555 669 LINE",
"538 707 LINE",
"43 707 LINE",
"36 536 LINE",
"68 534 LINE",
"76 574 OFFCURVE",
"82 613 OFFCURVE",
"94 656 CURVE",
"440 656 LINE",
"25 38 LINE",
"40 0 LINE"
);
},
{
closed = 1;
nodes = (
"404 970 LINE",
"332 996 LINE",
"258 792 LINE",
"289 780 LINE"
);
}
);
width = 620;
}
);
leftKerningGroup = Z;
rightKerningGroup = Z;
},
{
glyphname = K.ss01;
lastChange = "2023-05-29 09:32:30 +0000";
layers = (
{
layerId = "6D97EE47-94AA-478E-ABFB-936E6C32B491";
paths = (
{
closed = 1;
nodes = (
"857 -184 LINE",
"768 -157 OFFCURVE",
"736 -116 OFFCURVE",
"683 -57 CURVE SMOOTH",
"620 13 OFFCURVE",
"374 333 OFFCURVE",
"331 392 CURVE",
"581 661 LINE",
"611 674 OFFCURVE",
"649 677 OFFCURVE",
"668 677 CURVE",
"668 707 LINE",
"440 707 LINE",
"440 677 LINE",
"455 677 OFFCURVE",
"487 674 OFFCURVE",
"512 661 CURVE",
"243 373 LINE",
"275 331 OFFCURVE",
"563 -67 OFFCURVE",
"614 -119 CURVE SMOOTH",
"670 -177 OFFCURVE",
"713 -213 OFFCURVE",
"850 -214 CURVE"
);
},
{
closed = 1;
nodes = (
"317 0 LINE",
"317 30 LINE",
"297 30 OFFCURVE",
"256 33 OFFCURVE",
"225 46 CURVE",
"225 661 LINE",
"255 674 OFFCURVE",
"294 677 OFFCURVE",
"313 677 CURVE",
"313 707 LINE",
"50 707 LINE",
"50 677 LINE",
"69 677 OFFCURVE",
"108 674 OFFCURVE",
"138 661 CURVE",
"138 46 LINE",
"108 33 OFFCURVE",
"69 30 OFFCURVE",
"50 30 CURVE",
"50 0 LINE"
);
}
);
width = 657;
}
);
leftKerningGroup = H;
leftMetricsKey = K;
rightKerningGroup = K.ss01;
},
{
glyphname = Kcommaaccent.ss01;
lastChange = "2023-05-29 09:32:30 +0000";
layers = (
{
layerId = "6D97EE47-94AA-478E-ABFB-936E6C32B491";
paths = (
{
closed = 1;
nodes = (
"857 -184 LINE",
"768 -157 OFFCURVE",
"736 -116 OFFCURVE",
"683 -57 CURVE SMOOTH",
"620 13 OFFCURVE",
"374 333 OFFCURVE",
"331 392 CURVE",
"581 661 LINE",
"611 674 OFFCURVE",
"649 677 OFFCURVE",
"668 677 CURVE",
"668 707 LINE",
"440 707 LINE",
"440 677 LINE",
"455 677 OFFCURVE",
"487 674 OFFCURVE",
"512 661 CURVE",
"243 373 LINE",
"275 331 OFFCURVE",
"563 -67 OFFCURVE",
"614 -119 CURVE SMOOTH",
"670 -177 OFFCURVE",
"713 -213 OFFCURVE",
"850 -214 CURVE"
);
},
{
closed = 1;
nodes = (
"391 -273 OFFCURVE",
"420 -185 OFFCURVE",
"414 -128 CURVE SMOOTH",
"411 -94 OFFCURVE",
"390 -70 OFFCURVE",
"359 -70 CURVE SMOOTH",
"327 -70 OFFCURVE",
"304 -97 OFFCURVE",
"304 -126 CURVE SMOOTH",
"304 -157 OFFCURVE",
"327 -180 OFFCURVE",
"359 -180 CURVE SMOOTH",
"360 -180 LINE",
"360 -228 OFFCURVE",
"337 -269 OFFCURVE",
"298 -298 CURVE",
"312 -317 LINE"
);
},
{
closed = 1;
nodes = (
"317 0 LINE",
"317 30 LINE",
"297 30 OFFCURVE",
"256 33 OFFCURVE",
"225 46 CURVE",
"225 661 LINE",
"255 674 OFFCURVE",
"294 677 OFFCURVE",
"313 677 CURVE",
"313 707 LINE",
"50 707 LINE",
"50 677 LINE",
"69 677 OFFCURVE",
"108 674 OFFCURVE",
"138 661 CURVE",
"138 46 LINE",
"108 33 OFFCURVE",
"69 30 OFFCURVE",
"50 30 CURVE",
"50 0 LINE"
);
}
);
width = 657;
}
);
leftKerningGroup = H;
rightKerningGroup = K.ss01;
},
{
glyphname = Q.ss01;
lastChange = "2023-05-29 09:32:30 +0000";
layers = (
{
layerId = "6D97EE47-94AA-478E-ABFB-936E6C32B491";
paths = (
{
closed = 1;
nodes = (
"1166 -251 OFFCURVE",
"1314 -221 OFFCURVE",
"1456 -126 CURVE",
"1437 -101 LINE",
"1361 -149 OFFCURVE",
"1279 -178 OFFCURVE",
"1134 -175 CURVE SMOOTH",
"1002 -172 OFFCURVE",
"698 -35 OFFCURVE",
"572 19 CURVE",
"703 77 OFFCURVE",
"795 208 OFFCURVE",
"795 359 CURVE SMOOTH",
"795 561 OFFCURVE",
"627 721 OFFCURVE",
"424 721 CURVE SMOOTH",
"219 721 OFFCURVE",
"50 553 OFFCURVE",
"50 348 CURVE SMOOTH",
"50 149 OFFCURVE",
"213 -14 OFFCURVE",
"419 -14 CURVE SMOOTH",
"432 -14 LINE",
"567 -61 OFFCURVE",
"872 -209 OFFCURVE",
"997 -227 CURVE SMOOTH"
);
},
{
closed = 1;
nodes = (
"276 41 OFFCURVE",
"141 216 OFFCURVE",
"141 390 CURVE SMOOTH",
"141 543 OFFCURVE",
"247 667 OFFCURVE",
"395 667 CURVE SMOOTH",
"566 667 OFFCURVE",
"702 496 OFFCURVE",
"702 319 CURVE SMOOTH",
"702 165 OFFCURVE",
"597 41 OFFCURVE",
"449 41 CURVE SMOOTH"
);
}
);
width = 849;
}
);
leftKerningGroup = O;
leftMetricsKey = O;
rightKerningGroup = Q.ss01;
},
{
glyphname = R.ss01;
lastChange = "2023-05-29 09:32:30 +0000";
layers = (
{
layerId = "6D97EE47-94AA-478E-ABFB-936E6C32B491";
paths = (
{
closed = 1;
nodes = (
"837 -185 LINE",
"750 -152 OFFCURVE",
"714 -120 OFFCURVE",
"665 -57 CURVE SMOOTH",
"612 11 OFFCURVE",
"447 263 OFFCURVE",
"392 355 CURVE",
"505 402 OFFCURVE",
"544 482 OFFCURVE",
"544 548 CURVE SMOOTH",
"544 680 OFFCURVE",
"439 721 OFFCURVE",
"305 721 CURVE SMOOTH",
"230 721 OFFCURVE",
"146 712 OFFCURVE",
"50 704 CURVE",
"53 674 LINE",
"71 676 OFFCURVE",
"106 676 OFFCURVE",
"138 669 CURVE",
"138 46 LINE",
"108 33 OFFCURVE",
"69 30 OFFCURVE",
"50 30 CURVE",
"50 0 LINE",
"317 0 LINE",
"317 30 LINE",
"297 30 OFFCURVE",
"256 33 OFFCURVE",
"225 46 CURVE",
"225 317 LINE",
"256 320 OFFCURVE",
"284 324 OFFCURVE",
"310 330 CURVE",
"366 238 OFFCURVE",
"547 -62 OFFCURVE",
"590 -112 CURVE SMOOTH",
"643 -173 OFFCURVE",
"690 -205 OFFCURVE",
"828 -214 CURVE"
);
},
{
closed = 1;
nodes = (
"225 677 LINE",
"358 694 OFFCURVE",
"457 642 OFFCURVE",
"457 524 CURVE SMOOTH",
"457 444 OFFCURVE",
"378 359 OFFCURVE",
"225 353 CURVE"
);
}
);
width = 637;
}
);
leftKerningGroup = H;
leftMetricsKey = R;
rightKerningGroup = R.ss01;
},
{
glyphname = Racute.ss01;
lastChange = "2023-05-29 09:32:30 +0000";
layers = (
{
layerId = "6D97EE47-94AA-478E-ABFB-936E6C32B491";
paths = (
{
closed = 1;
nodes = (
"837 -185 LINE",
"750 -152 OFFCURVE",
"714 -120 OFFCURVE",
"665 -57 CURVE SMOOTH",
"612 11 OFFCURVE",
"447 263 OFFCURVE",
"392 355 CURVE",
"505 402 OFFCURVE",
"544 482 OFFCURVE",
"544 548 CURVE SMOOTH",
"544 680 OFFCURVE",
"439 721 OFFCURVE",
"305 721 CURVE SMOOTH",
"230 721 OFFCURVE",
"146 712 OFFCURVE",
"50 704 CURVE",
"53 674 LINE",
"71 676 OFFCURVE",
"106 676 OFFCURVE",
"138 669 CURVE",
"138 46 LINE",
"108 33 OFFCURVE",
"69 30 OFFCURVE",
"50 30 CURVE",
"50 0 LINE",
"317 0 LINE",
"317 30 LINE",
"297 30 OFFCURVE",
"256 33 OFFCURVE",
"225 46 CURVE",
"225 317 LINE",
"256 320 OFFCURVE",
"284 324 OFFCURVE",
"310 330 CURVE",
"366 238 OFFCURVE",
"547 -62 OFFCURVE",
"590 -112 CURVE SMOOTH",
"643 -173 OFFCURVE",
"690 -205 OFFCURVE",
"828 -214 CURVE"
);
},
{
closed = 1;
nodes = (
"225 677 LINE",
"358 694 OFFCURVE",
"457 642 OFFCURVE",
"457 524 CURVE SMOOTH",
"457 444 OFFCURVE",
"378 359 OFFCURVE",
"225 353 CURVE"
);
},
{
closed = 1;
nodes = (
"468 864 LINE",
"433 924 LINE",
"227 805 LINE",
"241 781 LINE"
);
}
);
width = 637;
}
);
leftKerningGroup = H;
rightKerningGroup = R.ss01;
},
{
glyphname = Rcaron.ss01;
lastChange = "2023-05-29 09:32:30 +0000";
layers = (
{
layerId = "6D97EE47-94AA-478E-ABFB-936E6C32B491";
paths = (
{
closed = 1;
nodes = (
"837 -185 LINE",
"750 -152 OFFCURVE",
"714 -120 OFFCURVE",
"665 -57 CURVE SMOOTH",
"612 11 OFFCURVE",
"447 263 OFFCURVE",
"392 355 CURVE",
"505 402 OFFCURVE",
"544 482 OFFCURVE",
"544 548 CURVE SMOOTH",
"544 680 OFFCURVE",
"439 721 OFFCURVE",
"305 721 CURVE SMOOTH",
"230 721 OFFCURVE",
"146 712 OFFCURVE",
"50 704 CURVE",
"53 674 LINE",
"71 676 OFFCURVE",
"106 676 OFFCURVE",
"138 669 CURVE",
"138 46 LINE",
"108 33 OFFCURVE",
"69 30 OFFCURVE",
"50 30 CURVE",
"50 0 LINE",
"317 0 LINE",
"317 30 LINE",
"297 30 OFFCURVE",
"256 33 OFFCURVE",
"225 46 CURVE",
"225 317 LINE",
"256 320 OFFCURVE",
"284 324 OFFCURVE",
"310 330 CURVE",
"366 238 OFFCURVE",
"547 -62 OFFCURVE",
"590 -112 CURVE SMOOTH",
"643 -173 OFFCURVE",
"690 -205 OFFCURVE",
"828 -214 CURVE"
);
},
{
closed = 1;
nodes = (
"225 677 LINE",
"358 694 OFFCURVE",
"457 642 OFFCURVE",
"457 524 CURVE SMOOTH",
"457 444 OFFCURVE",
"378 359 OFFCURVE",
"225 353 CURVE"
);
},
{
closed = 1;
nodes = (
"302 796 LINE",
"463 932 LINE",
"444 955 LINE",
"290 867 LINE",
"136 955 LINE",
"117 932 LINE",
"278 796 LINE"
);
}
);
width = 637;
}
);
leftKerningGroup = H;
rightKerningGroup = R.ss01;
},
{
glyphname = Rcommaaccent.ss01;
lastChange = "2023-05-29 09:32:30 +0000";
layers = (
{
layerId = "6D97EE47-94AA-478E-ABFB-936E6C32B491";
paths = (
{
closed = 1;
nodes = (
"837 -185 LINE",
"750 -152 OFFCURVE",
"714 -120 OFFCURVE",
"665 -57 CURVE SMOOTH",
"612 11 OFFCURVE",
"447 263 OFFCURVE",
"392 355 CURVE",
"505 402 OFFCURVE",
"544 482 OFFCURVE",
"544 548 CURVE SMOOTH",
"544 680 OFFCURVE",
"439 721 OFFCURVE",
"305 721 CURVE SMOOTH",
"230 721 OFFCURVE",
"146 712 OFFCURVE",
"50 704 CURVE",
"53 674 LINE",
"71 676 OFFCURVE",
"106 676 OFFCURVE",
"138 669 CURVE",
"138 46 LINE",
"108 33 OFFCURVE",
"69 30 OFFCURVE",
"50 30 CURVE",
"50 0 LINE",
"317 0 LINE",
"317 30 LINE",
"297 30 OFFCURVE",
"256 33 OFFCURVE",
"225 46 CURVE",
"225 317 LINE",
"256 320 OFFCURVE",
"284 324 OFFCURVE",
"310 330 CURVE",
"366 238 OFFCURVE",
"547 -62 OFFCURVE",
"590 -112 CURVE SMOOTH",
"643 -173 OFFCURVE",
"690 -205 OFFCURVE",
"828 -214 CURVE"
);
},
{
closed = 1;
nodes = (
"391 -273 OFFCURVE",
"420 -185 OFFCURVE",
"414 -128 CURVE SMOOTH",
"411 -94 OFFCURVE",
"390 -70 OFFCURVE",
"359 -70 CURVE SMOOTH",
"327 -70 OFFCURVE",
"304 -97 OFFCURVE",
"304 -126 CURVE SMOOTH",
"304 -157 OFFCURVE",
"327 -180 OFFCURVE",
"359 -180 CURVE SMOOTH",
"360 -180 LINE",
"360 -228 OFFCURVE",
"337 -269 OFFCURVE",
"298 -298 CURVE",
"312 -317 LINE"
);
},
{
closed = 1;
nodes = (
"225 677 LINE",
"358 694 OFFCURVE",
"457 642 OFFCURVE",
"457 524 CURVE SMOOTH",
"457 444 OFFCURVE",
"378 359 OFFCURVE",
"225 353 CURVE"
);
}
);
width = 637;
}
);
leftKerningGroup = H;
rightKerningGroup = R.ss01;
},
{
glyphname = Y.ss01;
lastChange = "2023-05-29 09:32:30 +0000";
layers = (
{
layerId = "6D97EE47-94AA-478E-ABFB-936E6C32B491";
paths = (
{
closed = 1;
nodes = (
"430 0 LINE",
"430 30 LINE",
"411 30 OFFCURVE",
"372 33 OFFCURVE",
"342 46 CURVE",
"342 249 LINE",
"343 261 OFFCURVE",
"343 272 OFFCURVE",
"343 284 CURVE SMOOTH",
"352 447 OFFCURVE",
"426 624 OFFCURVE",
"582 700 CURVE",
"570 728 LINE",
"446 678 OFFCURVE",
"359 587 OFFCURVE",
"308 470 CURVE",
"256 598 OFFCURVE",
"150 690 OFFCURVE",
"16 728 CURVE",
"4 698 LINE",
"150 628 OFFCURVE",
"257 432 OFFCURVE",
"254 249 CURVE SMOOTH",
"254 46 LINE",
"224 33 OFFCURVE",
"185 30 OFFCURVE",
"166 30 CURVE",
"166 0 LINE"
);
}
);
width = 586;
}
);
leftKerningGroup = V;
leftMetricsKey = Y;
rightKerningGroup = V;
rightMetricsKey = Y;
},
{
glyphname = Yacute.ss01;
lastChange = "2023-05-29 09:32:30 +0000";
layers = (
{
layerId = "6D97EE47-94AA-478E-ABFB-936E6C32B491";
paths = (
{
closed = 1;
nodes = (
"430 0 LINE",
"430 30 LINE",
"411 30 OFFCURVE",
"372 33 OFFCURVE",
"342 46 CURVE",
"342 249 LINE",
"343 261 OFFCURVE",
"343 272 OFFCURVE",
"343 284 CURVE SMOOTH",
"352 447 OFFCURVE",
"426 624 OFFCURVE",
"582 700 CURVE",
"570 728 LINE",
"446 678 OFFCURVE",
"359 587 OFFCURVE",
"308 470 CURVE",
"256 598 OFFCURVE",
"150 690 OFFCURVE",
"16 728 CURVE",
"4 698 LINE",
"150 628 OFFCURVE",
"257 432 OFFCURVE",
"254 249 CURVE SMOOTH",
"254 46 LINE",
"224 33 OFFCURVE",
"185 30 OFFCURVE",
"166 30 CURVE",
"166 0 LINE"
);
},
{
closed = 1;
nodes = (
"482 864 LINE",
"447 924 LINE",
"241 805 LINE",
"255 781 LINE"
);
}
);
width = 586;
}
);
leftKerningGroup = V;
rightKerningGroup = V;
},
{
glyphname = Ycircumflex.ss01;
lastChange = "2023-05-29 09:32:30 +0000";
layers = (
{
layerId = "6D97EE47-94AA-478E-ABFB-936E6C32B491";
paths = (
{
closed = 1;
nodes = (
"430 0 LINE",
"430 30 LINE",
"411 30 OFFCURVE",
"372 33 OFFCURVE",
"342 46 CURVE",
"342 249 LINE",
"343 261 OFFCURVE",
"343 272 OFFCURVE",
"343 284 CURVE SMOOTH",
"352 447 OFFCURVE",
"426 624 OFFCURVE",
"582 700 CURVE",
"570 728 LINE",
"446 678 OFFCURVE",
"359 587 OFFCURVE",
"308 470 CURVE",
"256 598 OFFCURVE",
"150 690 OFFCURVE",
"16 728 CURVE",
"4 698 LINE",
"150 628 OFFCURVE",
"257 432 OFFCURVE",
"254 249 CURVE SMOOTH",
"254 46 LINE",
"224 33 OFFCURVE",
"185 30 OFFCURVE",
"166 30 CURVE",
"166 0 LINE"
);
},
{
closed = 1;
nodes = (
"301 877 LINE",
"455 789 LINE",
"474 812 LINE",
"313 948 LINE",
"289 948 LINE",
"128 812 LINE",
"147 789 LINE"
);
}
);
width = 586;
}
);
leftKerningGroup = V;
rightKerningGroup = V;
},
{
glyphname = Ydieresis.ss01;
lastChange = "2023-05-29 09:32:30 +0000";
layers = (
{
layerId = "6D97EE47-94AA-478E-ABFB-936E6C32B491";
paths = (
{
closed = 1;
nodes = (
"430 0 LINE",
"430 30 LINE",
"411 30 OFFCURVE",
"372 33 OFFCURVE",
"342 46 CURVE",
"342 249 LINE",
"343 261 OFFCURVE",
"343 272 OFFCURVE",
"343 284 CURVE SMOOTH",
"352 447 OFFCURVE",
"426 624 OFFCURVE",
"582 700 CURVE",
"570 728 LINE",
"446 678 OFFCURVE",
"359 587 OFFCURVE",
"308 470 CURVE",
"256 598 OFFCURVE",
"150 690 OFFCURVE",
"16 728 CURVE",
"4 698 LINE",
"150 628 OFFCURVE",
"257 432 OFFCURVE",
"254 249 CURVE SMOOTH",
"254 46 LINE",
"224 33 OFFCURVE",
"185 30 OFFCURVE",
"166 30 CURVE",
"166 0 LINE"
);
},
{
closed = 1;
nodes = (
"238 800 OFFCURVE",
"260 823 OFFCURVE",
"260 850 CURVE SMOOTH",
"260 877 OFFCURVE",
"238 898 OFFCURVE",
"210 898 CURVE SMOOTH",
"182 898 OFFCURVE",
"161 875 OFFCURVE",
"161 848 CURVE SMOOTH",
"161 821 OFFCURVE",
"182 800 OFFCURVE",
"210 800 CURVE SMOOTH"
);
},
{
closed = 1;
nodes = (
"419 800 OFFCURVE",
"441 823 OFFCURVE",
"441 850 CURVE SMOOTH",
"441 877 OFFCURVE",
"419 898 OFFCURVE",
"391 898 CURVE SMOOTH",
"363 898 OFFCURVE",
"342 875 OFFCURVE",
"342 848 CURVE SMOOTH",
"342 821 OFFCURVE",
"363 800 OFFCURVE",
"391 800 CURVE SMOOTH"
);
}
);
width = 586;
}
);
leftKerningGroup = V;
rightKerningGroup = V;
},
{
glyphname = Ygrave.ss01;
lastChange = "2023-05-29 09:32:30 +0000";
layers = (
{
layerId = "6D97EE47-94AA-478E-ABFB-936E6C32B491";
paths = (
{
closed = 1;
nodes = (
"430 0 LINE",
"430 30 LINE",
"411 30 OFFCURVE",
"372 33 OFFCURVE",
"342 46 CURVE",
"342 249 LINE",
"343 261 OFFCURVE",
"343 272 OFFCURVE",
"343 284 CURVE SMOOTH",
"352 447 OFFCURVE",
"426 624 OFFCURVE",
"582 700 CURVE",
"570 728 LINE",
"446 678 OFFCURVE",
"359 587 OFFCURVE",
"308 470 CURVE",
"256 598 OFFCURVE",
"150 690 OFFCURVE",
"16 728 CURVE",
"4 698 LINE",
"150 628 OFFCURVE",
"257 432 OFFCURVE",
"254 249 CURVE SMOOTH",
"254 46 LINE",
"224 33 OFFCURVE",
"185 30 OFFCURVE",
"166 30 CURVE",
"166 0 LINE"
);
},
{
closed = 1;
nodes = (
"381 813 LINE",
"175 932 LINE",
"140 872 LINE",
"367 789 LINE"
);
}
);
width = 586;
}
);
leftKerningGroup = V;
rightKerningGroup = V;
},
{
glyphname = Ymacron.ss01;
lastChange = "2023-05-29 09:32:30 +0000";
layers = (
{
layerId = "6D97EE47-94AA-478E-ABFB-936E6C32B491";
paths = (
{
closed = 1;
nodes = (
"430 0 LINE",
"430 30 LINE",
"411 30 OFFCURVE",
"372 33 OFFCURVE",
"342 46 CURVE",
"342 249 LINE",
"343 261 OFFCURVE",
"343 272 OFFCURVE",
"343 284 CURVE SMOOTH",
"352 447 OFFCURVE",
"426 624 OFFCURVE",
"582 700 CURVE",
"570 728 LINE",
"446 678 OFFCURVE",
"359 587 OFFCURVE",
"308 470 CURVE",
"256 598 OFFCURVE",
"150 690 OFFCURVE",
"16 728 CURVE",
"4 698 LINE",
"150 628 OFFCURVE",
"257 432 OFFCURVE",
"254 249 CURVE SMOOTH",
"254 46 LINE",
"224 33 OFFCURVE",
"185 30 OFFCURVE",
"166 30 CURVE",
"166 0 LINE"
);
},
{
closed = 1;
nodes = (
"471 806 LINE",
"471 854 LINE",
"131 854 LINE",
"131 806 LINE"
);
}
);
width = 586;
}
);
leftKerningGroup = V;
rightKerningGroup = V;
},
{
glyphname = Ytilde.ss01;
lastChange = "2023-05-29 09:32:30 +0000";
layers = (
{
layerId = "6D97EE47-94AA-478E-ABFB-936E6C32B491";
paths = (
{
closed = 1;
nodes = (
"430 0 LINE",
"430 30 LINE",
"411 30 OFFCURVE",
"372 33 OFFCURVE",
"342 46 CURVE",
"342 249 LINE",
"343 261 OFFCURVE",
"343 272 OFFCURVE",
"343 284 CURVE SMOOTH",
"352 447 OFFCURVE",
"426 624 OFFCURVE",
"582 700 CURVE",
"570 728 LINE",
"446 678 OFFCURVE",
"359 587 OFFCURVE",
"308 470 CURVE",
"256 598 OFFCURVE",
"150 690 OFFCURVE",
"16 728 CURVE",
"4 698 LINE",
"150 628 OFFCURVE",
"257 432 OFFCURVE",
"254 249 CURVE SMOOTH",
"254 46 LINE",
"224 33 OFFCURVE",
"185 30 OFFCURVE",
"166 30 CURVE",
"166 0 LINE"
);
},
{
closed = 1;
nodes = (
"184 822 OFFCURVE",
"198 847 OFFCURVE",
"237 850 CURVE SMOOTH",
"286 852 OFFCURVE",
"311 796 OFFCURVE",
"379 800 CURVE SMOOTH",
"430 803 OFFCURVE",
"469 867 OFFCURVE",
"486 903 CURVE",
"465 914 LINE",
"447 885 OFFCURVE",
"433 861 OFFCURVE",
"394 859 CURVE SMOOTH",
"346 857 OFFCURVE",
"321 912 OFFCURVE",
"252 908 CURVE SMOOTH",
"201 906 OFFCURVE",
"162 842 OFFCURVE",
"145 805 CURVE",
"166 794 LINE"
);
}
);
width = 586;
}
);
leftKerningGroup = V;
rightKerningGroup = V;
},
{
glyphname = Z.ss01;
lastChange = "2023-05-29 09:32:30 +0000";
layers = (
{
layerId = "6D97EE47-94AA-478E-ABFB-936E6C32B491";
paths = (
{
closed = 1;
nodes = (
"522 0 LINE",
"561 167 LINE",
"530 175 LINE",
"527 164 OFFCURVE",
"508 118 OFFCURVE",
"486 80 CURVE",
"125 80 LINE",
"521 669 LINE",
"504 707 LINE",
"43 707 LINE",
"36 536 LINE",
"68 534 LINE",
"74 565 OFFCURVE",
"79 596 OFFCURVE",
"87 629 CURVE",
"422 629 LINE",
"25 38 LINE",
"40 0 LINE"
);
}
);
width = 586;
}
);
leftKerningGroup = Z;
leftMetricsKey = Z;
rightKerningGroup = Z;
rightMetricsKey = Z;
},
{
glyphname = Zacute.ss01;
lastChange = "2023-05-29 09:32:30 +0000";
layers = (
{
layerId = "6D97EE47-94AA-478E-ABFB-936E6C32B491";
paths = (
{
closed = 1;
nodes = (
"522 0 LINE",
"561 167 LINE",
"530 175 LINE",
"527 164 OFFCURVE",
"508 118 OFFCURVE",
"486 80 CURVE",
"125 80 LINE",
"521 669 LINE",
"504 707 LINE",
"43 707 LINE",
"36 536 LINE",
"68 534 LINE",
"74 565 OFFCURVE",
"79 596 OFFCURVE",
"87 629 CURVE",
"422 629 LINE",
"25 38 LINE",
"40 0 LINE"
);
},
{
closed = 1;
nodes = (
"460 864 LINE",
"425 924 LINE",
"219 805 LINE",
"233 781 LINE"
);
}
);
width = 586;
}
);
leftKerningGroup = Z;
rightKerningGroup = Z;
},
{
glyphname = Zcaron.ss01;
lastChange = "2023-05-29 09:32:30 +0000";
layers = (
{
layerId = "6D97EE47-94AA-478E-ABFB-936E6C32B491";
paths = (
{
closed = 1;
nodes = (
"522 0 LINE",
"561 167 LINE",
"530 175 LINE",
"527 164 OFFCURVE",
"508 118 OFFCURVE",
"486 80 CURVE",
"125 80 LINE",
"521 669 LINE",
"504 707 LINE",
"43 707 LINE",
"36 536 LINE",
"68 534 LINE",
"74 565 OFFCURVE",
"79 596 OFFCURVE",
"87 629 CURVE",
"422 629 LINE",
"25 38 LINE",
"40 0 LINE"
);
},
{
closed = 1;
nodes = (
"294 796 LINE",
"455 932 LINE",
"436 955 LINE",
"282 867 LINE",
"128 955 LINE",
"109 932 LINE",
"270 796 LINE"
);
}
);
width = 586;
}
);
leftKerningGroup = Z;
rightKerningGroup = Z;
},
{
glyphname = Zcircumflex.ss01;
lastChange = "2023-05-29 09:32:30 +0000";
layers = (
{
layerId = "6D97EE47-94AA-478E-ABFB-936E6C32B491";
paths = (
{
closed = 1;
nodes = (
"522 0 LINE",
"561 167 LINE",
"530 175 LINE",
"527 164 OFFCURVE",
"508 118 OFFCURVE",
"486 80 CURVE",
"125 80 LINE",
"521 669 LINE",
"504 707 LINE",
"43 707 LINE",
"36 536 LINE",
"68 534 LINE",
"74 565 OFFCURVE",
"79 596 OFFCURVE",
"87 629 CURVE",
"422 629 LINE",
"25 38 LINE",
"40 0 LINE"
);
},
{
closed = 1;
nodes = (
"279 877 LINE",
"433 789 LINE",
"452 812 LINE",
"291 948 LINE",
"267 948 LINE",
"106 812 LINE",
"125 789 LINE"
);
}
);
width = 586;
}
);
leftKerningGroup = Z;
rightKerningGroup = Z;
},
{
glyphname = Zdotaccent.ss01;
lastChange = "2023-05-29 09:32:30 +0000";
layers = (
{
layerId = "6D97EE47-94AA-478E-ABFB-936E6C32B491";
paths = (
{
closed = 1;
nodes = (
"522 0 LINE",
"561 167 LINE",
"530 175 LINE",
"527 164 OFFCURVE",
"508 118 OFFCURVE",
"486 80 CURVE",
"125 80 LINE",
"521 669 LINE",
"504 707 LINE",
"43 707 LINE",
"36 536 LINE",
"68 534 LINE",
"74 565 OFFCURVE",
"79 596 OFFCURVE",
"87 629 CURVE",
"422 629 LINE",
"25 38 LINE",
"40 0 LINE"
);
},
{
closed = 1;
nodes = (
"311 800 OFFCURVE",
"335 826 OFFCURVE",
"335 856 CURVE SMOOTH",
"335 887 OFFCURVE",
"311 911 OFFCURVE",
"279 911 CURVE SMOOTH",
"247 911 OFFCURVE",
"224 884 OFFCURVE",
"224 855 CURVE SMOOTH",
"224 824 OFFCURVE",
"247 800 OFFCURVE",
"279 800 CURVE SMOOTH"
);
}
);
width = 586;
}
);
leftKerningGroup = Z;
rightKerningGroup = Z;
},
{
glyphname = Zacute.loclPLK.ss01;
lastChange = "2023-05-29 09:32:30 +0000";
layers = (
{
layerId = "6D97EE47-94AA-478E-ABFB-936E6C32B491";
paths = (
{
closed = 1;
nodes = (
"522 0 LINE",
"561 167 LINE",
"530 175 LINE",
"527 164 OFFCURVE",
"508 118 OFFCURVE",
"486 80 CURVE",
"125 80 LINE",
"521 669 LINE",
"504 707 LINE",
"43 707 LINE",
"36 536 LINE",
"68 534 LINE",
"74 565 OFFCURVE",
"79 596 OFFCURVE",
"87 629 CURVE",
"422 629 LINE",
"25 38 LINE",
"40 0 LINE"
);
},
{
closed = 1;
nodes = (
"394 970 LINE",
"322 996 LINE",
"248 792 LINE",
"279 780 LINE"
);
}
);
width = 586;
}
);
leftKerningGroup = Z;
rightKerningGroup = Z;
},
{
glyphname = A.ss10;
lastChange = "2023-05-29 09:32:30 +0000";
layers = (
{
layerId = "6D97EE47-94AA-478E-ABFB-936E6C32B491";
paths = (
{
closed = 1;
nodes = (
"1305 -440 LINE",
"1305 1117 LINE",
"100 1117 LINE",
"100 -440 LINE"
);
},
{
closed = 1;
nodes = (
"180 1037 LINE",
"1225 1037 LINE",
"1225 -360 LINE",
"180 -360 LINE"
);
},
{
closed = 1;
nodes = (
"1201 -336 LINE",
"1201 1013 LINE",
"204 1013 LINE",
"204 -336 LINE"
);
},
{
closed = 1;
nodes = (
"344 30 LINE",
"359 30 OFFCURVE",
"390 33 OFFCURVE",
"415 45 CURVE",
"667 665 LINE",
"652 707 LINE",
"734 737 LINE",
"985 46 LINE",
"1011 33 OFFCURVE",
"1045 30 OFFCURVE",
"1061 30 CURVE",
"1061 0 LINE",
"804 0 LINE",
"804 30 LINE",
"823 30 OFFCURVE",
"862 33 OFFCURVE",
"892 46 CURVE",
"818 249 LINE",
"556 249 LINE",
"473 46 LINE",
"503 33 OFFCURVE",
"542 30 OFFCURVE",
"561 30 CURVE",
"561 0 LINE",
"344 0 LINE"
);
},
{
closed = 1;
nodes = (
"800 300 LINE",
"695 589 LINE",
"577 300 LINE"
);
}
);
width = 1405;
}
);
},
{
glyphname = B.ss10;
lastChange = "2023-05-29 09:32:30 +0000";
layers = (
{
layerId = "6D97EE47-94AA-478E-ABFB-936E6C32B491";
paths = (
{
closed = 1;
nodes = (
"1138 -440 LINE",
"1138 1117 LINE",
"100 1117 LINE",
"100 -440 LINE"
);
},
{
closed = 1;
nodes = (
"732 43 OFFCURVE",
"803 89 OFFCURVE",
"803 175 CURVE SMOOTH",
"803 249 OFFCURVE",
"757 310 OFFCURVE",
"686 334 CURVE SMOOTH",
"632 354 OFFCURVE",
"569 349 OFFCURVE",
"519 349 CURVE",
"519 69 LINE",
"536 54 OFFCURVE",
"583 43 OFFCURVE",
"632 43 CURVE SMOOTH"
);
},
{
closed = 1;
nodes = (
"180 1037 LINE",
"1058 1037 LINE",
"1058 -360 LINE",
"180 -360 LINE"
);
},
{
closed = 1;
nodes = (
"1034 -336 LINE",
"1034 1013 LINE",
"204 1013 LINE",
"204 -336 LINE"
);
},
{
closed = 1;
nodes = (
"344 30 LINE",
"363 30 OFFCURVE",
"402 33 OFFCURVE",
"432 46 CURVE",
"432 669 LINE",
"400 676 OFFCURVE",
"365 676 OFFCURVE",
"347 674 CURVE",
"344 704 LINE",
"501 716 OFFCURVE",
"561 721 OFFCURVE",
"630 721 CURVE SMOOTH",
"747 721 OFFCURVE",
"827 658 OFFCURVE",
"827 558 CURVE SMOOTH",
"827 490 OFFCURVE",
"785 424 OFFCURVE",
"730 398 CURVE",
"817 370 OFFCURVE",
"894 292 OFFCURVE",
"894 198 CURVE SMOOTH",
"894 105 OFFCURVE",
"817 0 OFFCURVE",
"654 0 CURVE SMOOTH",
"344 0 LINE"
);
},
{
closed = 1;
nodes = (
"543 394 OFFCURVE",
"643 388 OFFCURVE",
"690 419 CURVE SMOOTH",
"722 439 OFFCURVE",
"743 483 OFFCURVE",
"743 531 CURVE SMOOTH",
"743 650 OFFCURVE",
"653 692 OFFCURVE",
"519 673 CURVE",
"519 395 LINE"
);
}
);
width = 1238;
}
);
},
{
glyphname = C.ss10;
lastChange = "2023-05-29 09:32:30 +0000";
layers = (
{
layerId = "6D97EE47-94AA-478E-ABFB-936E6C32B491";
paths = (
{
closed = 1;
nodes = (
"1253 -440 LINE",
"1253 1117 LINE",
"100 1117 LINE",
"100 -440 LINE"
);
},
{
closed = 1;
nodes = (
"180 1037 LINE",
"1173 1037 LINE",
"1173 -360 LINE",
"180 -360 LINE"
);
},
{
closed = 1;
nodes = (
"1149 -336 LINE",
"1149 1013 LINE",
"204 1013 LINE",
"204 -336 LINE"
);
},
{
closed = 1;
nodes = (
"511 -14 OFFCURVE",
"344 135 OFFCURVE",
"344 350 CURVE SMOOTH",
"344 560 OFFCURVE",
"515 722 OFFCURVE",
"725 722 CURVE SMOOTH",
"817 722 OFFCURVE",
"899 701 OFFCURVE",
"946 688 CURVE",
"966 546 LINE",
"936 540 LINE",
"900 635 OFFCURVE",
"814 673 OFFCURVE",
"719 673 CURVE SMOOTH",
"548 673 OFFCURVE",
"439 549 OFFCURVE",
"439 380 CURVE SMOOTH",
"439 197 OFFCURVE",
"578 33 OFFCURVE",
"746 33 CURVE SMOOTH",
"857 33 OFFCURVE",
"920 83 OFFCURVE",
"979 176 CURVE",
"1009 161 LINE",
"931 13 LINE",
"862 -5 OFFCURVE",
"799 -14 OFFCURVE",
"742 -14 CURVE SMOOTH"
);
}
);
width = 1353;
}
);
},
{
glyphname = D.ss10;
lastChange = "2023-05-29 09:32:30 +0000";
layers = (
{
layerId = "6D97EE47-94AA-478E-ABFB-936E6C32B491";
paths = (
{
closed = 1;
nodes = (
"1320 -440 LINE",
"1320 1117 LINE",
"100 1117 LINE",
"100 -440 LINE"
);
},
{
closed = 1;
nodes = (
"180 1037 LINE",
"1240 1037 LINE",
"1240 -360 LINE",
"180 -360 LINE"
);
},
{
closed = 1;
nodes = (
"1216 -336 LINE",
"1216 1013 LINE",
"204 1013 LINE",
"204 -336 LINE"
);
},
{
closed = 1;
nodes = (
"344 30 LINE",
"363 30 OFFCURVE",
"402 33 OFFCURVE",
"432 46 CURVE",
"432 664 LINE",
"400 671 OFFCURVE",
"365 671 OFFCURVE",
"347 669 CURVE",
"344 699 LINE",
"435 707 OFFCURVE",
"531 721 OFFCURVE",
"626 721 CURVE SMOOTH",
"884 721 OFFCURVE",
"1076 597 OFFCURVE",
"1076 364 CURVE SMOOTH",
"1076 203 OFFCURVE",
"952 62 OFFCURVE",
"789 19 CURVE SMOOTH",
"745 7 OFFCURVE",
"667 0 OFFCURVE",
"604 0 CURVE SMOOTH",
"344 0 LINE"
);
},
{
closed = 1;
nodes = (
"842 47 OFFCURVE",
"978 157 OFFCURVE",
"978 337 CURVE SMOOTH",
"978 575 OFFCURVE",
"774 705 OFFCURVE",
"519 668 CURVE",
"519 69 LINE",
"553 56 OFFCURVE",
"596 47 OFFCURVE",
"647 47 CURVE SMOOTH"
);
}
);
width = 1420;
}
);
},
{
glyphname = E.ss10;
lastChange = "2023-05-29 09:32:30 +0000";
layers = (
{
layerId = "6D97EE47-94AA-478E-ABFB-936E6C32B491";
paths = (
{
closed = 1;
nodes = (
"1111 -440 LINE",
"1111 1117 LINE",
"100 1117 LINE",
"100 -440 LINE"
);
},
{
closed = 1;
nodes = (
"180 1037 LINE",
"1031 1037 LINE",
"1031 -360 LINE",
"180 -360 LINE"
);
},
{
closed = 1;
nodes = (
"1007 -336 LINE",
"1007 1013 LINE",
"204 1013 LINE",
"204 -336 LINE"
);
},
{
closed = 1;
nodes = (
"344 30 LINE",
"363 30 OFFCURVE",
"402 33 OFFCURVE",
"432 46 CURVE",
"432 661 LINE",
"402 674 OFFCURVE",
"363 677 OFFCURVE",
"344 677 CURVE",
"344 707 LINE",
"809 707 LINE",
"814 571 LINE",
"782 569 LINE",
"780 592 OFFCURVE",
"775 626 OFFCURVE",
"762 656 CURVE",
"519 656 LINE",
"519 393 LINE",
"728 393 LINE",
"735 419 OFFCURVE",
"737 447 OFFCURVE",
"737 463 CURVE",
"769 463 LINE",
"769 263 LINE",
"737 263 LINE",
"737 280 OFFCURVE",
"735 314 OFFCURVE",
"725 342 CURVE",
"519 342 LINE",
"519 51 LINE",
"782 51 LINE",
"808 85 OFFCURVE",
"832 146 OFFCURVE",
"835 159 CURVE",
"867 151 LINE",
"834 0 LINE",
"344 0 LINE"
);
}
);
width = 1211;
}
);
},
{
glyphname = F.ss10;
lastChange = "2023-05-29 09:32:30 +0000";
layers = (
{
layerId = "6D97EE47-94AA-478E-ABFB-936E6C32B491";
paths = (
{
closed = 1;
nodes = (
"1058 -440 LINE",
"1058 1117 LINE",
"100 1117 LINE",
"100 -440 LINE"
);
},
{
closed = 1;
nodes = (
"180 1037 LINE",
"978 1037 LINE",
"978 -360 LINE",
"180 -360 LINE"
);
},
{
closed = 1;
nodes = (
"954 -336 LINE",
"954 1013 LINE",
"204 1013 LINE",
"204 -336 LINE"
);
},
{
closed = 1;
nodes = (
"344 30 LINE",
"363 30 OFFCURVE",
"402 33 OFFCURVE",
"432 46 CURVE",
"432 661 LINE",
"402 674 OFFCURVE",
"363 677 OFFCURVE",
"344 677 CURVE",
"344 707 LINE",
"809 707 LINE",
"814 571 LINE",
"782 569 LINE",
"780 592 OFFCURVE",
"775 626 OFFCURVE",
"762 656 CURVE",
"519 656 LINE",
"519 382 LINE",
"724 382 LINE",
"732 408 OFFCURVE",
"734 437 OFFCURVE",
"734 452 CURVE",
"764 452 LINE",
"764 252 LINE",
"734 252 LINE",
"734 269 OFFCURVE",
"732 303 OFFCURVE",
"722 331 CURVE",
"519 331 LINE",
"519 46 LINE",
"552 33 OFFCURVE",
"595 30 OFFCURVE",
"616 30 CURVE",
"616 0 LINE",
"344 0 LINE"
);
}
);
width = 1158;
}
);
},
{
glyphname = G.ss10;
lastChange = "2023-05-29 09:32:30 +0000";
layers = (
{
layerId = "6D97EE47-94AA-478E-ABFB-936E6C32B491";
paths = (
{
closed = 1;
nodes = (
"1297 -440 LINE",
"1297 1117 LINE",
"100 1117 LINE",
"100 -440 LINE"
);
},
{
closed = 1;
nodes = (
"180 1037 LINE",
"1217 1037 LINE",
"1217 -360 LINE",
"180 -360 LINE"
);
},
{
closed = 1;
nodes = (
"1193 -336 LINE",
"1193 1013 LINE",
"204 1013 LINE",
"204 -336 LINE"
);
},
{
closed = 1;
nodes = (
"514 -14 OFFCURVE",
"344 129 OFFCURVE",
"344 349 CURVE SMOOTH",
"344 563 OFFCURVE",
"515 721 OFFCURVE",
"728 721 CURVE SMOOTH",
"828 721 OFFCURVE",
"921 700 OFFCURVE",
"967 687 CURVE",
"988 545 LINE",
"958 539 LINE",
"922 634 OFFCURVE",
"825 673 OFFCURVE",
"729 673 CURVE SMOOTH",
"549 673 OFFCURVE",
"439 552 OFFCURVE",
"439 380 CURVE SMOOTH",
"439 192 OFFCURVE",
"582 31 OFFCURVE",
"757 31 CURVE SMOOTH",
"805 31 OFFCURVE",
"856 43 OFFCURVE",
"911 70 CURVE",
"911 221 LINE",
"881 234 OFFCURVE",
"841 237 OFFCURVE",
"823 237 CURVE",
"823 269 LINE",
"1053 269 LINE",
"1053 237 LINE",
"1037 237 OFFCURVE",
"1009 228 OFFCURVE",
"998 221 CURVE",
"998 76 LINE",
"1002 67 OFFCURVE",
"1014 57 OFFCURVE",
"1024 52 CURVE",
"1024 17 LINE",
"940 13 OFFCURVE",
"857 -14 OFFCURVE",
"752 -14 CURVE SMOOTH"
);
}
);
width = 1397;
}
);
},
{
glyphname = H.ss10;
lastChange = "2023-05-29 09:32:30 +0000";
layers = (
{
layerId = "6D97EE47-94AA-478E-ABFB-936E6C32B491";
paths = (
{
closed = 1;
nodes = (
"1338 -440 LINE",
"1338 1117 LINE",
"100 1117 LINE",
"100 -440 LINE"
);
},
{
closed = 1;
nodes = (
"180 1037 LINE",
"1258 1037 LINE",
"1258 -360 LINE",
"180 -360 LINE"
);
},
{
closed = 1;
nodes = (
"1234 -336 LINE",
"1234 1013 LINE",
"204 1013 LINE",
"204 -336 LINE"
);
},
{
closed = 1;
nodes = (
"344 30 LINE",
"363 30 OFFCURVE",
"402 33 OFFCURVE",
"432 46 CURVE",
"432 661 LINE",
"402 674 OFFCURVE",
"363 677 OFFCURVE",
"344 677 CURVE",
"344 707 LINE",
"607 707 LINE",
"607 677 LINE",
"588 677 OFFCURVE",
"549 674 OFFCURVE",
"519 661 CURVE",
"519 399 LINE",
"919 399 LINE",
"919 661 LINE",
"889 674 OFFCURVE",
"850 677 OFFCURVE",
"831 677 CURVE",
"831 707 LINE",
"1094 707 LINE",
"1094 677 LINE",
"1075 677 OFFCURVE",
"1036 674 OFFCURVE",
"1006 661 CURVE",
"1006 46 LINE",
"1036 33 OFFCURVE",
"1075 30 OFFCURVE",
"1094 30 CURVE",
"1094 0 LINE",
"831 0 LINE",
"831 30 LINE",
"850 30 OFFCURVE",
"889 33 OFFCURVE",
"919 46 CURVE",
"919 348 LINE",
"519 348 LINE",
"519 46 LINE",
"549 33 OFFCURVE",
"588 30 OFFCURVE",
"607 30 CURVE",
"607 0 LINE",
"344 0 LINE"
);
}
);
width = 1438;
}
);
},
{
glyphname = I.ss10;
lastChange = "2023-05-29 09:32:30 +0000";
layers = (
{
layerId = "6D97EE47-94AA-478E-ABFB-936E6C32B491";
paths = (
{
closed = 1;
nodes = (
"851 -440 LINE",
"851 1117 LINE",
"100 1117 LINE",
"100 -440 LINE"
);
},
{
closed = 1;
nodes = (
"180 1037 LINE",
"771 1037 LINE",
"771 -360 LINE",
"180 -360 LINE"
);
},
{
closed = 1;
nodes = (
"747 -336 LINE",
"747 1013 LINE",
"204 1013 LINE",
"204 -336 LINE"
);
},
{
closed = 1;
nodes = (
"344 30 LINE",
"363 30 OFFCURVE",
"402 33 OFFCURVE",
"432 46 CURVE",
"432 661 LINE",
"402 674 OFFCURVE",
"363 677 OFFCURVE",
"344 677 CURVE",
"344 707 LINE",
"607 707 LINE",
"607 677 LINE",
"588 677 OFFCURVE",
"549 674 OFFCURVE",
"519 661 CURVE",
"519 46 LINE",
"549 33 OFFCURVE",
"588 30 OFFCURVE",
"607 30 CURVE",
"607 0 LINE",
"344 0 LINE"
);
}
);
width = 951;
}
);
},
{
glyphname = J.ss10;
lastChange = "2023-05-29 09:32:30 +0000";
layers = (
{
layerId = "6D97EE47-94AA-478E-ABFB-936E6C32B491";
paths = (
{
closed = 1;
nodes = (
"894 -440 LINE",
"894 1117 LINE",
"100 1117 LINE",
"100 -440 LINE"
);
},
{
closed = 1;
nodes = (
"344 -163 LINE",
"381 -130 OFFCURVE",
"439 -54 OFFCURVE",
"464 41 CURVE SMOOTH",
"471 67 OFFCURVE",
"474 94 OFFCURVE",
"474 120 CURVE SMOOTH",
"474 661 LINE",
"444 674 OFFCURVE",
"405 677 OFFCURVE",
"386 677 CURVE",
"386 707 LINE",
"650 707 LINE",
"650 677 LINE",
"631 677 OFFCURVE",
"592 674 OFFCURVE",
"562 661 CURVE",
"562 100 LINE",
"519 -75 OFFCURVE",
"390 -171 OFFCURVE",
"366 -186 CURVE"
);
},
{
closed = 1;
nodes = (
"180 1037 LINE",
"814 1037 LINE",
"814 -360 LINE",
"180 -360 LINE"
);
},
{
closed = 1;
nodes = (
"790 -336 LINE",
"790 1013 LINE",
"204 1013 LINE",
"204 -336 LINE"
);
}
);
width = 994;
}
);
},
{
glyphname = K.ss10;
lastChange = "2023-05-29 09:32:30 +0000";
layers = (
{
layerId = "6D97EE47-94AA-478E-ABFB-936E6C32B491";
paths = (
{
closed = 1;
nodes = (
"1250 -440 LINE",
"1250 1117 LINE",
"100 1117 LINE",
"100 -440 LINE"
);
},
{
closed = 1;
nodes = (
"344 30 LINE",
"363 30 OFFCURVE",
"402 33 OFFCURVE",
"432 46 CURVE",
"432 661 LINE",
"402 674 OFFCURVE",
"363 677 OFFCURVE",
"344 677 CURVE",
"344 707 LINE",
"607 707 LINE",
"607 677 LINE",
"588 677 OFFCURVE",
"549 674 OFFCURVE",
"519 661 CURVE",
"519 46 LINE",
"550 33 OFFCURVE",
"591 30 OFFCURVE",
"611 30 CURVE",
"611 0 LINE",
"344 0 LINE"
);
},
{
closed = 1;
nodes = (
"180 1037 LINE",
"1170 1037 LINE",
"1170 -360 LINE",
"180 -360 LINE"
);
},
{
closed = 1;
nodes = (
"1146 -336 LINE",
"1146 1013 LINE",
"204 1013 LINE",
"204 -336 LINE"
);
},
{
closed = 1;
nodes = (
"862 -29 OFFCURVE",
"819 7 OFFCURVE",
"763 65 CURVE SMOOTH",
"712 117 OFFCURVE",
"569 331 OFFCURVE",
"537 373 CURVE",
"806 661 LINE",
"781 674 OFFCURVE",
"749 677 OFFCURVE",
"734 677 CURVE",
"734 707 LINE",
"962 707 LINE",
"962 677 LINE",
"943 677 OFFCURVE",
"905 674 OFFCURVE",
"875 661 CURVE",
"625 392 LINE",
"668 333 OFFCURVE",
"769 197 OFFCURVE",
"832 127 CURVE SMOOTH",
"885 68 OFFCURVE",
"917 27 OFFCURVE",
"1006 0 CURVE",
"999 -30 LINE"
);
}
);
width = 1350;
}
);
},
{
glyphname = L.ss10;
lastChange = "2023-05-29 09:32:30 +0000";
layers = (
{
layerId = "6D97EE47-94AA-478E-ABFB-936E6C32B491";
paths = (
{
closed = 1;
nodes = (
"1124 -440 LINE",
"1124 1117 LINE",
"100 1117 LINE",
"100 -440 LINE"
);
},
{
closed = 1;
nodes = (
"180 1037 LINE",
"1044 1037 LINE",
"1044 -360 LINE",
"180 -360 LINE"
);
},
{
closed = 1;
nodes = (
"1020 -336 LINE",
"1020 1013 LINE",
"204 1013 LINE",
"204 -336 LINE"
);
},
{
closed = 1;
nodes = (
"344 30 LINE",
"363 30 OFFCURVE",
"402 33 OFFCURVE",
"432 46 CURVE",
"432 661 LINE",
"402 674 OFFCURVE",
"363 677 OFFCURVE",
"344 677 CURVE",
"344 707 LINE",
"607 707 LINE",
"607 677 LINE",
"588 677 OFFCURVE",
"549 674 OFFCURVE",
"519 661 CURVE",
"519 51 LINE",
"787 51 LINE",
"810 77 OFFCURVE",
"841 139 OFFCURVE",
"849 158 CURVE",
"880 148 LINE",
"834 0 LINE",
"344 0 LINE"
);
}
);
width = 1224;
}
);
},
{
glyphname = M.ss10;
lastChange = "2023-05-29 09:32:30 +0000";
layers = (
{
layerId = "6D97EE47-94AA-478E-ABFB-936E6C32B491";
paths = (
{
closed = 1;
nodes = (
"1447 -440 LINE",
"1447 1117 LINE",
"100 1117 LINE",
"100 -440 LINE"
);
},
{
closed = 1;
nodes = (
"180 1037 LINE",
"1367 1037 LINE",
"1367 -360 LINE",
"180 -360 LINE"
);
},
{
closed = 1;
nodes = (
"1343 -336 LINE",
"1343 1013 LINE",
"204 1013 LINE",
"204 -336 LINE"
);
},
{
closed = 1;
nodes = (
"342 30 LINE",
"361 30 OFFCURVE",
"400 33 OFFCURVE",
"430 46 CURVE",
"457 661 LINE",
"427 674 OFFCURVE",
"388 677 OFFCURVE",
"369 677 CURVE",
"369 707 LINE",
"547 707 LINE",
"767 169 LINE",
"1031 707 LINE",
"1178 707 LINE",
"1178 677 LINE",
"1159 677 OFFCURVE",
"1121 674 OFFCURVE",
"1091 661 CURVE",
"1115 46 LINE",
"1145 33 OFFCURVE",
"1184 30 OFFCURVE",
"1203 30 CURVE",
"1203 0 LINE",
"939 0 LINE",
"939 30 LINE",
"958 30 OFFCURVE",
"997 33 OFFCURVE",
"1027 46 CURVE",
"1008 544 LINE",
"741 0 LINE",
"509 568 LINE",
"486 46 LINE",
"516 33 OFFCURVE",
"555 30 OFFCURVE",
"574 30 CURVE",
"574 0 LINE",
"342 0 LINE"
);
}
);
width = 1547;
}
);
},
{
glyphname = N.ss10;
lastChange = "2023-05-29 09:32:30 +0000";
layers = (
{
layerId = "6D97EE47-94AA-478E-ABFB-936E6C32B491";
paths = (
{
closed = 1;
nodes = (
"1314 -440 LINE",
"1314 1117 LINE",
"100 1117 LINE",
"100 -440 LINE"
);
},
{
closed = 1;
nodes = (
"180 1037 LINE",
"1234 1037 LINE",
"1234 -360 LINE",
"180 -360 LINE"
);
},
{
closed = 1;
nodes = (
"1210 -336 LINE",
"1210 1013 LINE",
"204 1013 LINE",
"204 -336 LINE"
);
},
{
closed = 1;
nodes = (
"488 582 LINE",
"488 46 LINE",
"518 33 OFFCURVE",
"557 30 OFFCURVE",
"576 30 CURVE",
"576 0 LINE",
"344 0 LINE",
"344 30 LINE",
"363 30 OFFCURVE",
"402 33 OFFCURVE",
"432 46 CURVE",
"432 661 LINE",
"402 674 OFFCURVE",
"363 677 OFFCURVE",
"344 677 CURVE",
"344 707 LINE",
"503 707 LINE",
"926 147 LINE",
"926 661 LINE",
"896 674 OFFCURVE",
"857 677 OFFCURVE",
"838 677 CURVE",
"838 707 LINE",
"1070 707 LINE",
"1070 677 LINE",
"1051 677 OFFCURVE",
"1012 674 OFFCURVE",
"982 661 CURVE",
"982 -14 LINE",
"937 -14 LINE"
);
}
);
width = 1414;
}
);
},
{
glyphname = O.ss10;
lastChange = "2023-05-29 09:32:30 +0000";
layers = (
{
layerId = "6D97EE47-94AA-478E-ABFB-936E6C32B491";
paths = (
{
closed = 1;
nodes = (
"1332 -440 LINE",
"1332 1117 LINE",
"100 1117 LINE",
"100 -440 LINE"
);
},
{
closed = 1;
nodes = (
"180 1037 LINE",
"1252 1037 LINE",
"1252 -360 LINE",
"180 -360 LINE"
);
},
{
closed = 1;
nodes = (
"1228 -336 LINE",
"1228 1013 LINE",
"204 1013 LINE",
"204 -336 LINE"
);
},
{
closed = 1;
nodes = (
"509 -14 OFFCURVE",
"344 146 OFFCURVE",
"344 348 CURVE SMOOTH",
"344 553 OFFCURVE",
"512 721 OFFCURVE",
"718 721 CURVE SMOOTH",
"921 721 OFFCURVE",
"1088 562 OFFCURVE",
"1088 360 CURVE SMOOTH",
"1088 155 OFFCURVE",
"919 -14 OFFCURVE",
"713 -14 CURVE SMOOTH"
);
},
{
closed = 1;
nodes = (
"890 41 OFFCURVE",
"996 165 OFFCURVE",
"996 319 CURVE SMOOTH",
"996 496 OFFCURVE",
"860 667 OFFCURVE",
"689 667 CURVE SMOOTH",
"542 667 OFFCURVE",
"435 544 OFFCURVE",
"435 390 CURVE SMOOTH",
"435 215 OFFCURVE",
"570 41 OFFCURVE",
"743 41 CURVE SMOOTH"
);
}
);
width = 1432;
}
);
},
{
glyphname = P.ss10;
lastChange = "2023-05-29 09:32:30 +0000";
layers = (
{
layerId = "6D97EE47-94AA-478E-ABFB-936E6C32B491";
paths = (
{
closed = 1;
nodes = (
"1118 -440 LINE",
"1118 1117 LINE",
"100 1117 LINE",
"100 -440 LINE"
);
},
{
closed = 1;
nodes = (
"180 1037 LINE",
"1038 1037 LINE",
"1038 -360 LINE",
"180 -360 LINE"
);
},
{
closed = 1;
nodes = (
"1014 -336 LINE",
"1014 1013 LINE",
"204 1013 LINE",
"204 -336 LINE"
);
},
{
closed = 1;
nodes = (
"344 30 LINE",
"363 30 OFFCURVE",
"402 33 OFFCURVE",
"432 46 CURVE",
"432 667 LINE",
"404 673 OFFCURVE",
"363 675 OFFCURVE",
"348 672 CURVE",
"345 702 LINE",
"472 712 OFFCURVE",
"530 721 OFFCURVE",
"605 721 CURVE SMOOTH",
"767 721 OFFCURVE",
"874 605 OFFCURVE",
"874 491 CURVE SMOOTH",
"874 375 OFFCURVE",
"768 261 OFFCURVE",
"581 268 CURVE",
"576 300 LINE",
"717 309 OFFCURVE",
"781 381 OFFCURVE",
"781 470 CURVE SMOOTH",
"781 607 OFFCURVE",
"653 692 OFFCURVE",
"519 671 CURVE",
"519 46 LINE",
"552 33 OFFCURVE",
"595 30 OFFCURVE",
"616 30 CURVE",
"616 0 LINE",
"344 0 LINE"
);
}
);
width = 1218;
}
);
},
{
glyphname = Q.ss10;
lastChange = "2023-05-29 09:32:30 +0000";
layers = (
{
layerId = "6D97EE47-94AA-478E-ABFB-936E6C32B491";
paths = (
{
closed = 1;
nodes = (
"1391 -440 LINE",
"1391 1117 LINE",
"100 1117 LINE",
"100 -440 LINE"
);
},
{
closed = 1;
nodes = (
"979 -190 OFFCURVE",
"855 -136 OFFCURVE",
"739 -13 CURVE",
"730 -14 OFFCURVE",
"722 -14 OFFCURVE",
"713 -14 CURVE SMOOTH",
"507 -14 OFFCURVE",
"344 149 OFFCURVE",
"344 348 CURVE SMOOTH",
"344 553 OFFCURVE",
"513 721 OFFCURVE",
"718 721 CURVE SMOOTH",
"921 721 OFFCURVE",
"1089 561 OFFCURVE",
"1089 359 CURVE SMOOTH",
"1089 197 OFFCURVE",
"983 58 OFFCURVE",
"837 7 CURVE",
"925 -90 OFFCURVE",
"1037 -158 OFFCURVE",
"1147 -168 CURVE",
"1144 -200 LINE"
);
},
{
closed = 1;
nodes = (
"891 41 OFFCURVE",
"996 165 OFFCURVE",
"996 319 CURVE SMOOTH",
"996 496 OFFCURVE",
"860 667 OFFCURVE",
"689 667 CURVE SMOOTH",
"541 667 OFFCURVE",
"435 543 OFFCURVE",
"435 390 CURVE SMOOTH",
"435 216 OFFCURVE",
"570 41 OFFCURVE",
"743 41 CURVE SMOOTH"
);
},
{
closed = 1;
nodes = (
"180 1037 LINE",
"1311 1037 LINE",
"1311 -360 LINE",
"180 -360 LINE"
);
},
{
closed = 1;
nodes = (
"1287 -336 LINE",
"1287 1013 LINE",
"204 1013 LINE",
"204 -336 LINE"
);
}
);
width = 1491;
}
);
},
{
glyphname = R.ss10;
lastChange = "2023-05-29 09:32:30 +0000";
layers = (
{
layerId = "6D97EE47-94AA-478E-ABFB-936E6C32B491";
paths = (
{
closed = 1;
nodes = (
"1251 -440 LINE",
"1251 1117 LINE",
"100 1117 LINE",
"100 -440 LINE"
);
},
{
closed = 1;
nodes = (
"180 1037 LINE",
"1171 1037 LINE",
"1171 -360 LINE",
"180 -360 LINE"
);
},
{
closed = 1;
nodes = (
"1147 -336 LINE",
"1147 1013 LINE",
"204 1013 LINE",
"204 -336 LINE"
);
},
{
closed = 1;
nodes = (
"860 -20 OFFCURVE",
"813 12 OFFCURVE",
"760 73 CURVE SMOOTH",
"718 122 OFFCURVE",
"641 265 OFFCURVE",
"603 330 CURVE",
"578 324 OFFCURVE",
"550 320 OFFCURVE",
"519 317 CURVE",
"519 46 LINE",
"550 33 OFFCURVE",
"591 30 OFFCURVE",
"611 30 CURVE",
"611 0 LINE",
"344 0 LINE",
"344 30 LINE",
"363 30 OFFCURVE",
"402 33 OFFCURVE",
"432 46 CURVE",
"432 669 LINE",
"400 676 OFFCURVE",
"365 676 OFFCURVE",
"347 674 CURVE",
"344 704 LINE",
"440 712 OFFCURVE",
"524 721 OFFCURVE",
"599 721 CURVE SMOOTH",
"733 721 OFFCURVE",
"838 680 OFFCURVE",
"838 548 CURVE SMOOTH",
"838 482 OFFCURVE",
"798 402 OFFCURVE",
"685 354 CURVE",
"721 289 OFFCURVE",
"782 195 OFFCURVE",
"835 128 CURVE SMOOTH",
"884 65 OFFCURVE",
"920 33 OFFCURVE",
"1007 0 CURVE",
"998 -29 LINE"
);
},
{
closed = 1;
nodes = (
"672 359 OFFCURVE",
"751 444 OFFCURVE",
"751 524 CURVE SMOOTH",
"751 642 OFFCURVE",
"652 694 OFFCURVE",
"519 677 CURVE",
"519 353 LINE"
);
}
);
width = 1351;
}
);
},
{
glyphname = S.ss10;
lastChange = "2023-05-29 09:32:30 +0000";
layers = (
{
layerId = "6D97EE47-94AA-478E-ABFB-936E6C32B491";
paths = (
{
closed = 1;
nodes = (
"1045 -440 LINE",
"1045 1117 LINE",
"100 1117 LINE",
"100 -440 LINE"
);
},
{
closed = 1;
nodes = (
"180 1037 LINE",
"965 1037 LINE",
"965 -360 LINE",
"180 -360 LINE"
);
},
{
closed = 1;
nodes = (
"941 -336 LINE",
"941 1013 LINE",
"204 1013 LINE",
"204 -336 LINE"
);
},
{
closed = 1;
nodes = (
"476 -14 OFFCURVE",
"381 15 OFFCURVE",
"375 23 CURVE",
"344 215 LINE",
"377 221 LINE",
"403 106 OFFCURVE",
"452 33 OFFCURVE",
"560 33 CURVE SMOOTH",
"648 33 OFFCURVE",
"710 79 OFFCURVE",
"710 155 CURVE SMOOTH",
"710 316 OFFCURVE",
"389 334 OFFCURVE",
"389 537 CURVE SMOOTH",
"389 660 OFFCURVE",
"495 721 OFFCURVE",
"626 721 CURVE SMOOTH",
"687 721 OFFCURVE",
"739 707 OFFCURVE",
"765 702 CURVE",
"787 540 LINE",
"754 536 LINE",
"743 620 OFFCURVE",
"703 675 OFFCURVE",
"619 675 CURVE SMOOTH",
"542 675 OFFCURVE",
"477 626 OFFCURVE",
"477 560 CURVE SMOOTH",
"477 402 OFFCURVE",
"801 400 OFFCURVE",
"801 168 CURVE SMOOTH",
"801 50 OFFCURVE",
"699 -14 OFFCURVE",
"570 -14 CURVE SMOOTH"
);
}
);
width = 1145;
}
);
},
